<svg version="1.2" xmlns="http://www.w3.org/2000/svg" viewBox="0 0 600 312" width="600" height="312">
	<title>404-svg</title>
	<style>
		.s0 { fill: #ebebeb } 
		.s1 { fill: #e0e0e0 } 
		.s2 { fill: #6362e7 } 
		.s3 { fill: #ffffff } 
		.s4 { opacity: .8;fill: #ffffff } 
		.s5 { fill: #000000 } 
		.s6 { fill: #ff8819 } 
		.s7 { fill: #263238 } 
		.s8 { fill: #ffbe9d } 
		.s9 { fill: #eb996e } 
	</style>
	<g id="freepik--background-complete--inject-4">
		<path id="Layer" class="s0" d="m383.4 309.3c2.1-1.2 4.4-1.8 6.8-1.8 2.3-0.1 4.7 0.5 6.7 1.6 2.1 1 3.9 2.6 5.3 4.6 1.3 2 2.1 4.2 2.4 6.6-8.7 0-17.2-2-21.2-11z"/>
		<path id="Layer" class="s0" d="m417.6 281.2c0.3 3-0.2 6.1-1.4 8.9-1.2 2.8-3.1 5.3-5.5 7.2-2.4 1.9-5.2 3.2-8.2 3.7-3 0.6-6.1 0.4-9-0.6 2.8-12.4 13.1-17.1 24.1-19.2z"/>
		<path id="Layer" class="s1" d="m355.8 315.1q0.1-0.1 0.2-0.1 0 0 0.1-0.1 0.1 0 0.1 0 0.1 0 0.2-0.1l1.6-0.5c1.3-0.4 3.3-1.1 5.8-1.9 4.8-1.8 11.5-4.2 18.8-7.3 3.6-1.6 7-3.2 10-4.8 3.1-1.5 5.7-3 7.9-4.4q0.7-0.4 1.3-0.8 0.7-0.4 1.3-0.8 0.6-0.4 1.3-0.9 0.6-0.4 1.2-0.9c1.1-0.9 1.7-1.5 1.7-1.4q-0.1 0-0.1 0.1-0.1 0-0.1 0.1 0 0-0.1 0.1-0.1 0-0.1 0.1-0.1 0.1-0.3 0.3-0.1 0.1-0.3 0.3-0.2 0.1-0.3 0.3-0.2 0.1-0.3 0.2-0.6 0.5-1.2 1-0.6 0.5-1.3 0.9-0.6 0.5-1.2 0.9-0.6 0.4-1.3 0.8c-2.2 1.4-4.9 2.9-7.9 4.5-3 1.6-6.4 3.2-10.1 4.8-7.2 3.2-13.9 5.6-18.8 7.2-2.5 0.8-4.5 1.4-5.9 1.8l-1.6 0.5q-0.1 0-0.1 0-0.1 0-0.2 0 0 0-0.1 0-0.1 0-0.2 0.1z"/>
		<path id="Layer" class="s1" d="m394.5 314.3c0 0.1-1-0.6-2.7-1.5q-0.9-0.5-1.7-0.9-0.9-0.4-1.8-0.8-0.9-0.3-1.8-0.6-0.9-0.3-1.8-0.6-0.9-0.2-1.9-0.4-0.9-0.2-1.8-0.4-1-0.1-1.9-0.2-1-0.1-2-0.2c-1.9 0-3.1 0-3.1 0q0.1-0.1 0.2-0.1 0.1 0 0.2 0 0.1 0 0.2 0 0.1-0.1 0.2-0.1 0.3 0 0.6 0 0.3 0 0.6 0 0.3-0.1 0.6-0.1 0.3 0 0.6 0 1.9 0 3.8 0.3 1.9 0.3 3.8 0.8 1.9 0.5 3.7 1.2 1.8 0.8 3.4 1.8 0.3 0.1 0.5 0.3 0.3 0.1 0.5 0.3 0.3 0.2 0.5 0.3 0.2 0.2 0.5 0.4 0.1 0 0.2 0.1 0 0.1 0.1 0.1 0.1 0.1 0.2 0.2 0.1 0 0.1 0.1z"/>
		<path id="Layer" class="s0" d="m208.3 300.1c-3 0.1-5.9-0.5-8.6-1.8-2.7-1.3-5-3.2-6.8-5.6-1.7-2.4-2.9-5.2-3.3-8.2-0.4-2.9 0-5.9 1-8.7 11.9 3.2 16.1 13.5 17.7 24.3z"/>
		<path id="Layer" class="s1" d="m188.9 270.5c0.1 0 0.4 1.1 1 3q0.3 0.9 0.6 1.8 0.4 0.9 0.8 1.8 0.4 0.9 0.8 1.8 0.4 0.9 0.8 1.7 0.5 0.9 1 1.7 0.5 0.8 1 1.6 0.5 0.8 1.1 1.6 0.6 0.8 1.2 1.6c1.2 1.5 2 2.5 2 2.5q-0.1-0.1-0.2-0.1-0.1-0.1-0.2-0.2-0.1 0-0.1-0.1-0.1-0.1-0.2-0.2c-0.4-0.4-0.9-1-1.6-1.7q-1.2-1.5-2.3-3.1-1.1-1.6-2.1-3.3-0.9-1.8-1.6-3.6-0.8-1.8-1.3-3.6-0.4-1.5-0.6-2.3 0-0.2 0-0.3-0.1-0.1-0.1-0.2 0-0.1 0-0.2 0-0.1 0-0.2z"/>
		<path id="Layer" class="s0" d="m19.6 59.5c18.5 5.1 24.9 20.9 27.5 37.6-4.7 0.3-9.3-0.7-13.4-2.6-4.2-2-7.8-5-10.5-8.8-2.8-3.7-4.5-8.1-5.1-12.6-0.7-4.6-0.1-9.3 1.5-13.6"/>
		<path id="Layer" class="s1" d="m17 51.3q0 0.1 0.1 0.3 0 0.2 0.1 0.3 0.1 0.2 0.1 0.3 0 0.2 0.1 0.4 0.3 1.2 1 3.4 0.5 1.5 1 2.9 0.5 1.4 1.1 2.8 0.6 1.3 1.2 2.7 0.7 1.3 1.4 2.7 0.7 1.3 1.5 2.6 0.7 1.3 1.6 2.5 0.8 1.3 1.7 2.5 0.8 1.2 1.8 2.4c0.9 1.2 1.7 2.2 2.3 2.8q0.1 0.1 0.2 0.2 0.1 0.2 0.2 0.3 0.1 0.1 0.3 0.3 0 0.1 0.1 0.2-0.1-0.1-0.2-0.2-0.1-0.1-0.3-0.2-0.1-0.1-0.2-0.2-0.1-0.2-0.2-0.3c-0.6-0.6-1.5-1.5-2.5-2.7q-1.9-2.3-3.6-4.8-1.7-2.5-3.1-5.2-1.4-2.7-2.6-5.5-1.1-2.8-2-5.6c-0.4-1.5-0.7-2.7-0.9-3.6q0-0.1-0.1-0.3 0-0.2 0-0.3-0.1-0.2-0.1-0.4 0-0.2 0-0.3z"/>
		<path id="Layer" class="s0" d="m51.4 260c-2.7-1.4-4.9-3.4-6.6-5.9-1.6-2.5-2.7-5.3-2.9-8.3-0.3-3 0.1-5.9 1.3-8.7 1.1-2.7 3-5.2 5.3-7 8.6 8.9 6.9 19.8 2.9 29.9z"/>
		<path id="Layer" class="s1" d="m49.7 224.6c0.1 0-0.3 1.3-0.7 3.2q-0.4 1.9-0.7 3.8-0.2 1.9-0.3 3.8-0.1 2 0 3.9 0.1 1.9 0.4 3.9c0.2 1.9 0.5 3.1 0.4 3.1q0-0.1-0.1-0.2 0-0.1-0.1-0.2 0-0.1 0-0.2 0-0.1-0.1-0.2c-0.1-0.6-0.3-1.3-0.4-2.3q-0.4-1.9-0.5-3.9-0.1-1.9 0-3.9 0.1-2 0.3-3.9 0.3-1.9 0.8-3.8 0.4-1.5 0.7-2.3 0-0.1 0-0.2 0.1-0.1 0.1-0.2 0.1-0.1 0.1-0.2 0.1-0.1 0.1-0.2z"/>
		<path id="Layer" class="s0" d="m233.3-1.8c-0.1 3-1 5.9-2.6 8.4-1.5 2.6-3.7 4.7-6.3 6.2-2.6 1.5-5.5 2.4-8.4 2.5-3 0.1-6-0.6-8.6-1.9 4.4-11.6 15-14.6 25.9-15.2z"/>
		<path id="Layer" class="s1" d="m201.9 14.6c0-0.1 1.2-0.3 3.2-0.7q1.8-0.4 3.7-1 1.8-0.6 3.6-1.3 1.8-0.7 3.5-1.6 1.7-0.9 3.4-1.9c1.7-1.1 2.6-1.8 2.7-1.8q-0.1 0.1-0.2 0.2 0 0.1-0.1 0.2-0.1 0-0.2 0.1-0.1 0.1-0.2 0.1c-0.4 0.4-1 0.9-1.9 1.4q-1.6 1.1-3.3 2.1-1.7 0.9-3.5 1.6-1.8 0.8-3.7 1.3-1.9 0.6-3.8 0.9-1.5 0.3-2.3 0.4-0.1 0-0.2 0-0.1 0-0.2 0-0.2 0-0.3 0-0.1 0-0.2 0z"/>
		<path id="Layer" class="s0" d="m199.5-25.2c2.3 3.2 3.7 7 4.2 10.9 0.5 3.9 0 7.8-1.4 11.5-1.4 3.7-3.7 6.9-6.7 9.5-3 2.5-6.6 4.3-10.4 5.1-4.9-15.5 3.5-27.5 14.3-37z"/>
		<path id="Layer" class="s1" d="m180.5 17.5q0.1-0.2 0.2-0.3 0.1-0.1 0.1-0.2 0.1-0.1 0.2-0.2 0.1-0.1 0.2-0.2c0.5-0.5 1.2-1.3 2-2.4q1.6-1.9 3.1-4 1.4-2.1 2.7-4.4 1.2-2.2 2.2-4.5 1.1-2.4 1.9-4.8c0.4-1.2 0.7-2.2 0.9-2.9q0.1-0.2 0.1-0.3 0.1-0.2 0.1-0.3 0.1-0.1 0.1-0.3 0.1-0.1 0.1-0.2 0 0.1 0 0.3 0 0.1-0.1 0.2 0 0.2 0 0.3-0.1 0.2-0.1 0.3-0.2 1.1-0.8 3-0.8 2.5-1.8 4.8-1 2.4-2.3 4.6-1.2 2.3-2.7 4.4-1.5 2.1-3.2 4c-0.8 1-1.6 1.8-2.1 2.3q-0.1 0.1-0.2 0.2-0.1 0.1-0.2 0.2-0.1 0.1-0.2 0.2-0.1 0.1-0.2 0.2z"/>
		<path id="Layer" class="s0" d="m273.3 307.4c-1.1 1.4-2.6 2.5-4.3 3.2-1.6 0.6-3.4 0.9-5.2 0.7-1.8-0.2-3.5-0.9-5-1.9-1.5-1-2.7-2.4-3.5-4 6.3-4 12.6-1.6 18 2z"/>
		<path id="Layer" class="s1" d="m252.3 304q0.8 0.3 1.5 0.7 0.8 0.3 1.6 0.5 0.7 0.3 1.5 0.6 0.8 0.2 1.6 0.5 0.8 0.2 1.6 0.3 0.8 0.1 1.6 0.3 0.8 0.1 1.6 0.2 0.8 0.1 1.7 0.1-0.3 0.1-0.5 0.1-0.3 0.1-0.5 0.1-0.3 0-0.5 0-0.2 0-0.5 0-1.2-0.1-2.3-0.2-1.2-0.2-2.3-0.5-1.2-0.3-2.3-0.7-1.1-0.4-2.1-1-0.3-0.1-0.5-0.2-0.2-0.1-0.4-0.2-0.2-0.1-0.4-0.3-0.2-0.1-0.4-0.3z"/>
		<path id="Layer" class="s0" d="m352.8-3.8c-0.9 1.6-2.1 3-3.6 3.9-1.5 1-3.3 1.6-5.1 1.8-1.7 0.1-3.5-0.2-5.2-0.9-1.6-0.7-3.1-1.9-4.2-3.3 5.5-5.1 12-4 18.1-1.5z"/>
		<path id="Layer" class="s1" d="m331.5-3.1q1.6 0.5 3.2 0.7 1.6 0.3 3.3 0.4 1.6 0 3.2 0 1.7-0.1 3.3-0.3-0.2 0.1-0.4 0.1-0.3 0.1-0.5 0.2-0.2 0-0.5 0.1-0.2 0-0.5 0.1-1.1 0.1-2.3 0.2-1.2 0.1-2.4 0-1.1-0.1-2.3-0.3-1.2-0.1-2.3-0.5-0.2 0-0.5-0.1-0.2-0.1-0.4-0.1-0.3-0.1-0.5-0.2-0.2-0.1-0.4-0.3z"/>
		<path id="Layer" class="s0" d="m562.9 4.3c0.4 2.9 0.1 5.9-0.9 8.7-1.1 2.8-2.8 5.3-5 7.3-2.3 2-5 3.3-7.9 4-2.9 0.7-5.9 0.6-8.8-0.2 2.2-12.2 12-17.3 22.6-19.8z"/>
		<path id="Layer" class="s1" d="m535.2 26.3c0-0.1 1.2-0.5 3-1.3q1.8-0.8 3.5-1.7 1.7-0.9 3.3-2 1.6-1 3.1-2.2 1.5-1.2 2.9-2.5c1.5-1.4 2.3-2.3 2.4-2.3q-0.1 0.1-0.2 0.2 0 0.1-0.1 0.2 0 0.1-0.1 0.2-0.1 0.1-0.2 0.1c-0.3 0.5-0.8 1.1-1.6 1.8q-1.3 1.3-2.8 2.6-1.5 1.2-3.2 2.3-1.6 1.1-3.3 2-1.8 0.9-3.6 1.6c-0.9 0.3-1.7 0.6-2.2 0.7q-0.1 0.1-0.2 0.1-0.1 0.1-0.2 0.1-0.1 0-0.2 0-0.2 0.1-0.3 0.1z"/>
		<path id="Layer" class="s0" d="m578.7 236.2c3.1 4.2 5.1 9.1 5.8 14.2 0.7 5.2 0.2 10.4-1.6 15.3-1.8 4.8-4.8 9.2-8.7 12.6-3.9 3.4-8.6 5.9-13.6 7-6.8-20.4 4.1-36.3 18.1-49.1z"/>
		<path id="Layer" class="s1" d="m554.5 292.9q0.1-0.2 0.2-0.3 0.2-0.2 0.3-0.3 0.1-0.2 0.2-0.3 0.1-0.2 0.3-0.3c0.6-0.7 1.5-1.8 2.6-3.1 1.1-1.4 2.3-3 3.6-4.9 1.2-1.9 2.5-4.1 3.8-6.4 1.3-2.3 2.3-4.6 3.2-6.7 0.8-2.1 1.5-4 2.1-5.7 0.5-1.6 0.9-2.9 1.1-3.9q0.1-0.2 0.1-0.3 0.1-0.2 0.1-0.4 0.1-0.2 0.1-0.4 0.1-0.1 0.2-0.3-0.1 0.2-0.1 0.4 0 0.2 0 0.3-0.1 0.2-0.1 0.4-0.1 0.2-0.1 0.4c-0.2 0.9-0.6 2.3-1 3.9-0.5 1.7-1.2 3.7-2.1 5.8-0.8 2.1-1.9 4.4-3.1 6.7q-0.5 0.9-0.9 1.7-0.5 0.8-1 1.6-0.5 0.8-1 1.6-0.5 0.7-1 1.5c-1.3 1.9-2.6 3.5-3.7 4.9-1.1 1.3-2 2.3-2.7 3q-0.1 0.2-0.3 0.3-0.1 0.1-0.2 0.3-0.2 0.1-0.3 0.2-0.1 0.2-0.3 0.3z"/>
	</g>
	<g id="freepik--Shape--inject-4">
		<path id="Layer" class="s2" d="m413.3 259.7c-23 20.2-54.5 29.3-85.1 28.6-30.7-0.7-82-7.7-108.2-23.7-30.9-18.6-42-29.4-58.9-55.5-16.8-25.7-24.3-59.3-22.9-88.1l0.3-8.5c6.7-27.8 21.4-55 45.7-70 24.4-15.1 59.2-14.8 79.2 5.7 14.5 14.9 19.1 37.1 32.8 52.7q3.5 3.9 7.6 7.2 4.2 3.2 8.8 5.7 4.7 2.4 9.7 4 5.1 1.6 10.3 2.3c16.6 2 33.3-3.3 49.9-1.9 30.6 2.5 56.5 28.8 61.9 59.1 5.4 30.2-8 62.1-31.1 82.4z"/>
		<g id="Layer" style="opacity: .8">
			<path id="Layer" class="s3" d="m413.3 259.7c-23 20.2-54.5 29.3-85.1 28.6-30.7-0.7-82-7.7-108.2-23.7-30.9-18.6-42-29.4-58.9-55.5-16.8-25.7-24.3-59.3-22.9-88.1l0.3-8.5c6.7-27.8 21.4-55 45.7-70 24.4-15.1 59.2-14.8 79.2 5.7 14.5 14.9 19.1 37.1 32.8 52.7q3.5 3.9 7.6 7.2 4.2 3.2 8.8 5.7 4.7 2.4 9.7 4 5.1 1.6 10.3 2.3c16.6 2 33.3-3.3 49.9-1.9 30.6 2.5 56.5 28.8 61.9 59.1 5.4 30.2-8 62.1-31.1 82.4z"/>
		</g>
		<path id="Layer" class="s2" d="m474.4 285.1c-1.2 8.1-8.6 13.7-16.7 12.5-8.1-1.1-13.7-8.6-12.5-16.7 1.2-8.1 8.6-13.7 16.7-12.5 8.1 1.1 13.7 8.6 12.5 16.7z"/>
		<path id="Layer" class="s4" d="m474.4 285.1c-1.2 8.1-8.6 13.7-16.7 12.5-8.1-1.1-13.7-8.6-12.5-16.7 1.2-8.1 8.6-13.7 16.7-12.5 8.1 1.1 13.7 8.6 12.5 16.7z"/>
	</g>
	<g id="freepik--error-404--inject-4">
		<path id="Layer" fill-rule="evenodd" class="s2" d="m356.2 169.2q0.4 44.3-19.3 67.7-19.7 23.5-53.9 23.8-34.4 0.3-54.7-22.7-20.3-23.1-20.8-67.3l-0.4-51.9q-0.5-44.1 19.2-67.7 19.8-23.6 54.1-23.9 34.3-0.3 54.6 22.8 20.3 23.2 20.7 67.3zm-38.4-57.3q-0.2-27.9-9.7-41.2-9.4-13.3-27.3-13.1-17.9 0.1-27.1 13.6-9.1 13.5-8.9 41.4l0.6 63q0.3 28.1 9.8 41.4 9.6 13.4 27.5 13.2 17.9-0.1 26.9-13.6 9.1-13.5 8.8-41.7z"/>
		<g id="Layer" style="opacity: .4">
			<path id="Layer" fill-rule="evenodd" class="s5" d="m356.2 169.2q0.4 44.3-19.3 67.7-19.7 23.5-53.9 23.8-34.4 0.3-54.7-22.7-20.3-23.1-20.8-67.3l-0.4-51.9q-0.5-44.1 19.2-67.7 19.8-23.6 54.1-23.9 34.3-0.3 54.6 22.8 20.3 23.2 20.7 67.3zm-38.4-57.3q-0.2-27.9-9.7-41.2-9.4-13.3-27.3-13.1-17.9 0.1-27.1 13.6-9.1 13.5-8.9 41.4l0.6 63q0.3 28.1 9.8 41.4 9.6 13.4 27.5 13.2 17.9-0.1 26.9-13.6 9.1-13.5 8.8-41.7z"/>
		</g>
		<path id="Layer" fill-rule="evenodd" class="s2" d="m378 169q0.4 44.3-19.3 67.7-19.7 23.5-53.9 23.8-34.5 0.3-54.7-22.7-20.3-23.1-20.7-67.4l-0.5-51.9q-0.4-44.1 19.3-67.7 19.7-23.6 54.1-23.9 34.2-0.3 54.5 22.9 20.3 23.2 20.6 67.3zm-38.3-57.3q-0.3-27.9-9.8-41.2-9.4-13.2-27.3-13.1-18 0.2-27.1 13.6-9.1 13.5-8.9 41.4l0.6 63.1q0.3 28 9.9 41.4 9.5 13.4 27.4 13.2 17.9-0.2 27-13.7 9-13.4 8.7-41.6z"/>
		<path id="Layer" class="s2" d="m229 121.6c0 0.1-5 2.1-11.3 4.5-6.3 2.4-11.4 4.2-11.4 4.1 0-0.1 5-2.1 11.3-4.5 6.2-2.4 11.3-4.2 11.4-4.1z"/>
		<path id="Layer" class="s2" d="m230.2 142.1c0.1 0.1-5 2.2-11.3 4.5-6.3 2.4-11.4 4.2-11.4 4.1-0.1-0.1 5-2.1 11.3-4.5 6.2-2.4 11.4-4.2 11.4-4.1z"/>
		<path id="Layer" class="s2" d="m231.5 162.6c0 0.2-5 2.2-11.3 4.5-6.3 2.4-11.4 4.2-11.5 4.1-0.1-0.1 5-2.1 11.3-4.5 6.3-2.4 11.5-4.2 11.5-4.1z"/>
		<path id="Layer" class="s2" d="m232.8 183.1c0 0.2-5 2.2-11.3 4.5-6.3 2.4-11.4 4.2-11.5 4.1 0-0.1 5-2.1 11.3-4.5 6.3-2.3 11.4-4.2 11.5-4.1z"/>
		<path id="Layer" class="s2" d="m234 203.7q-0.1 0-0.2 0.1-0.1 0-0.2 0.1-0.1 0-0.2 0.1-0.1 0-0.2 0c-0.5 0.3-1.2 0.6-2.2 0.9-1.8 0.8-4.4 1.8-7.3 2.9-2.8 1.1-5.4 2-7.3 2.7-1 0.3-1.7 0.6-2.3 0.7q-0.1 0.1-0.2 0.1-0.1 0-0.2 0.1-0.1 0-0.2 0-0.1 0-0.2 0 0.1 0 0.2-0.1 0.1 0 0.2-0.1 0.1 0 0.2-0.1 0.1 0 0.2 0c0.5-0.3 1.2-0.6 2.2-0.9 1.8-0.7 4.4-1.7 7.3-2.8 2.8-1.1 5.4-2 7.3-2.7 0.9-0.3 1.7-0.6 2.2-0.8q0.2 0 0.3-0.1 0.1 0 0.2 0 0.1-0.1 0.2-0.1 0.1 0 0.2 0z"/>
		<path id="Layer" class="s2" d="m239.8 222.4q-0.3 0.2-0.6 0.3-0.3 0.2-0.6 0.3-0.3 0.2-0.7 0.3-0.3 0.1-0.6 0.3c-1.6 0.6-3.9 1.5-6.4 2.4-2.5 1-4.8 1.8-6.4 2.4q-0.3 0.1-0.7 0.2-0.3 0.1-0.6 0.2-0.4 0.2-0.7 0.2-0.4 0.1-0.7 0.2 0.3-0.1 0.6-0.3 0.3-0.2 0.7-0.3 0.3-0.1 0.6-0.3 0.3-0.1 0.7-0.2c1.6-0.7 3.8-1.6 6.3-2.5 2.5-0.9 4.8-1.8 6.4-2.3q0.4-0.2 0.7-0.3 0.3-0.1 0.7-0.2 0.3-0.1 0.7-0.2 0.3-0.1 0.6-0.2z"/>
		<path id="Layer" class="s2" d="m252.4 239.6q-0.3 0.2-0.6 0.3-0.3 0.2-0.6 0.3-0.2 0.1-0.5 0.2-0.3 0.2-0.6 0.3c-1.5 0.5-3.5 1.3-5.7 2.2-2.2 0.8-4.3 1.5-5.7 2q-0.3 0.2-0.6 0.3-0.3 0.1-0.6 0.2-0.3 0.1-0.6 0.1-0.3 0.1-0.6 0.2 0.2-0.2 0.5-0.3 0.3-0.2 0.6-0.3 0.3-0.1 0.6-0.2 0.3-0.1 0.6-0.3c1.4-0.5 3.4-1.3 5.6-2.2 2.3-0.8 4.3-1.5 5.8-2q0.2-0.2 0.5-0.3 0.3-0.1 0.6-0.2 0.3 0 0.7-0.1 0.3-0.1 0.6-0.2z"/>
		<path id="Layer" class="s2" d="m273.2 250.9q-0.3 0.2-0.6 0.3-0.3 0.1-0.6 0.3-0.2 0.1-0.5 0.2-0.3 0.1-0.6 0.2c-1.5 0.6-3.5 1.4-5.7 2.2-2.2 0.9-4.3 1.6-5.7 2.1q-0.3 0.1-0.6 0.3-0.3 0.1-0.6 0.2-0.3 0-0.6 0.1-0.3 0.1-0.6 0.2 0.3-0.2 0.5-0.3 0.3-0.2 0.6-0.3 0.3-0.1 0.6-0.2 0.3-0.2 0.6-0.3c1.4-0.6 3.4-1.3 5.6-2.2 2.3-0.8 4.3-1.5 5.8-2q0.3-0.2 0.5-0.3 0.3-0.1 0.6-0.2 0.3-0.1 0.7-0.1 0.3-0.1 0.6-0.2z"/>
		<path id="Layer" class="s2" d="m335.9 207.2c0.1 0.1-6.4 3.1-14.5 6.7-8 3.7-14.6 6.5-14.7 6.4 0-0.1 6.5-3.1 14.6-6.8 8.1-3.6 14.6-6.5 14.6-6.3z"/>
		<path id="Layer" class="s2" d="m340.2 189.6c0.1 0.1-5.3 2.6-12 5.6-6.7 3-12.1 5.4-12.1 5.3-0.1-0.2 5.3-2.7 11.9-5.7 6.7-3 12.1-5.3 12.2-5.2z"/>
		<path id="Layer" class="s2" d="m342.2 169.9c0 0.1-5.4 2.6-12 5.6-6.7 3-12.1 5.3-12.2 5.2 0-0.1 5.3-2.6 12-5.6 6.7-3 12.1-5.4 12.2-5.2z"/>
		<path id="Layer" class="s2" d="m344.1 150.1c0.1 0.1-5.3 2.6-12 5.6-6.6 3-12.1 5.4-12.1 5.3-0.1-0.1 5.3-2.7 12-5.7 6.6-3 12.1-5.3 12.1-5.2z"/>
		<path id="Layer" class="s2" d="m346.1 130.4c0 0.1-5.3 2.6-12 5.6-6.7 3-12.1 5.3-12.1 5.2-0.1-0.1 5.3-2.6 11.9-5.6 6.7-3 12.1-5.3 12.2-5.2z"/>
		<path id="Layer" class="s2" d="m342.2 112.8c0 0.1-5.3 2.6-12 5.6-6.7 3-12.1 5.4-12.2 5.3 0-0.2 5.3-2.7 12-5.7 6.7-3 12.1-5.3 12.2-5.2z"/>
		<path id="Layer" class="s2" d="m342.2 93.9c0 0.1-5.3 2.6-12 5.6-6.7 3-12.1 5.3-12.2 5.2 0-0.1 5.3-2.6 12-5.6 6.7-3 12.1-5.3 12.2-5.2z"/>
		<path id="Layer" class="s2" d="m340.2 76.1c0.1 0.1-5.3 2.6-12 5.6-6.6 3-12.1 5.3-12.1 5.2-0.1-0.1 5.3-2.6 12-5.6 6.6-3 12.1-5.4 12.1-5.2z"/>
		<path id="Layer" class="s2" d="m323.3 63.6q-0.9 0.5-1.8 1-0.9 0.4-1.8 0.9-0.9 0.4-1.8 0.8-0.9 0.5-1.8 0.8-0.9 0.5-1.9 0.9-0.9 0.4-1.8 0.8-0.9 0.4-1.9 0.8-0.9 0.3-1.9 0.6 0.9-0.4 1.8-0.9 0.9-0.5 1.8-0.9 0.9-0.5 1.8-0.9 0.9-0.4 1.9-0.8 0.9-0.4 1.8-0.8 0.9-0.4 1.9-0.8 0.9-0.4 1.8-0.8 1-0.3 1.9-0.7z"/>
		<path id="Layer" class="s2" d="m314.3 56q-0.9 0.5-1.8 1-0.9 0.4-1.8 0.9-0.9 0.4-1.8 0.8-0.9 0.4-1.9 0.8-0.9 0.5-1.8 0.9-0.9 0.4-1.9 0.8-0.9 0.4-1.8 0.7-1 0.4-1.9 0.7 0.9-0.5 1.8-0.9 0.9-0.5 1.8-0.9 0.9-0.5 1.8-0.9 0.9-0.4 1.8-0.8 1-0.4 1.9-0.8 0.9-0.4 1.8-0.8 0.9-0.4 1.9-0.8 0.9-0.3 1.9-0.7z"/>
		<path id="Layer" class="s2" d="m230 96.8c0 0.1-5.1 2.1-11.3 4.5-6.3 2.3-11.5 4.1-11.5 4 0-0.1 5-2.1 11.3-4.5 6.3-2.3 11.4-4.1 11.5-4z"/>
		<path id="Layer" class="s2" d="m236.2 71.2c0.1 0.1-5.4 2.3-12.2 4.8-6.8 2.6-12.4 4.6-12.4 4.5-0.1-0.1 5.4-2.3 12.2-4.9 6.8-2.5 12.4-4.5 12.4-4.4z"/>
		<path id="Layer" class="s2" d="m252.7 45.9c0.1 0.1-6.9 2.8-15.5 6.1-8.7 3.2-15.7 5.7-15.7 5.6-0.1-0.1 6.9-2.8 15.5-6.1 8.7-3.2 15.7-5.7 15.7-5.6z"/>
		<path id="Layer" class="s3" d="m374.3 207.4l-0.4-0.1-1-0.4c-0.5-0.2-1.1-0.3-1.7-0.5q-0.3-0.1-0.6-0.1-0.3 0-0.6-0.1-0.3 0-0.6 0-0.3-0.1-0.6-0.1c-3.7-0.2-9.2 1.1-14.5 5.1q-1.1 0.8-2.1 1.7-1 0.9-2 1.8-0.9 1-1.8 2-0.9 1-1.7 2c-2.5 3.1-4.9 6.5-7.6 9.9q-1.1 1.4-2.2 2.7-1.1 1.2-2.4 2.5-1.2 1.2-2.5 2.3-1.4 1.1-2.8 2.1-1.5 1-3.2 1.9-1.6 0.8-3.3 1.5-1.7 0.7-3.5 1.3-1.8 0.5-3.6 0.8-1.9 0.3-3.7 0.5-1.9 0.1-3.7 0-1.9 0-3.7-0.3-1.8-0.3-3.6-0.7-1.7-0.4-3.3-1-1.7-0.5-3.3-1.1-1.6-0.6-3.2-1.3-1.6-0.6-3.1-1.4c-4-1.8-7.7-3.7-11.3-5.3q-1.2-0.5-2.5-1-1.2-0.5-2.5-0.9-1.3-0.5-2.6-0.8-1.3-0.4-2.6-0.7-1.1-0.3-2.2-0.5-1.1-0.2-2.2-0.3-1.1-0.1-2.2-0.2-1.1 0-2.2 0-0.8 0-1.7 0-0.8 0.1-1.7 0.2-0.8 0.1-1.6 0.3-0.8 0.1-1.6 0.4-0.6 0.1-1.1 0.3-0.5 0.2-1 0.4-0.5 0.1-0.9 0.4-0.5 0.2-1 0.4l-1 0.5q0 0.1-0.1 0.1 0 0 0 0-0.1 0-0.1 0.1-0.1 0-0.1 0l0.3-0.2 1-0.6q0.4-0.2 0.9-0.4 0.5-0.3 1-0.5 0.5-0.2 1-0.4 0.5-0.1 1-0.3 0.8-0.2 1.7-0.4 0.8-0.2 1.6-0.3 0.8-0.1 1.7-0.2 0.8-0.1 1.7-0.1 1.1 0 2.2 0.1 1.1 0 2.3 0.1 1.1 0.2 2.2 0.3 1.1 0.2 2.2 0.5 1.3 0.3 2.6 0.7 1.3 0.3 2.6 0.8 1.3 0.4 2.5 0.9 1.3 0.5 2.5 1c3.6 1.5 7.3 3.4 11.3 5.2q1.6 0.8 3.1 1.5 1.6 0.6 3.2 1.2 1.6 0.6 3.3 1.1 1.6 0.6 3.3 1 1.7 0.4 3.6 0.7 1.8 0.2 3.6 0.3 1.8 0.1 3.7-0.1 1.8-0.1 3.6-0.4 1.8-0.4 3.6-0.9 1.7-0.5 3.4-1.2 1.7-0.6 3.3-1.5 1.7-0.9 3.2-1.9 1.4-1 2.7-2.1 1.3-1.1 2.5-2.3 1.3-1.1 2.4-2.4 1.2-1.3 2.2-2.7c2.7-3.4 5.1-6.8 7.6-9.8q0.8-1 1.7-2.1 0.9-1 1.9-1.9 1-1 2-1.9 1-0.9 2.1-1.7c5.4-3.9 10.9-5.2 14.6-5q0.4 0.1 0.7 0.1 0.3 0 0.6 0.1 0.3 0 0.6 0.1 0.3 0 0.6 0.1c0.7 0.2 1.3 0.3 1.7 0.5l1 0.5z"/>
		<path id="Layer" class="s3" d="m379.7 150.3c0 0-0.6 0.1-1.7 0.4q-0.5 0.2-1.1 0.5-0.5 0.2-1 0.5-0.6 0.3-1 0.6-0.5 0.3-1 0.6c-1.6 1.2-3.4 2.8-5.5 4.4q-0.9 0.7-1.7 1.3-0.9 0.6-1.9 1.2-0.9 0.6-1.8 1.1-1 0.5-2 1-1.7 0.8-3.6 1.5-1.8 0.7-3.7 1.1-1.9 0.5-3.9 0.8-1.9 0.3-3.9 0.5c-1 0-1.9 0-2.7 0-0.8 0.1-1.5 0-2-0.1l-1.3-0.1q-0.1 0-0.1 0-0.1 0-0.1 0-0.1 0-0.2 0 0 0-0.1-0.1 0.1 0 0.2 0 0 0 0.1 0 0 0 0.1 0 0 0 0.1 0l1.3 0.1h2c0.8-0.1 1.7 0 2.7-0.2q1.9-0.1 3.9-0.4 1.9-0.4 3.8-0.9 1.8-0.5 3.7-1.1 1.8-0.7 3.5-1.6 1-0.4 2-0.9 0.9-0.5 1.8-1.1 0.9-0.5 1.8-1.2 0.9-0.6 1.7-1.2c2.1-1.6 3.9-3.2 5.6-4.3q0.5-0.3 1-0.6 0.5-0.4 1.1-0.6 0.5-0.3 1.1-0.5 0.5-0.2 1.1-0.4 0.1-0.1 0.3-0.1 0.2 0 0.3-0.1 0.2 0 0.3 0 0.2-0.1 0.4-0.1 0 0 0.1 0 0 0 0.1 0 0 0 0.1 0 0 0 0.1 0z"/>
		<path id="Layer" class="s3" d="m267.9 170.1q-0.1 0-0.1 0-0.1 0-0.2 0 0 0-0.1 0 0-0.1-0.1-0.1c-0.3 0-0.7-0.1-1.3-0.3q-0.6-0.2-1.2-0.4-0.6-0.2-1.2-0.4-0.5-0.3-1.1-0.6-0.6-0.3-1.1-0.6-0.8-0.5-1.6-1-0.7-0.5-1.5-1.1-0.7-0.5-1.5-1.1-0.7-0.6-1.4-1.2c-2.1-1.8-4.4-3.8-7.1-5.6q-0.9-0.7-1.9-1.2-0.9-0.6-2-1-1-0.5-2-0.9-1.1-0.4-2.2-0.6-1.5-0.4-3-0.6-1.5-0.2-3.1-0.2-1.5 0.1-3.1 0.2-1.5 0.2-3 0.6c-1.1 0.3-1.7 0.5-1.7 0.5q0 0 0.1-0.1 0 0 0.1 0 0 0 0.1-0.1 0 0 0.1 0c0.3-0.1 0.7-0.3 1.3-0.5q0.6-0.1 1.2-0.3 0.6-0.1 1.2-0.2 0.6-0.1 1.3-0.2 0.6-0.1 1.2-0.1 0.9-0.1 1.9-0.1 0.9 0 1.8 0.1 1 0.1 1.9 0.2 0.9 0.2 1.8 0.4 1.1 0.3 2.2 0.6 1.1 0.4 2.1 0.9 1.1 0.5 2.1 1 0.9 0.6 1.9 1.3c2.6 1.8 4.9 3.9 7.1 5.6q0.7 0.7 1.4 1.2 0.7 0.6 1.4 1.2 0.8 0.5 1.5 1.1 0.8 0.5 1.6 1 0.5 0.3 1 0.6 0.6 0.3 1.1 0.6 0.6 0.2 1.2 0.5 0.5 0.2 1.1 0.4 0.2 0 0.5 0.1 0.2 0.1 0.4 0.1 0.2 0.1 0.5 0.1 0.2 0.1 0.4 0.2z"/>
		<path id="Layer" class="s3" d="m268 89.1q-0.1 0.1-0.3 0.1-0.2 0.1-0.4 0.2-0.1 0-0.3 0.1-0.2 0.1-0.4 0.1-0.2 0.1-0.4 0.1-0.2 0.1-0.4 0.2-0.3 0-0.5 0.1-0.2 0.1-0.4 0.1c-0.7 0.2-1.4 0.4-2.3 0.6-0.9 0.1-1.8 0.3-2.8 0.5q-1.6 0.2-3.3 0.3-0.9 0.1-1.9 0.1-0.9 0-1.9 0-0.9 0-1.9-0.1-0.9 0-1.8-0.1-1-0.1-1.9-0.2-0.9-0.1-1.9-0.3-0.9-0.2-1.8-0.4-0.9-0.2-1.9-0.4c-1.1-0.3-2.1-0.6-3.1-1q-1.5-0.5-2.7-1c-0.8-0.3-1.5-0.7-2.1-0.9q-1-0.5-1.6-0.9-0.2 0-0.4-0.1-0.1-0.1-0.3-0.2-0.1-0.1-0.3-0.2-0.2-0.1-0.3-0.2 0.2 0 0.3 0.1 0.2 0.1 0.4 0.2 0.1 0 0.3 0.1 0.2 0.1 0.4 0.2 0.6 0.3 1.6 0.7c0.6 0.3 1.3 0.6 2.1 0.9 0.9 0.3 1.7 0.7 2.7 1q1.5 0.4 3.1 0.9 1.9 0.5 3.7 0.8 1.8 0.3 3.7 0.5 1.9 0.2 3.7 0.2 1.9 0 3.8-0.1c1.1-0.1 2.2-0.2 3.2-0.3q1.6-0.2 2.8-0.4c0.9-0.2 1.6-0.4 2.3-0.5q1-0.3 1.7-0.5 0.2 0 0.4-0.1 0.2 0 0.4-0.1 0.2 0 0.4-0.1 0.1 0 0.3 0z"/>
		<path id="Layer" class="s3" d="m374.8 88.9q0 0-0.1-0.1 0 0-0.1 0 0 0 0 0-0.1-0.1-0.1-0.1l-1-0.6q-0.2-0.1-0.4-0.2-0.2-0.1-0.4-0.2-0.2-0.1-0.4-0.2-0.2-0.1-0.4-0.2-0.3-0.2-0.5-0.3-0.3-0.1-0.6-0.3-0.3-0.1-0.5-0.2-0.3-0.1-0.6-0.3l-1.3-0.5c-0.4-0.2-0.9-0.3-1.4-0.5-1-0.3-2.1-0.6-3.2-0.9q-1.9-0.4-3.8-0.6-1.8-0.3-3.8-0.3-1.9 0-3.8 0.2-1.9 0.2-3.7 0.6-0.4 0.1-0.8 0.2-0.4 0.1-0.8 0.2-0.5 0.1-0.8 0.2-0.4 0.1-0.8 0.2c-0.5 0.2-1 0.3-1.5 0.5l-1.3 0.5q-0.3 0.1-0.5 0.2-0.3 0.2-0.6 0.3-0.3 0.1-0.5 0.2-0.3 0.2-0.6 0.3-0.2 0.1-0.4 0.2-0.2 0.1-0.4 0.2-0.2 0.1-0.4 0.2-0.2 0.1-0.4 0.3l-1 0.5q-0.3 0.2-0.3 0.2 0-0.1 0-0.1 0.1 0 0.1-0.1 0.1 0 0.1 0 0 0 0.1-0.1l0.9-0.6q0.2-0.1 0.4-0.2 0.2-0.2 0.4-0.3 0.2-0.1 0.4-0.2 0.2-0.1 0.4-0.2 0.3-0.2 0.6-0.3 0.2-0.1 0.5-0.3 0.3-0.1 0.5-0.2 0.3-0.1 0.6-0.3l1.3-0.5c0.5-0.2 0.9-0.3 1.4-0.5q0.4-0.1 0.8-0.3 0.4-0.1 0.9-0.2 0.4-0.1 0.8-0.2 0.4-0.1 0.8-0.2 1.9-0.4 3.8-0.6 1.9-0.2 3.8-0.2 2 0 3.9 0.3 1.9 0.2 3.8 0.6c1.1 0.4 2.2 0.6 3.2 1 0.5 0.2 1 0.3 1.5 0.5l1.2 0.6q0.3 0.1 0.6 0.2 0.3 0.2 0.5 0.3 0.3 0.1 0.6 0.3 0.2 0.1 0.5 0.3 0.2 0.1 0.4 0.2 0.2 0.1 0.4 0.2 0.2 0.1 0.4 0.3 0.2 0.1 0.4 0.2l0.9 0.7c0.2 0.1 0.4 0.2 0.3 0.2z"/>
		<path id="Layer" class="s3" d="m322.5 30.7q-0.1 0-0.1 0.1-0.1 0-0.2 0.1-0.1 0-0.1 0-0.1 0.1-0.2 0.1l-1.8 1c-1.6 0.9-3.9 2.1-6.7 3.5-5.8 2.8-13.8 6.7-23.4 9.1q-1.6 0.5-3.4 0.8-1.6 0.3-3.4 0.6-1.7 0.2-3.4 0.3-1.7 0.2-3.5 0.2-1.4 0.1-2.8 0-1.4 0-2.8-0.1-1.4-0.1-2.8-0.3-1.4-0.2-2.8-0.5-0.9-0.2-1.9-0.5-0.9-0.2-1.8-0.5-0.9-0.2-1.8-0.6-0.9-0.3-1.8-0.7c-0.8-0.3-1.4-0.6-1.9-0.8q0 0-0.1-0.1-0.1 0-0.2-0.1-0.1 0-0.1 0-0.1-0.1-0.2-0.1 0.1 0 0.2 0 0.1 0 0.1 0.1 0.1 0 0.2 0 0.1 0.1 0.2 0.1c0.4 0.2 1 0.5 1.9 0.8q0.9 0.3 1.8 0.6 0.9 0.3 1.8 0.6 0.9 0.3 1.8 0.5 0.9 0.2 1.9 0.4 1.3 0.2 2.7 0.4 1.4 0.2 2.8 0.3 1.4 0.1 2.8 0.2 1.4 0 2.8-0.1 1.7 0 3.5-0.2 1.7-0.1 3.4-0.4 1.7-0.2 3.4-0.5 1.6-0.4 3.3-0.8c9.5-2.4 17.5-6.2 23.3-9l6.9-3.3 1.7-1q0.1 0 0.2 0 0.1-0.1 0.2-0.1 0 0 0.1-0.1 0.1 0 0.2 0z"/>
		<path id="Layer" fill-rule="evenodd" class="s2" d="m150.7 180l28.6 1.2-1.4 30.4-28.6-1.3-2.2 50.5-37.6-1.7 2.2-50.4-97.2-4.3 0.1-23.1 103.6-149 38.9 1.8zm-98.5-4.3l60.8 2.6 4-92-0.9-0.4-3.4 6.6z"/>
		<g id="Layer" style="opacity: .4">
			<path id="Layer" fill-rule="evenodd" class="s5" d="m150.7 180l28.6 1.2-1.4 30.4-28.6-1.3-2.2 50.5-37.6-1.7 2.2-50.4-97.2-4.3 0.1-23.1 103.6-149 38.9 1.8zm-98.5-4.3l60.8 2.6 4-92-0.9-0.4-3.4 6.6z"/>
		</g>
		<path id="Layer" fill-rule="evenodd" class="s2" d="m174.6 181l28.6 1.3-1.3 30.3-28.6-1.2-2.3 50.4-37.6-1.6 2.2-50.5-97.2-4.3 0.1-23.1 103.6-148.9 38.9 1.7zm-98.5-4.3l60.8 2.7 4.1-92-1-0.4-3.4 6.6z"/>
		<path id="Layer" class="s2" d="m39 186.7q-0.1 0.1-0.2 0.2-0.1 0-0.3 0.1-0.1 0.1-0.2 0.1-0.1 0.1-0.2 0.2c-0.6 0.3-1.5 0.7-2.6 1.2-2.2 1-5.3 2.4-8.7 3.9-3.4 1.4-6.6 2.7-8.8 3.5-1.2 0.5-2.1 0.8-2.8 1q-0.1 0.1-0.2 0.1-0.1 0.1-0.3 0.1-0.1 0-0.2 0.1-0.1 0-0.3 0 0.1-0.1 0.3-0.1 0.1-0.1 0.2-0.1 0.1-0.1 0.2-0.2 0.2 0 0.3 0l2.6-1.2 8.8-3.7 8.7-3.7 2.7-1.1q0.1-0.1 0.2-0.1 0.2-0.1 0.3-0.1 0.1-0.1 0.2-0.1 0.2 0 0.3-0.1z"/>
		<path id="Layer" class="s2" d="m52.9 161.1q-0.1 0.1-0.3 0.2-0.1 0.1-0.3 0.1-0.2 0.1-0.3 0.2-0.2 0.1-0.4 0.2-1.3 0.6-3.6 1.7c-3 1.4-7.2 3.2-11.9 5.2-4.7 2-9.1 3.7-12.2 4.9-1.5 0.7-2.8 1.1-3.7 1.5q-0.1 0-0.3 0.1-0.2 0.1-0.4 0.1-0.1 0.1-0.3 0.1-0.2 0.1-0.4 0.1 0.2-0.1 0.4-0.2 0.1 0 0.3-0.1 0.2-0.1 0.3-0.2 0.2 0 0.4-0.1l3.6-1.6 12.1-5 12.1-5.2 3.6-1.5q0.2-0.1 0.3-0.2 0.2 0 0.4-0.1 0.1-0.1 0.3-0.1 0.2-0.1 0.3-0.1z"/>
		<path id="Layer" class="s2" d="m69.9 138.2q-0.1 0.1-0.3 0.2-0.1 0.1-0.3 0.2-0.2 0-0.4 0.1-0.1 0.1-0.3 0.2c-0.9 0.4-2.2 1-3.8 1.7-3.2 1.4-7.6 3.2-12.5 5.2-4.9 2-9.4 3.8-12.7 5-1.6 0.6-2.9 1.1-3.8 1.4q-0.2 0.1-0.4 0.1-0.2 0.1-0.3 0.2-0.2 0-0.4 0.1-0.2 0-0.4 0 0.2 0 0.4-0.1 0.1-0.1 0.3-0.2 0.2-0.1 0.4-0.1 0.1-0.1 0.3-0.2l3.8-1.5 12.6-5.1 12.6-5.1 3.8-1.6q0.2-0.1 0.4-0.1 0.1-0.1 0.3-0.2 0.2 0 0.4-0.1 0.2-0.1 0.3-0.1z"/>
		<path id="Layer" class="s2" d="m138.1 164.6q-0.1 0.1-0.3 0.2-0.1 0-0.2 0.1-0.1 0.1-0.2 0.1-0.1 0.1-0.3 0.1c-0.6 0.3-1.5 0.7-2.6 1.2-2.2 1-5.3 2.4-8.7 3.8-3.4 1.4-6.6 2.5-8.9 3.4-1.1 0.4-2 0.7-2.7 0.9q-0.1 0.1-0.2 0.1-0.1 0.1-0.3 0.1-0.1 0-0.2 0.1-0.2 0-0.3 0 0.1 0 0.2-0.1 0.2-0.1 0.3-0.1 0.1-0.1 0.2-0.1 0.1-0.1 0.3-0.1l2.6-1.1 8.8-3.5 8.8-3.6 2.7-1.1q0.1-0.1 0.2-0.1 0.1-0.1 0.2-0.1 0.2-0.1 0.3-0.1 0.1 0 0.3-0.1z"/>
		<path id="Layer" class="s2" d="m135.3 211.7q-0.1 0.1-0.2 0.2-0.1 0-0.3 0.1-0.1 0-0.2 0.1-0.1 0.1-0.2 0.1c-0.6 0.3-1.5 0.7-2.5 1.2-2.2 1-5.2 2.4-8.5 3.7-3.3 1.4-6.4 2.6-8.6 3.5-1.1 0.4-2 0.7-2.6 0.9q-0.1 0.1-0.2 0.1-0.2 0-0.3 0.1-0.1 0-0.2 0-0.2 0.1-0.3 0.1 0.1-0.1 0.2-0.1 0.2-0.1 0.3-0.2 0.1 0 0.2-0.1 0.1 0 0.2-0.1l2.6-1 8.6-3.6 8.5-3.6 2.5-1q0.1-0.1 0.3-0.1 0.1-0.1 0.2-0.1 0.1-0.1 0.2-0.1 0.2-0.1 0.3-0.1z"/>
		<path id="Layer" class="s2" d="m134.9 228.2q-0.1 0.1-0.2 0.2-0.1 0-0.2 0.1-0.1 0-0.2 0.1-0.2 0.1-0.3 0.1-0.9 0.5-2.5 1.2c-2.2 1-5.2 2.3-8.5 3.7-3.3 1.4-6.4 2.6-8.6 3.5-1.1 0.4-2 0.7-2.6 0.9q-0.1 0.1-0.2 0.1-0.2 0.1-0.3 0.1-0.1 0-0.2 0.1-0.1 0-0.3 0 0.1-0.1 0.2-0.1 0.2-0.1 0.3-0.1 0.1-0.1 0.2-0.1 0.1-0.1 0.2-0.1l2.6-1.1 8.6-3.5 8.5-3.6 2.5-1.1q0.2-0.1 0.3-0.1 0.1-0.1 0.2-0.1 0.1-0.1 0.2-0.1 0.2-0.1 0.3-0.1z"/>
		<path id="Layer" class="s2" d="m134.5 244.7q-0.1 0.1-0.2 0.2-0.1 0-0.2 0.1-0.1 0.1-0.2 0.1-0.2 0.1-0.3 0.1-0.9 0.5-2.5 1.2c-2.2 1-5.2 2.4-8.5 3.7-3.3 1.4-6.4 2.6-8.6 3.5-1.1 0.4-2 0.7-2.6 0.9q-0.1 0.1-0.2 0.1-0.1 0-0.3 0.1-0.1 0-0.2 0.1-0.1 0-0.3 0 0.1-0.1 0.3-0.1 0.1-0.1 0.2-0.2 0.1 0 0.2-0.1 0.1 0 0.3-0.1l2.5-1 8.6-3.6 8.5-3.5 2.5-1.1q0.2-0.1 0.3-0.1 0.1-0.1 0.2-0.1 0.1-0.1 0.2-0.1 0.2-0.1 0.3-0.1z"/>
		<path id="Layer" class="s2" d="m138.5 147.2q-0.1 0.1-0.2 0.1-0.1 0.1-0.2 0.2-0.2 0-0.3 0.1-0.1 0-0.2 0.1c-0.6 0.3-1.5 0.7-2.6 1.2-2.2 1-5.3 2.3-8.7 3.7-3.4 1.4-6.6 2.6-8.9 3.5-1.1 0.4-2 0.7-2.7 0.9q-0.1 0-0.2 0.1-0.2 0-0.3 0.1-0.1 0-0.2 0-0.2 0.1-0.3 0.1 0.1-0.1 0.2-0.1 0.1-0.1 0.3-0.2 0.1 0 0.2-0.1 0.1 0 0.3-0.1l2.6-1 8.8-3.6 8.8-3.6 2.7-1q0.1-0.1 0.2-0.2 0.1 0 0.2 0 0.1-0.1 0.3-0.1 0.1-0.1 0.2-0.1z"/>
		<path id="Layer" class="s2" d="m139 129.8q-0.2 0-0.3 0.1-0.1 0.1-0.2 0.1-0.1 0.1-0.2 0.2-0.1 0-0.3 0.1c-0.6 0.3-1.5 0.7-2.6 1.2-2.2 1-5.3 2.3-8.7 3.7-3.4 1.4-6.6 2.6-8.9 3.4q-1.7 0.6-2.7 1-0.1 0-0.2 0.1-0.1 0-0.3 0-0.1 0.1-0.2 0.1-0.2 0-0.3 0.1 0.1-0.1 0.2-0.2 0.2-0.1 0.3-0.1 0.1-0.1 0.2-0.1 0.1-0.1 0.3-0.1l2.6-1.1 8.8-3.5 8.8-3.6 2.7-1.1q0.1 0 0.2-0.1 0.1 0 0.2-0.1 0.2 0 0.3-0.1 0.1 0 0.3 0z"/>
		<path id="Layer" class="s2" d="m139.4 112.3q-0.1 0.1-0.2 0.2-0.1 0-0.2 0.1-0.1 0-0.2 0.1-0.1 0.1-0.3 0.1c-0.5 0.3-1.4 0.7-2.4 1.2-2.1 0.9-5.1 2.2-8.3 3.5-3.3 1.3-6.3 2.5-8.5 3.3-1.1 0.3-1.9 0.7-2.5 0.8q-0.2 0.1-0.3 0.1-0.1 0.1-0.2 0.1-0.1 0-0.3 0-0.1 0.1-0.2 0.1 0.1-0.1 0.2-0.1 0.1-0.1 0.2-0.2 0.1 0 0.3-0.1 0.1 0 0.2 0l2.6-1.1 8.3-3.3 8.4-3.5 2.6-1q0.1 0 0.2-0.1 0.1 0 0.2-0.1 0.1 0 0.2 0 0.1 0 0.2-0.1z"/>
		<path id="Layer" class="s2" d="m141.4 96q-0.5 0.3-1.1 0.6-0.5 0.2-1 0.4-0.6 0.3-1.1 0.5-0.6 0.2-1.1 0.4-0.5 0.2-1.1 0.4-0.5 0.2-1.1 0.4-0.6 0.2-1.1 0.3-0.6 0.2-1.1 0.3 0.5-0.3 1-0.6 0.5-0.2 1.1-0.4 0.5-0.3 1-0.5 0.6-0.2 1.1-0.4 0.6-0.2 1.1-0.4 0.6-0.2 1.1-0.4 0.6-0.1 1.1-0.3 0.6-0.1 1.2-0.3z"/>
		<path id="Layer" class="s2" d="m86.9 114.5q-0.1 0.1-0.3 0.2-0.2 0-0.3 0.1-0.2 0.1-0.4 0.2-0.1 0.1-0.3 0.1c-0.9 0.5-2.2 1-3.8 1.8-3.2 1.4-7.6 3.2-12.5 5.2-4.9 2-9.4 3.8-12.7 5-1.6 0.6-2.9 1.1-3.8 1.4q-0.2 0-0.4 0.1-0.2 0.1-0.4 0.1-0.1 0.1-0.3 0.1-0.2 0.1-0.4 0.1 0.2-0.1 0.3-0.1 0.2-0.1 0.4-0.2 0.2-0.1 0.3-0.2 0.2 0 0.4-0.1l3.8-1.5 12.6-5.1 12.6-5.2 3.8-1.5q0.2-0.1 0.3-0.2 0.2 0 0.4-0.1 0.2-0.1 0.4-0.1 0.1-0.1 0.3-0.1z"/>
		<path id="Layer" class="s2" d="m103.9 90.7q-0.2 0.1-0.3 0.2-0.2 0.1-0.4 0.2-0.1 0.1-0.3 0.2-0.2 0-0.3 0.1c-0.9 0.4-2.2 1-3.8 1.7-3.2 1.4-7.6 3.3-12.5 5.3-5 2-9.5 3.7-12.7 4.9-1.6 0.7-2.9 1.1-3.9 1.5q-0.1 0-0.3 0.1-0.2 0-0.4 0.1-0.2 0.1-0.3 0.1-0.2 0.1-0.4 0.1 0.2-0.1 0.3-0.2 0.2-0.1 0.4-0.1 0.1-0.1 0.3-0.2 0.2 0 0.4-0.1l3.8-1.6 12.6-5 12.6-5.2 3.8-1.5q0.2-0.1 0.3-0.2 0.2-0.1 0.4-0.1 0.2-0.1 0.3-0.2 0.2 0 0.4-0.1z"/>
		<path id="Layer" class="s2" d="m119.6 67q-0.2 0.1-0.3 0.2-0.2 0.1-0.4 0.2-0.1 0.1-0.3 0.1-0.2 0.1-0.4 0.2c-0.8 0.4-2.1 1-3.7 1.7-3.2 1.4-7.6 3.3-12.5 5.3-5 2-9.5 3.7-12.7 4.9-1.6 0.6-2.9 1.1-3.9 1.4q-0.1 0.1-0.3 0.2-0.2 0-0.4 0.1-0.2 0-0.3 0.1-0.2 0-0.4 0.1 0.2-0.1 0.3-0.2 0.2-0.1 0.4-0.1 0.1-0.1 0.3-0.2 0.2-0.1 0.4-0.1l3.8-1.6 12.6-5 12.6-5.2 3.8-1.5q0.1-0.1 0.3-0.2 0.2-0.1 0.4-0.1 0.1-0.1 0.3-0.2 0.2 0 0.4-0.1z"/>
		<path id="Layer" class="s2" d="m135.9 44.2q-0.1 0.1-0.3 0.2-0.2 0.1-0.3 0.2-0.2 0.1-0.4 0.1-0.1 0.1-0.3 0.2c-0.9 0.4-2.2 1-3.8 1.7-3.2 1.4-7.6 3.3-12.5 5.3-4.9 2-9.4 3.7-12.7 4.9-1.6 0.6-2.9 1.1-3.8 1.4q-0.2 0.1-0.4 0.2-0.2 0-0.4 0.1-0.1 0-0.3 0.1-0.2 0-0.4 0.1 0.2-0.1 0.3-0.2 0.2-0.1 0.4-0.2 0.2 0 0.3-0.1 0.2-0.1 0.4-0.1l3.8-1.6 12.6-5.1 12.6-5.1 3.8-1.6q0.2-0.1 0.4-0.1 0.1-0.1 0.3-0.2 0.2 0 0.4-0.1 0.2 0 0.3-0.1z"/>
		<path id="Layer" class="s3" d="m179.3 79.1q-0.1 0-0.2 0.1 0 0.1-0.1 0.2 0 0-0.1 0.1-0.1 0.1-0.1 0.1-0.2 0.2-0.4 0.4-0.2 0.2-0.4 0.4-0.2 0.2-0.4 0.4-0.2 0.2-0.4 0.3-0.7 0.7-1.5 1.3-0.8 0.6-1.7 1.1-0.8 0.6-1.7 1-0.8 0.5-1.7 0.9-1.4 0.6-2.8 1.1-1.4 0.5-2.8 0.8-1.5 0.3-2.9 0.5-1.5 0.2-3 0.2-0.9 0-1.7 0-0.9-0.1-1.8-0.2-0.8-0.1-1.7-0.2-0.9-0.2-1.7-0.4-0.9-0.2-1.8-0.5-0.9-0.3-1.8-0.6-0.8-0.3-1.7-0.7-0.9-0.4-1.7-0.8c-4.6-2.3-8.7-4.9-12.7-6.8q-1.3-0.6-2.7-1.1-1.3-0.5-2.7-0.9-1.5-0.4-2.9-0.6-1.5-0.2-2.9-0.3-1 0-2 0-0.9 0.1-1.9 0.3-1 0.2-1.9 0.5-0.9 0.2-1.8 0.6-0.3 0.2-0.5 0.3-0.3 0.1-0.5 0.2-0.2 0.2-0.5 0.3-0.2 0.2-0.4 0.3-0.1 0.1-0.2 0.1 0 0.1-0.1 0.1-0.1 0.1-0.2 0.1-0.1 0.1-0.1 0.1 0-0.1 0.1-0.1 0.1-0.1 0.1-0.1 0.1-0.1 0.2-0.1 0.1-0.1 0.1-0.2 0.3-0.1 0.5-0.3 0.2-0.1 0.4-0.3 0.3-0.1 0.5-0.2 0.2-0.2 0.5-0.3 0.9-0.4 1.8-0.8 1-0.3 1.9-0.5 1-0.2 2-0.3 1 0 2 0 1.5 0.1 2.9 0.3 1.5 0.2 2.9 0.6 1.4 0.3 2.8 0.9 1.4 0.5 2.8 1.1c4 1.9 8.1 4.5 12.7 6.7q0.8 0.4 1.6 0.8 0.9 0.4 1.8 0.7 0.8 0.3 1.7 0.6 0.9 0.3 1.8 0.5 0.8 0.2 1.7 0.4 0.8 0.1 1.7 0.2 0.8 0.1 1.7 0.2 0.8 0 1.7 0 2.4 0 4.8-0.5 2.4-0.4 4.7-1.3 2.3-0.8 4.5-2 2.1-1.3 4-2.8c0.7-0.6 1.2-1.1 1.6-1.5q0 0 0.1-0.1 0.1 0 0.1-0.1 0.1-0.1 0.2-0.1 0.1-0.1 0.2-0.1z"/>
		<path id="Layer" class="s3" d="m167.3 36.7q-0.1 0.1-0.2 0.2-0.1 0-0.3 0.1-0.1 0.1-0.3 0.2-0.1 0.1-0.2 0.1c-0.8 0.4-1.8 0.9-3.1 1.5q-0.6 0.2-1.2 0.5-0.6 0.2-1.2 0.4-0.6 0.2-1.2 0.4-0.6 0.2-1.2 0.4-1.5 0.4-3.1 0.8-1.5 0.3-3 0.6-1.6 0.2-3.1 0.4-1.6 0.1-3.1 0.2-0.7 0-1.3 0-0.6 0-1.3 0-0.6 0-1.3 0-0.6-0.1-1.3-0.1-2.1-0.2-3.4-0.4-0.1 0-0.3 0-0.1-0.1-0.3-0.1-0.2 0-0.3-0.1-0.2 0-0.3 0 0.1-0.1 0.3 0 0.2 0 0.3 0 0.2 0 0.3 0 0.2 0 0.3 0c0.8 0.1 2 0.2 3.5 0.3q2.2 0.1 5 0 0.8-0.1 1.6-0.1 0.7-0.1 1.5-0.2 0.8 0 1.5-0.1 0.8-0.1 1.6-0.3 0.7-0.1 1.5-0.2 0.7-0.2 1.5-0.4 0.7-0.1 1.5-0.3 0.7-0.2 1.5-0.4 2.7-0.8 4.8-1.6 2-0.8 3.1-1.3 0.2-0.1 0.3-0.2 0.2 0 0.3-0.1 0.2-0.1 0.3-0.1 0.2-0.1 0.3-0.1z"/>
		<path id="Layer" class="s3" d="m106.6 131.9q-0.1-0.1-0.2-0.2-0.2-0.1-0.2-0.2-0.1-0.2-0.2-0.3-0.1-0.1-0.2-0.2l-2-2.4q-0.9-1-1.7-2-0.9-0.9-1.8-1.9-0.9-0.9-1.8-1.8-1-0.9-1.9-1.8-0.5-0.5-1.1-1-0.5-0.4-1.1-0.8-0.5-0.5-1.1-0.9-0.6-0.4-1.2-0.7-0.5-0.3-1-0.6-0.5-0.2-1.1-0.5-0.5-0.2-1.1-0.3-0.5-0.2-1.1-0.3-0.5-0.1-1-0.1-0.6-0.1-1.1-0.1-0.5 0-1.1 0.1-0.5 0-1 0.1c-0.4 0.1 0.1-0.1 0.3-0.1q0.1-0.1 0.2-0.1 0.1 0 0.2 0 0.1-0.1 0.2-0.1 0.1 0 0.2 0 0.4-0.1 0.8-0.1 0.4 0 0.8 0 0.4 0 0.8 0 0.4 0 0.8 0.1 0.6 0.1 1.2 0.2 0.5 0.2 1.1 0.4 0.5 0.2 1.1 0.5 0.5 0.2 1 0.5 0.6 0.4 1.3 0.8 0.6 0.4 1.1 0.8 0.6 0.5 1.2 0.9 0.5 0.5 1 1 1 0.9 1.9 1.8 0.9 0.9 1.8 1.9 0.9 0.9 1.7 1.9 0.9 1 1.7 2c0.9 1.1 1.5 1.9 1.9 2.5q0.1 0.1 0.2 0.3 0.1 0.1 0.2 0.2 0.1 0.1 0.1 0.2 0.1 0.1 0.2 0.3z"/>
		<path id="Layer" class="s3" d="m174.8 157.8q0 0-0.3 0.2c-0.2 0.2-0.6 0.4-1 0.7q-0.5 0.3-1 0.5-0.5 0.3-1 0.5-0.5 0.3-1 0.5-0.5 0.2-1.1 0.4c-2.3 0.9-4.7 1.4-7.1 1.6-2.5 0.2-4.9 0-7.4-0.5-2.4-0.4-4.7-1.3-6.9-2.4-2.2-1.2-4.2-2.6-5.9-4.3q-0.4-0.4-0.8-0.8-0.4-0.4-0.8-0.8-0.4-0.4-0.7-0.9-0.4-0.4-0.7-0.9c-0.3-0.4-0.5-0.7-0.7-1q-0.2-0.3-0.2-0.3 0.2 0.1 0.3 0.3 0.1 0.1 0.3 0.3 0.1 0.1 0.2 0.3 0.1 0.2 0.3 0.3 0.3 0.5 0.7 0.9 0.3 0.4 0.7 0.8 0.4 0.4 0.8 0.8 0.4 0.4 0.8 0.7c1.8 1.7 3.7 3.1 5.9 4.2q3.2 1.7 6.8 2.4c2.4 0.5 4.8 0.6 7.2 0.5 2.4-0.2 4.8-0.7 7.1-1.5q0.5-0.2 1-0.4 0.6-0.2 1.1-0.4 0.5-0.2 1-0.5 0.5-0.2 0.9-0.5 0.2-0.1 0.4-0.2 0.2-0.1 0.4-0.2 0.2-0.1 0.4-0.2 0.1-0.1 0.3-0.1z"/>
		<path id="Layer" class="s3" d="m199.8 212q0 0-0.3-0.4-0.2-0.4-0.7-1.2-0.3-0.5-0.6-1.1-0.4-0.5-0.7-1.1-0.4-0.5-0.8-1.1-0.4-0.5-0.8-1l-1.2-1.4-0.6-0.7-0.7-0.7-1.5-1.6-1.8-1.4q-1.1-0.9-2.3-1.7-1.1-0.8-2.3-1.5-1.1-0.7-2.4-1.3-1.2-0.6-2.5-1.1-1.5-0.7-3.1-1.2-1.5-0.5-3.2-0.9-1.6-0.4-3.2-0.6-1.6-0.2-3.3-0.3-1.9-0.1-3.8 0-1.9 0.1-3.8 0.4-1.9 0.3-3.7 0.8-1.8 0.5-3.6 1.2c-5 1.9-9.9 4.9-15 7.8q-1 0.5-1.9 1.1-1 0.5-2 1-1 0.5-2.1 1-1 0.4-2 0.9-1.1 0.4-2.2 0.8-1.1 0.4-2.2 0.7-1.1 0.3-2.3 0.5-1.1 0.2-2.3 0.3-1.1 0.1-2.3 0.2-1.2 0-2.3-0.1-1.2 0-2.3-0.2-1.2-0.2-2.3-0.4-1.1-0.3-2.2-0.6-1.1-0.3-2.1-0.6-1.1-0.4-2.1-0.8-1.1-0.4-2.1-0.9-1.9-0.9-3.8-1.9-1.8-1.1-3.7-2.2-1.8-1.1-3.5-2.2-1.8-1.2-3.5-2.5c-4.4-3.1-8.5-6.2-12.7-8.6q-1.4-0.9-2.9-1.6-1.4-0.8-3-1.4-1.5-0.7-3.1-1.2-1.5-0.6-3.1-1-1.4-0.3-2.7-0.5-1.4-0.2-2.7-0.3-1.4-0.1-2.8-0.1-1.4 0-2.7 0.2-1 0.1-2.1 0.3-1 0.2-2 0.5-1 0.3-1.9 0.6-1 0.4-1.9 0.9-0.6 0.3-1.2 0.6-0.5 0.3-1.1 0.7-0.5 0.4-1 0.8-0.5 0.4-1 0.8l-1 1q-0.3 0.3-0.3 0.3 0 0 0.3-0.4l0.9-1q0.5-0.4 1-0.8 0.5-0.5 1.1-0.8 0.5-0.4 1-0.8 0.6-0.3 1.2-0.6 0.9-0.5 1.9-0.9 1-0.4 2-0.7 1-0.3 2-0.5 1-0.2 2.1-0.3 1.3-0.2 2.7-0.2 1.4 0 2.8 0 1.4 0.1 2.7 0.3 1.4 0.2 2.7 0.6 1.7 0.4 3.2 0.9 1.6 0.6 3.2 1.2 1.5 0.7 3 1.4 1.5 0.8 2.9 1.7c4.2 2.4 8.4 5.4 12.8 8.5q1.6 1.3 3.4 2.5 1.8 1.1 3.6 2.2 1.8 1.1 3.6 2.1 1.9 1.1 3.8 2 1 0.4 2 0.9 1 0.4 2.1 0.7 1.1 0.4 2.1 0.7 1.1 0.3 2.2 0.5 1.1 0.3 2.2 0.5 1.2 0.1 2.3 0.2 1.1 0 2.3 0 1.1 0 2.3-0.1 1.1-0.1 2.2-0.4 1.2-0.2 2.3-0.5 1.1-0.2 2.2-0.6 1-0.4 2.1-0.8 1-0.5 2-0.9 1.1-0.5 2.1-1 1-0.5 1.9-1 1-0.5 2-1.1c5.1-2.9 10-5.8 15-7.8q0.5-0.2 1-0.4 0.4-0.1 0.9-0.3 0.5-0.1 1-0.3 0.4-0.1 0.9-0.2c0.7-0.2 1.3-0.4 1.9-0.5l2-0.4q0.9-0.1 1.8-0.2 0.9-0.1 1.9-0.1 0.9-0.1 1.8-0.1 1 0.1 1.9 0.1 1.7 0.1 3.3 0.3 1.7 0.3 3.3 0.7 1.7 0.4 3.3 0.9 1.5 0.5 3.1 1.2 1.3 0.5 2.5 1.2 1.2 0.6 2.4 1.3 1.2 0.7 2.3 1.5 1.1 0.8 2.2 1.7 0.9 0.8 1.8 1.5l1.5 1.5 0.7 0.8q0.4 0.3 0.7 0.7 0.6 0.7 1.1 1.4 0.4 0.5 0.8 1.1 0.4 0.5 0.8 1.1 0.3 0.5 0.7 1.1 0.3 0.5 0.6 1.1 0.4 0.8 0.6 1.2 0.3 0.4 0.3 0.4z"/>
		<path id="Layer" class="s3" d="m173.9 247.8q-0.1 0-0.1 0.1-0.1 0-0.1 0-0.1 0-0.1 0-0.1 0-0.1 0l-1.3 0.3q-0.3 0-0.5 0.1-0.3 0-0.5 0.1-0.3 0-0.5 0-0.3 0.1-0.5 0.1c-0.8 0.1-1.7 0.2-2.7 0.2l-1.6 0.1q-0.8 0-1.7 0c-1.2 0-2.4-0.1-3.8-0.2q-1-0.2-2.1-0.3-1-0.2-2.1-0.4-1.1-0.2-2.1-0.4-1.1-0.3-2.1-0.6-1-0.3-2-0.6-1.1-0.4-2.1-0.8-1-0.4-2-0.8-0.9-0.5-1.9-0.9c-1.2-0.7-2.3-1.2-3.3-1.9q-0.7-0.4-1.4-0.8l-1.3-0.9c-0.9-0.6-1.5-1.2-2.2-1.7q-0.2-0.1-0.4-0.3-0.2-0.2-0.4-0.3-0.1-0.2-0.3-0.4-0.2-0.1-0.4-0.3-0.6-0.6-0.9-0.9-0.1 0-0.1 0-0.1-0.1-0.1-0.1 0-0.1-0.1-0.1 0-0.1 0-0.1 0 0 0 0.1 0.1 0 0.1 0 0.1 0.1 0.1 0.1 0.1 0 0.1 0.1l1 0.8q0.6 0.6 1.6 1.3c0.6 0.4 1.3 1 2.2 1.6l1.3 0.8q0.6 0.5 1.4 0.9c1 0.6 2.1 1.2 3.3 1.8q1.9 0.9 3.9 1.7 2 0.8 4 1.4 2.1 0.6 4.2 1 2.1 0.4 4.2 0.6c1.3 0.1 2.6 0.3 3.7 0.3 0.6 0 1.2 0 1.7 0h1.6c1 0 1.9-0.1 2.7-0.2q1.1-0.1 2-0.2l1.3-0.2q0 0 0.1 0 0 0 0.1 0 0 0 0.1-0.1 0 0 0.1 0z"/>
		<path id="Layer" fill-rule="evenodd" class="s2" d="m522.4 180.4l28.5-2.8 2.9 30.2-28.5 2.8 4.9 50.3-37.5 3.6-4.9-50.2-96.8 9.5-3.2-23 81.6-162 38.8-3.8zm-98.1 9.6l60.6-5.9-9-91.7-0.9-0.2-2.5 6.9z"/>
		<g id="Layer" style="opacity: .4">
			<path id="Layer" fill-rule="evenodd" class="s5" d="m522.4 180.4l28.5-2.8 2.9 30.2-28.5 2.8 4.9 50.3-37.5 3.6-4.9-50.2-96.8 9.5-3.2-23 81.6-162 38.8-3.8zm-98.1 9.6l60.6-5.9-9-91.7-0.9-0.2-2.5 6.9z"/>
		</g>
		<path id="Layer" fill-rule="evenodd" class="s2" d="m546.2 178l28.5-2.8 3 30.3-28.6 2.8 5 50.3-37.5 3.6-4.9-50.2-96.9 9.4-3.1-22.9 81.6-162 38.7-3.8zm-98 9.6l60.5-5.9-8.9-91.7-1-0.3-2.4 7z"/>
		<path id="Layer" class="s2" d="m412.7 202.8q-0.1 0.1-0.2 0.2-0.1 0.1-0.2 0.1-0.1 0.1-0.2 0.2-0.1 0.1-0.2 0.1c-0.6 0.4-1.4 1-2.4 1.7-2.1 1.3-4.9 3.1-8.1 5-3.2 1.9-6.1 3.6-8.2 4.8-1.1 0.6-2 1-2.6 1.3q-0.1 0.1-0.2 0.2-0.2 0-0.3 0.1-0.1 0-0.2 0.1-0.1 0-0.3 0.1 0.1-0.1 0.2-0.2 0.1-0.1 0.2-0.1 0.1-0.1 0.3-0.2 0.1-0.1 0.2-0.1l2.5-1.5 8.1-4.9 8.2-4.9 2.4-1.5q0.2-0.1 0.3-0.1 0.1-0.1 0.2-0.2 0.2 0 0.3-0.1 0.1 0 0.2-0.1z"/>
		<path id="Layer" class="s2" d="m422.9 175.4q-0.1 0.1-0.2 0.3-0.2 0.1-0.3 0.2-0.2 0.1-0.3 0.2-0.2 0.1-0.3 0.2c-0.8 0.5-2 1.3-3.4 2.2-2.8 1.8-6.7 4.2-11.1 6.8-4.4 2.6-8.4 5-11.3 6.6-1.5 0.9-2.6 1.5-3.5 2q-0.1 0-0.3 0.1-0.2 0.1-0.3 0.2-0.2 0.1-0.4 0.2-0.1 0-0.3 0.1 0.2-0.1 0.3-0.2 0.2-0.1 0.3-0.2 0.2-0.1 0.3-0.2 0.2-0.1 0.3-0.2l3.5-2 11.2-6.8 11.2-6.7 3.4-2.1q0.2-0.1 0.3-0.2 0.2-0.1 0.3-0.2 0.2 0 0.3-0.1 0.2-0.1 0.3-0.2z"/>
		<path id="Layer" class="s2" d="m436.6 150.4q-0.2 0.1-0.3 0.2-0.2 0.1-0.3 0.2-0.2 0.1-0.4 0.2-0.1 0.1-0.3 0.2c-0.8 0.6-2 1.3-3.5 2.2-2.9 1.9-7 4.3-11.6 7-4.6 2.7-8.8 5-11.9 6.7-1.5 0.9-2.7 1.5-3.6 2q-0.2 0.1-0.3 0.2-0.2 0.1-0.4 0.1-0.1 0.1-0.3 0.2-0.2 0.1-0.4 0.1 0.2-0.1 0.3-0.2 0.2-0.1 0.4-0.2 0.1-0.1 0.3-0.2 0.2-0.1 0.3-0.2l3.6-2 11.7-6.8 11.8-6.9 3.5-2.1q0.2-0.1 0.4-0.2 0.1-0.1 0.3-0.2 0.1-0.1 0.3-0.1 0.2-0.1 0.4-0.2z"/>
		<path id="Layer" class="s2" d="m507.7 167q-0.1 0.1-0.2 0.1-0.1 0.1-0.2 0.2-0.1 0.1-0.2 0.2-0.1 0-0.2 0.1c-0.6 0.4-1.4 0.9-2.4 1.6-2.1 1.3-5 3-8.2 4.9-3.2 1.8-6.1 3.5-8.2 4.6q-1.7 0.9-2.6 1.3-0.1 0.1-0.2 0.1-0.2 0.1-0.3 0.1-0.1 0.1-0.2 0.1-0.2 0.1-0.3 0.1 0.1-0.1 0.2-0.1 0.1-0.1 0.2-0.2 0.1-0.1 0.3-0.1 0.1-0.1 0.2-0.1l2.5-1.5 8.2-4.7 8.1-4.8 2.5-1.5q0.2 0 0.3-0.1 0.1-0.1 0.2-0.1 0.1-0.1 0.3-0.1 0.1-0.1 0.2-0.1z"/>
		<path id="Layer" class="s2" d="m511.6 214q-0.1 0.1-0.2 0.1-0.1 0.1-0.2 0.2-0.1 0.1-0.2 0.2-0.2 0-0.3 0.1c-0.5 0.4-1.3 0.9-2.3 1.6-2 1.2-4.7 3-7.8 4.8-3.1 1.9-6 3.5-8.1 4.6-1 0.6-1.9 1-2.4 1.3q-0.2 0.1-0.3 0.1-0.1 0.1-0.2 0.2-0.1 0-0.2 0-0.2 0.1-0.3 0.1 0.1 0 0.2-0.1 0.1-0.1 0.2-0.2 0.1-0.1 0.3-0.1 0.1-0.1 0.2-0.1l2.4-1.5 7.9-4.7 7.9-4.7 2.4-1.5q0.2 0 0.3-0.1 0.1-0.1 0.2-0.1 0.1-0.1 0.2-0.1 0.2-0.1 0.3-0.1z"/>
		<path id="Layer" class="s2" d="m513.5 230.4q-0.1 0.1-0.2 0.1-0.1 0.1-0.2 0.2-0.1 0.1-0.2 0.1-0.1 0.1-0.2 0.2c-0.6 0.4-1.4 0.9-2.4 1.5-1.9 1.3-4.7 3.1-7.8 4.9-3.1 1.9-6 3.4-8 4.6-1.1 0.6-1.9 1-2.5 1.3q-0.1 0.1-0.2 0.1-0.1 0.1-0.3 0.1-0.1 0.1-0.2 0.1-0.1 0.1-0.3 0.1 0.2-0.1 0.3-0.1 0.1-0.1 0.2-0.2 0.1-0.1 0.2-0.1 0.1-0.1 0.2-0.1l2.4-1.5 8-4.7 7.9-4.7 2.4-1.5q0.1 0 0.2-0.1 0.1-0.1 0.2-0.1 0.2-0.1 0.3-0.1 0.1-0.1 0.2-0.1z"/>
		<path id="Layer" class="s2" d="m515.4 246.8q-0.1 0-0.2 0.1-0.1 0.1-0.2 0.2-0.1 0.1-0.2 0.1-0.1 0.1-0.2 0.2c-0.6 0.4-1.4 0.9-2.4 1.5-1.9 1.3-4.7 3.1-7.8 4.9-3.1 1.8-5.9 3.4-8 4.6-1.1 0.6-1.9 1-2.5 1.3q-0.1 0.1-0.2 0.1-0.1 0.1-0.3 0.1-0.1 0.1-0.2 0.1-0.1 0.1-0.2 0.1 0.1-0.1 0.2-0.1 0.1-0.1 0.2-0.2 0.1-0.1 0.2-0.1 0.1-0.1 0.2-0.2l2.4-1.4 8-4.7 7.9-4.7 2.4-1.5q0.1 0 0.2-0.1 0.1-0.1 0.2-0.1 0.2-0.1 0.3-0.2 0.1 0 0.2 0z"/>
		<path id="Layer" class="s2" d="m505.7 149.6q-0.1 0.1-0.2 0.2-0.1 0.1-0.2 0.2-0.1 0.1-0.2 0.1-0.1 0.1-0.2 0.2c-0.6 0.3-1.4 0.9-2.5 1.5-2 1.3-4.9 3.1-8.1 4.9-3.2 1.9-6.1 3.5-8.3 4.7-1 0.5-1.9 1-2.5 1.3q-0.1 0.1-0.3 0.1-0.1 0.1-0.2 0.1-0.1 0.1-0.2 0.1-0.2 0.1-0.3 0.1 0.1-0.1 0.2-0.1 0.1-0.1 0.2-0.2 0.1-0.1 0.2-0.1 0.1-0.1 0.3-0.2l2.4-1.4 8.3-4.7 8.1-4.8 2.5-1.5q0.1 0 0.3-0.1 0.1-0.1 0.2-0.1 0.1-0.1 0.3-0.2 0.1 0 0.2-0.1z"/>
		<path id="Layer" class="s2" d="m503.7 132.3q-0.1 0.1-0.2 0.2-0.1 0.1-0.2 0.2-0.1 0-0.2 0.1-0.1 0.1-0.2 0.2-0.9 0.5-2.5 1.5c-2 1.3-4.9 3.1-8.1 4.9-3.2 1.9-6.1 3.5-8.3 4.6-1 0.6-1.9 1.1-2.5 1.4q-0.1 0-0.3 0.1-0.1 0.1-0.2 0.1-0.1 0.1-0.3 0.1-0.1 0-0.2 0.1 0.1-0.1 0.2-0.2 0.1-0.1 0.2-0.1 0.1-0.1 0.2-0.2 0.1 0 0.3-0.1l2.4-1.4 8.3-4.8 8.1-4.8 2.5-1.4q0.1-0.1 0.3-0.1 0.1-0.1 0.2-0.2 0.1 0 0.3-0.1 0.1 0 0.2-0.1z"/>
		<path id="Layer" class="s2" d="m501.7 115q-0.1 0.1-0.2 0.2-0.1 0-0.2 0.1-0.1 0.1-0.2 0.2-0.1 0-0.2 0.1c-0.5 0.4-1.3 0.9-2.3 1.5-1.9 1.2-4.7 2.9-7.7 4.7-3 1.8-5.9 3.3-7.9 4.4l-2.4 1.2q-0.2 0.1-0.3 0.1-0.1 0.1-0.2 0.2-0.1 0-0.2 0-0.1 0.1-0.3 0.1 0.1 0 0.2-0.1 0.1-0.1 0.2-0.2 0.2 0 0.3-0.1 0.1-0.1 0.2-0.1l2.3-1.4 7.9-4.5 7.8-4.6 2.3-1.3q0.1-0.1 0.2-0.2 0.2 0 0.3-0.1 0.1-0.1 0.2-0.1 0.1-0.1 0.2-0.1z"/>
		<path id="Layer" class="s2" d="m501.4 98.6q-0.5 0.3-1 0.7-0.5 0.3-1 0.6-0.5 0.3-1 0.6-0.5 0.3-1 0.5-0.5 0.3-1 0.6-0.6 0.3-1.1 0.5-0.5 0.3-1 0.5-0.6 0.2-1.1 0.4 0.4-0.3 0.9-0.6 0.5-0.4 1-0.7 0.5-0.3 1-0.5 0.5-0.3 1.1-0.6 0.5-0.3 1-0.6 0.5-0.2 1-0.5 0.5-0.2 1.1-0.5 0.5-0.2 1.1-0.4z"/>
		<path id="Layer" class="s2" d="m450 124.5q-0.1 0.1-0.2 0.2-0.2 0.2-0.4 0.3-0.1 0.1-0.3 0.2-0.1 0.1-0.3 0.2c-0.8 0.5-2 1.2-3.5 2.2-2.9 1.8-7.1 4.2-11.7 6.9-4.5 2.7-8.7 5-11.8 6.7-1.5 0.9-2.8 1.5-3.6 2q-0.2 0-0.4 0.1-0.1 0.1-0.3 0.2-0.2 0.1-0.3 0.2-0.2 0-0.4 0.1 0.2-0.1 0.3-0.2 0.2-0.1 0.3-0.2 0.2-0.1 0.4-0.2 0.1-0.1 0.3-0.2l3.6-2.1 11.7-6.8 11.8-6.8 3.5-2.1q0.2-0.1 0.3-0.2 0.2-0.1 0.4-0.2 0.1-0.1 0.3-0.1 0.2-0.1 0.3-0.2z"/>
		<path id="Layer" class="s2" d="m463.5 98.6q-0.1 0.1-0.3 0.2-0.1 0.1-0.3 0.2-0.1 0.1-0.3 0.2-0.2 0.2-0.3 0.2c-0.9 0.6-2 1.3-3.5 2.2-3 1.9-7.1 4.3-11.7 7-4.5 2.7-8.7 5-11.8 6.7-1.5 0.9-2.8 1.5-3.6 1.9q-0.2 0.1-0.4 0.2-0.1 0.1-0.3 0.2-0.2 0.1-0.4 0.1-0.1 0.1-0.3 0.2 0.2-0.1 0.3-0.2 0.2-0.1 0.3-0.2 0.2-0.1 0.3-0.2 0.2-0.1 0.4-0.2l3.5-2.1 11.8-6.8 11.7-6.8 3.6-2.1q0.2-0.1 0.3-0.2 0.2-0.1 0.4-0.2 0.1-0.1 0.3-0.2 0.2 0 0.3-0.1z"/>
		<path id="Layer" class="s2" d="m475.7 72.9q-0.1 0.1-0.3 0.3-0.1 0.1-0.3 0.2-0.1 0.1-0.3 0.2-0.1 0.1-0.3 0.2c-0.9 0.5-2 1.3-3.5 2.2-3 1.8-7.1 4.3-11.7 6.9-4.6 2.7-8.7 5.1-11.8 6.7-1.5 0.9-2.8 1.5-3.6 2q-0.2 0.1-0.4 0.2-0.1 0-0.3 0.1-0.2 0.1-0.3 0.2-0.2 0-0.4 0.1 0.2-0.1 0.3-0.2 0.2-0.1 0.3-0.2 0.2-0.1 0.4-0.2 0.1-0.1 0.3-0.2l3.6-2 11.7-6.8 11.7-6.9 3.6-2.1q0.2-0.1 0.3-0.2 0.2-0.1 0.4-0.2 0.1 0 0.3-0.1 0.2-0.1 0.3-0.2z"/>
		<path id="Layer" class="s2" d="m488.7 48q-0.1 0.1-0.3 0.3-0.1 0.1-0.3 0.2-0.1 0.1-0.3 0.2-0.2 0.1-0.3 0.2c-0.8 0.5-2 1.3-3.5 2.2-3 1.8-7.1 4.3-11.7 7-4.6 2.6-8.8 5-11.8 6.6-1.5 0.9-2.8 1.5-3.6 2q-0.2 0.1-0.4 0.2-0.1 0.1-0.3 0.1-0.2 0.1-0.4 0.2-0.1 0.1-0.3 0.1 0.1-0.1 0.3-0.2 0.2-0.1 0.3-0.2 0.2-0.1 0.3-0.2 0.2-0.1 0.4-0.2l3.5-2 11.8-6.9 11.7-6.8 3.6-2.1q0.2-0.1 0.3-0.2 0.2-0.1 0.3-0.2 0.2-0.1 0.4-0.1 0.2-0.1 0.3-0.2z"/>
		<path id="Layer" class="s3" d="m536.5 76.5q-0.1 0-0.1 0.1 0 0.1-0.1 0.2-0.1 0.1-0.1 0.1-0.1 0.1-0.1 0.2-0.2 0.2-0.3 0.4-0.2 0.2-0.4 0.5-0.1 0.2-0.3 0.4-0.2 0.2-0.3 0.4-0.7 0.8-1.4 1.4-0.7 0.8-1.5 1.4-0.7 0.7-1.5 1.3-0.8 0.5-1.6 1.1-1.3 0.8-2.6 1.4-1.3 0.7-2.7 1.2-1.4 0.6-2.8 1-1.4 0.3-2.9 0.6-0.9 0.1-1.7 0.2-0.9 0.1-1.8 0.1-0.8 0-1.7 0-0.9 0-1.8-0.1-0.9-0.1-1.8-0.3-0.9-0.1-1.8-0.3-1-0.2-1.9-0.5-0.9-0.2-1.7-0.5c-4.9-1.6-9.3-3.6-13.6-4.9q-1.4-0.5-2.8-0.8-1.4-0.3-2.8-0.4-1.5-0.2-3-0.2-1.4 0-2.9 0.1-0.9 0.1-1.9 0.3-1 0.2-1.9 0.5-0.9 0.3-1.8 0.7-0.9 0.5-1.7 1-0.3 0.1-0.5 0.3-0.2 0.1-0.4 0.3-0.2 0.2-0.4 0.3-0.2 0.2-0.4 0.4-0.1 0.1-0.2 0.1 0 0.1-0.1 0.2-0.1 0-0.2 0.1 0 0-0.1 0.1 0-0.1 0.1-0.2 0.1 0 0.1-0.1 0.1-0.1 0.2-0.1 0-0.1 0.1-0.2 0.2-0.2 0.4-0.3 0.2-0.2 0.4-0.4 0.2-0.2 0.4-0.3 0.2-0.2 0.4-0.4 0.9-0.5 1.8-1 0.9-0.4 1.8-0.7 0.9-0.4 1.9-0.6 1-0.2 2-0.3 1.4-0.2 2.9-0.2 1.5 0 3 0.2 1.5 0.1 2.9 0.4 1.5 0.3 2.9 0.8c4.2 1.2 8.7 3.2 13.5 4.8q0.9 0.3 1.8 0.6 0.8 0.2 1.7 0.4 1 0.2 1.9 0.3 0.9 0.2 1.8 0.3 0.9 0.1 1.7 0.1 0.9 0.1 1.7 0 0.9 0 1.7-0.1 0.9 0 1.7-0.2 1.5-0.2 2.9-0.6 1.4-0.3 2.8-0.9 1.3-0.5 2.6-1.1 1.3-0.7 2.6-1.4 0.8-0.5 1.6-1.1 0.8-0.6 1.6-1.2 0.7-0.7 1.4-1.3 0.7-0.7 1.4-1.5 0.2-0.2 0.3-0.4 0.2-0.2 0.4-0.4 0.2-0.2 0.3-0.4 0.2-0.2 0.4-0.4 0-0.1 0.1-0.2 0.1 0 0.1-0.1 0.1-0.1 0.2-0.1 0-0.1 0.1-0.1z"/>
		<path id="Layer" class="s3" d="m518.7 36.2q-0.1 0.1-0.2 0.2-0.1 0.1-0.2 0.2-0.2 0.1-0.3 0.2-0.1 0.1-0.2 0.2c-0.7 0.4-1.7 1.1-2.9 1.8q-0.6 0.4-1.1 0.7-0.6 0.3-1.1 0.6-0.6 0.3-1.2 0.6-0.5 0.2-1.1 0.5-0.7 0.3-1.4 0.6-0.8 0.3-1.5 0.6-0.7 0.3-1.5 0.5-0.7 0.3-1.4 0.5-0.8 0.3-1.5 0.5-0.8 0.2-1.5 0.4-0.8 0.2-1.6 0.3-0.7 0.2-1.5 0.3-0.6 0.1-1.3 0.2-0.6 0.1-1.2 0.2-0.6 0.1-1.3 0.1-0.6 0.1-1.2 0.1c-1.5 0.1-2.7 0.2-3.5 0.1q-0.1 0-0.3 0-0.1 0-0.3 0-0.2 0-0.3 0-0.2 0-0.3 0 0.1-0.1 0.3-0.1 0.1 0 0.3 0 0.2 0 0.3 0 0.2 0 0.3 0c0.8 0 2-0.1 3.4-0.3q2.2-0.2 5-0.7 0.8-0.1 1.6-0.3 0.7-0.2 1.5-0.4 0.7-0.1 1.5-0.3 0.7-0.2 1.4-0.5 0.8-0.2 1.5-0.5 0.7-0.2 1.5-0.5 0.7-0.3 1.4-0.6 0.7-0.3 1.4-0.6c1.7-0.7 3.3-1.5 4.5-2.2 1.3-0.8 2.3-1.4 3-1.8q0.1 0 0.2-0.1 0.2-0.1 0.3-0.2 0.1-0.1 0.3-0.2 0.1 0 0.2-0.1z"/>
		<path id="Layer" class="s3" d="m471.9 139q-0.1-0.1-0.2-0.2-0.1-0.1-0.2-0.2-0.1-0.1-0.2-0.2-0.1-0.1-0.2-0.2l-2.4-2.1q-0.9-0.8-1.9-1.7-1-0.8-2.1-1.6-1-0.8-2-1.6-1.1-0.8-2.1-1.5-0.6-0.4-1.2-0.8-0.6-0.4-1.2-0.7-0.6-0.4-1.3-0.7-0.6-0.3-1.3-0.6-0.5-0.2-1-0.4-0.6-0.2-1.1-0.3-0.6-0.1-1.2-0.2-0.5-0.1-1.1-0.1-0.6-0.1-1.1 0-0.5 0-1 0-0.6 0.1-1.1 0.2-0.5 0.2-1 0.3c-0.4 0.1 0.1 0 0.2-0.1q0.1-0.1 0.2-0.1 0.1-0.1 0.2-0.1 0.1 0 0.2-0.1 0.1 0 0.2 0 0.4-0.2 0.8-0.2 0.4-0.1 0.8-0.2 0.4 0 0.8-0.1 0.4 0 0.8 0 0.6 0.1 1.2 0.1 0.6 0.1 1.1 0.2 0.6 0.1 1.2 0.3 0.6 0.2 1.1 0.4 0.7 0.3 1.3 0.6 0.7 0.3 1.3 0.7 0.6 0.3 1.2 0.7 0.6 0.4 1.2 0.8 1.1 0.8 2.1 1.6 1.1 0.7 2.1 1.6 1 0.8 2 1.6 1 0.9 1.9 1.8c1 0.9 1.8 1.7 2.3 2.2q0.1 0.1 0.2 0.2 0.1 0.1 0.2 0.2 0.1 0.1 0.2 0.2 0.1 0.1 0.1 0.3z"/>
		<path id="Layer" class="s3" d="m543.2 155q0 0-0.3 0.3c-0.2 0.2-0.5 0.5-0.9 0.8q-0.5 0.3-0.9 0.7-0.5 0.3-0.9 0.6-0.5 0.3-1 0.6-0.5 0.3-1 0.5-3.2 1.8-6.8 2.6c-2.4 0.6-4.9 0.8-7.3 0.6-2.5-0.1-4.9-0.6-7.2-1.5-2.3-0.8-4.5-1.9-6.5-3.4q-0.5-0.3-0.9-0.6-0.5-0.4-0.9-0.7-0.4-0.4-0.8-0.8-0.4-0.4-0.8-0.8c-0.4-0.3-0.6-0.6-0.9-0.8q0-0.1 0-0.1-0.1 0-0.1-0.1 0 0-0.1-0.1 0 0 0-0.1c0 0 0.4 0.4 1.2 1.2q0.4 0.3 0.8 0.7 0.4 0.3 0.8 0.7 0.5 0.3 0.9 0.7 0.5 0.3 0.9 0.6c2 1.4 4.2 2.5 6.4 3.3 2.3 0.8 4.7 1.3 7.1 1.4 2.4 0.2 4.9 0 7.2-0.5q3.6-0.8 6.8-2.5 0.5-0.2 1-0.5 0.5-0.3 1-0.6 0.4-0.2 0.9-0.6 0.4-0.3 0.9-0.6 0.2-0.1 0.3-0.3 0.2-0.1 0.4-0.2 0.1-0.1 0.3-0.3 0.2-0.1 0.4-0.2z"/>
		<path id="Layer" class="s3" d="m575.5 205.2q-0.1 0-0.1-0.1 0 0-0.1-0.1 0 0-0.1 0 0-0.1-0.1-0.1-0.3-0.4-0.8-1.1-0.4-0.5-0.8-1-0.4-0.5-0.9-1-0.4-0.5-0.9-1-0.4-0.4-0.9-0.9l-1.4-1.2-0.7-0.6-0.8-0.6-1.8-1.3-1.9-1.3q-1.2-0.6-2.5-1.3-1.2-0.6-2.4-1.1-1.3-0.5-2.6-1-1.3-0.4-2.6-0.8-1.6-0.4-3.3-0.7-1.6-0.3-3.3-0.4-1.6-0.2-3.3-0.2-1.6 0-3.3 0.1-1.9 0.2-3.8 0.6-1.8 0.3-3.6 0.9-1.9 0.6-3.6 1.3-1.8 0.8-3.4 1.7c-4.7 2.7-9.1 6.3-13.7 9.9q-0.9 0.7-1.8 1.3-0.9 0.7-1.8 1.3-1 0.7-1.9 1.3-0.9 0.6-1.9 1.2-1 0.6-2 1.1-1.1 0.5-2.2 1-1 0.4-2.1 0.8-1.1 0.4-2.3 0.6-1.1 0.3-2.2 0.5-1.2 0.2-2.3 0.3-1.2 0.1-2.4 0.1-1.1 0-2.3-0.1-1.1-0.1-2.2-0.3-1.1-0.1-2.2-0.3-1.2-0.2-2.2-0.5-1.1-0.3-2.2-0.6-2-0.7-4-1.4-2-0.7-4-1.6-1.9-0.8-3.8-1.8-1.9-0.9-3.8-1.9c-4.8-2.5-9.3-4.9-13.7-6.7q-1.6-0.7-3.1-1.2-1.6-0.5-3.2-1-1.6-0.4-3.3-0.7-1.6-0.3-3.3-0.5-1.3-0.2-2.7-0.2-1.4 0-2.7 0.1-1.4 0.1-2.8 0.4-1.3 0.2-2.6 0.5-1 0.3-2 0.6-1 0.4-1.9 0.8-1 0.4-1.9 0.9-0.9 0.5-1.7 1.1-0.6 0.4-1.1 0.8-0.5 0.4-1 0.9-0.5 0.4-0.9 0.9-0.5 0.4-0.9 0.9l-0.8 1.1q-0.3 0.4-0.3 0.4 0 0 0.3-0.4l0.7-1.1q0.5-0.5 0.9-1 0.4-0.5 0.9-1 0.5-0.4 1-0.8 0.5-0.4 1.1-0.8 0.8-0.6 1.7-1.2 0.9-0.5 1.9-0.9 0.9-0.5 1.9-0.8 1-0.4 2-0.6 1.3-0.4 2.7-0.6 1.4-0.2 2.7-0.3 1.4-0.2 2.8-0.1 1.4 0 2.8 0.1 1.6 0.2 3.3 0.5 1.6 0.3 3.2 0.7 1.7 0.5 3.2 1 1.6 0.6 3.2 1.2c4.4 1.8 9 4.2 13.8 6.7q1.8 1 3.7 1.9 1.9 0.9 3.9 1.8 1.9 0.8 3.9 1.5 2 0.8 4 1.4 1 0.3 2.1 0.6 1.1 0.3 2.2 0.5 1.1 0.2 2.2 0.4 1.1 0.1 2.2 0.2 1.1 0.1 2.3 0.1 1.1 0 2.3-0.1 1.1-0.1 2.2-0.3 1.2-0.2 2.3-0.5 1.1-0.2 2.2-0.6 1.1-0.4 2.1-0.8 1.1-0.5 2.1-1 1-0.5 2-1.1 0.9-0.6 1.9-1.2 0.9-0.6 1.8-1.2 1-0.6 1.9-1.3 0.9-0.6 1.7-1.3c4.7-3.6 9.1-7.2 13.8-9.9q0.5-0.2 0.9-0.5 0.4-0.2 0.9-0.4 0.4-0.3 0.9-0.5 0.5-0.2 0.9-0.4c0.6-0.2 1.2-0.5 1.8-0.7l1.9-0.6q0.9-0.3 1.8-0.5 0.9-0.2 1.8-0.4 0.9-0.2 1.9-0.3 0.9-0.1 1.8-0.2 1.7-0.1 3.4-0.1 1.6 0 3.3 0.1 1.7 0.2 3.3 0.5 1.7 0.3 3.3 0.7 1.3 0.4 2.6 0.8 1.3 0.5 2.6 1 1.3 0.6 2.5 1.2 1.2 0.6 2.4 1.3l2 1.3 1.7 1.3 0.9 0.6 0.7 0.6 1.4 1.3q0.4 0.4 0.9 0.9 0.4 0.5 0.8 1 0.5 0.5 0.9 1 0.4 0.5 0.8 1 0.5 0.8 0.8 1.1z"/>
		<path id="Layer" class="s3" d="m554.9 244.3q-0.1 0-0.1 0-0.1 0.1-0.1 0.1-0.1 0-0.1 0-0.1 0-0.1 0.1l-1.3 0.4q-0.2 0.1-0.4 0.1-0.3 0.1-0.5 0.2-0.3 0.1-0.5 0.1-0.3 0.1-0.5 0.2c-0.8 0.1-1.6 0.4-2.6 0.6l-1.6 0.3c-0.5 0.1-1.1 0.1-1.7 0.2-1.2 0.2-2.4 0.2-3.7 0.3q-1.1 0-2.2 0-1.1 0-2.1 0-1.1-0.1-2.2-0.2-1-0.1-2.1-0.2-1.1-0.2-2.1-0.4-1.1-0.2-2.1-0.5-1.1-0.2-2.1-0.5-1-0.3-2.1-0.6c-1.2-0.5-2.4-0.9-3.5-1.4-0.5-0.2-1.1-0.4-1.5-0.7l-1.4-0.7c-0.9-0.4-1.7-0.9-2.4-1.3q-0.2-0.2-0.4-0.3-0.2-0.1-0.5-0.3-0.2-0.1-0.4-0.2-0.2-0.2-0.4-0.3l-1.1-0.8q0 0 0 0-0.1-0.1-0.1-0.1-0.1 0-0.1-0.1-0.1 0-0.1-0.1 0 0.1 0.1 0.1 0.1 0 0.1 0 0.1 0.1 0.1 0.1 0.1 0 0.1 0.1l1.1 0.6q0.7 0.5 1.7 1.1c0.7 0.3 1.5 0.8 2.4 1.2l1.4 0.7c0.5 0.2 1 0.4 1.5 0.7 1.1 0.4 2.3 0.8 3.5 1.3q1 0.3 2.1 0.6 1 0.3 2.1 0.5 1 0.3 2.1 0.4 1 0.2 2.1 0.4 1.1 0.1 2.1 0.3 1.1 0 2.1 0.1 1.1 0.1 2.2 0.1 1.1 0 2.1 0c1.3-0.1 2.6-0.1 3.7-0.3 0.6-0.1 1.2-0.1 1.7-0.2l1.6-0.3c1-0.1 1.8-0.3 2.6-0.5q1.2-0.2 2-0.5l1.2-0.3q0.1 0 0.1-0.1 0 0 0.1 0 0 0 0.1 0 0 0 0.1 0z"/>
		<path id="Layer" class="s6" d="m412.9 112.5l-8.4 42.9-30.9 12.6c-1.1 10.7-2.3 20.2-3.9 24.7-2.5 7.5-23 25-42.5 32.4q-3.6 1.4-7.4 2.4-3.7 1.1-7.5 1.7-3.7 0.6-7.6 0.8-3.8 0.3-7.7 0.1c0 0-21-3.5-31.7-34.1l9.6-42.6-20.4-21c0 0 28.3-26.4 38.6-31.6q2.1-1.1 4.4-1.8 2.4-0.7 4.8-0.8 2.4-0.2 4.8 0.1 2.5 0.4 4.7 1.2l21.7 6.3 37.2 12 6 0.9z"/>
		<path id="Layer" class="s7" d="m331.5 194.6q0 0-0.3 0.2c-0.2 0.2-0.5 0.4-0.9 0.7q-0.5 0.3-0.9 0.6-0.5 0.3-0.9 0.5-0.5 0.2-1 0.5-0.5 0.2-1 0.4c-2.1 0.9-4.4 1.5-6.7 1.7-2.4 0.2-4.7 0.1-7-0.4-2.3-0.5-4.5-1.4-6.5-2.5-2-1.2-3.9-2.7-5.4-4.4q-0.4-0.4-0.7-0.8-0.4-0.4-0.7-0.8-0.3-0.5-0.6-0.9-0.3-0.4-0.6-0.9c-0.3-0.4-0.4-0.8-0.6-1q0 0 0-0.1 0 0 0-0.1-0.1 0-0.1-0.1 0 0 0 0 0.1 0.1 0.2 0.3 0.1 0.1 0.2 0.3 0.1 0.1 0.2 0.3 0.1 0.2 0.2 0.3 0.3 0.5 0.6 0.9 0.4 0.4 0.7 0.8 0.3 0.4 0.7 0.8 0.3 0.4 0.7 0.8c1.6 1.6 3.4 3.1 5.4 4.2 2 1.1 4.1 2 6.4 2.5 2.2 0.4 4.5 0.6 6.8 0.4q3.5-0.3 6.7-1.6 0.5-0.2 0.9-0.4 0.5-0.2 1-0.4 0.5-0.3 0.9-0.5 0.5-0.3 0.9-0.5c0.9-0.6 1.4-0.9 1.4-0.8z"/>
		<path id="Layer" class="s7" d="m319.8 107.6q0 0 0 0 0 0.1 0 0.1 0 0 0 0 0 0.1 0 0.1 0.1 0.2 0.2 0.6 0.2 0.8 0.5 2.3 0.2 1.1 0.4 2.2 0.2 1.1 0.4 2.2 0.1 1.1 0.2 2.2 0.2 1.1 0.2 2.2 0.1 0.8 0.1 1.5 0 0.8-0.1 1.6 0 0.7-0.1 1.5-0.1 0.8-0.2 1.5-0.2 0.9-0.4 1.8-0.2 0.8-0.6 1.6-0.3 0.9-0.6 1.7-0.4 0.8-0.9 1.5-0.5 0.9-1.1 1.6-0.5 0.8-1.2 1.6-0.6 0.7-1.3 1.4-0.7 0.7-1.4 1.3c-2.1 1.8-4.3 3.4-6.6 5.2-4.8 3.6-9.5 6.9-13.6 9.9-4.2 3-7.9 5.6-10.9 7.9l-0.1 0.1-0.1-0.1q-0.8-0.6-1.5-1.3-0.8-0.6-1.6-1.3-0.7-0.7-1.4-1.4-0.7-0.7-1.4-1.4-0.2-0.2-0.4-0.4-0.2-0.2-0.4-0.4-0.1-0.2-0.3-0.4-0.2-0.2-0.3-0.4-0.2-0.3-0.3-0.5 0 0-0.1 0 0 0 0-0.1 0 0 0 0 0 0 0 0c0-0.1 0.1 0.2 0.4 0.5q0.2 0.2 0.4 0.4 0.2 0.2 0.3 0.4 0.2 0.2 0.4 0.4 0.2 0.2 0.4 0.4 0.7 0.7 1.4 1.4 0.8 0.7 1.5 1.3 0.7 0.7 1.5 1.3 0.8 0.6 1.6 1.3h-0.2c2.9-2.3 6.6-5 10.8-8 4.2-3 8.9-6.3 13.7-9.9 2.3-1.8 4.5-3.4 6.5-5.2q0.7-0.6 1.4-1.3 0.7-0.7 1.3-1.4 0.6-0.7 1.2-1.5 0.6-0.8 1.1-1.6 0.4-0.7 0.8-1.5 0.4-0.8 0.7-1.6 0.3-0.8 0.5-1.6 0.3-0.9 0.4-1.7 0.1-0.8 0.2-1.5 0.1-0.8 0.2-1.5 0-0.8 0-1.5 0-0.8 0-1.6 0-1.1-0.1-2.2-0.1-1.1-0.3-2.2-0.1-1-0.3-2.1-0.1-1.1-0.4-2.2-0.2-1.5-0.4-2.4-0.1-0.3-0.1-0.6 0 0 0 0 0-0.1 0-0.1 0 0 0-0.1 0 0 0 0z"/>
		<path id="Layer" class="s7" d="m484 127.9q1.5 0.4 3.1 0.6 1.6 0.1 3.2 0.1 1.6 0 3.1-0.2c-1.3 4-3.6 7.7-6.6 10.8-2.9 3-6.5 5.4-10.5 6.9-4 1.4-8.3 2-12.6 1.6-4.2-0.3-8.3-1.6-12-3.8-1.5-0.9-3.6-1.8-4.8-0.9-1.3 1-1 3.1-0.1 4.3 0.9 1.3 2.3 2.2 3.2 3.5 2.3 3.1 0.9 8.1-2.3 10.3-3.2 2.3-7.5 2.4-11.3 1.3-3.8-1.2-7.1-3.5-10.4-5.6-4.6-2.9-10.8-5.6-15.1-2.2-3.2 2.5-3.6 7.4-6.5 10.3-2.4 2.4-6.4 3-9.7 2-3.3-1-6.1-3.4-8.4-6-11.7-13.3-11.8-33.3-21.1-48.4-4.8-8-12-14.2-19-20.3-2.7-2.4-5.4-4.7-8-7.2-1.5 7.2-3 14.2-4.7 20.8-6.3-1.4-16.4-5.8-21.3-10-4.9-4.2-7-14.2-4-19.9 2.3-4.1 7.1-6.6 8.6-11.1 1.2-3.3 0.2-7.1 1-10.6 1.4-6.2 7.9-9.9 11-15.4q0.5-0.8 0.9-1.7l1.5-7.8c0.4-3.8 4.3-6.3 8-7.2 3.7-0.8 7.7-0.8 11.1-2.5 3-1.5 5.3-4.2 8-6.3 3-2.3 6.5-3.9 10.3-4.6 3.7-0.6 7.6-0.4 11.2 0.8 3.7 1.1 6.9 3.2 9.6 5.9 2.7 2.7 4.7 6 5.8 9.7q2.5 2.3 4.4 5 1.9 2.8 3.2 6 1.3 3.1 1.9 6.4 0.6 3.4 0.4 6.7c-0.3 4.6-1.6 9.1-1.8 13.7-0.3 4.6 0.8 9.6 4.4 12.5 4.5 3.6 11.1 2.5 16.6 0.6 5.5-1.9 11.1-4.6 16.8-3.6 6.3 1.1 10.9 6.4 16.6 9.2 2.2 1 4.5 1.7 6.9 2 2.4 0.3 4.9 0.3 7.3-0.2 2.3-0.4 4.6-1.2 6.8-2.4 2.1-1.1 4.1-2.6 5.7-4.3 0.3 1.7 0.2 3.5 0 5.2q-0.5 2.6-1.7 5-1.2 2.3-3 4.2-1.8 1.9-4.1 3.2l12.2 1.3c4.8 10.4 1.8 23.8-6.9 31.3q1.5 0.6 3.1 1z"/>
		<path id="Layer" class="s7" d="m473.3 59.6q0.2 0.1 0.3 0.3 0.1 0.1 0.3 0.2 0.1 0.1 0.3 0.2 0.1 0.1 0.2 0.3 0.4 0.3 0.8 0.7 0.3 0.4 0.6 0.8 0.4 0.5 0.6 0.9 0.3 0.4 0.6 0.9 0.2 0.3 0.3 0.7 0.2 0.4 0.3 0.7 0.1 0.4 0.2 0.8 0.1 0.3 0.1 0.7 0.2 1 0 2-0.1 0.9-0.5 1.8-0.4 0.9-1 1.7-0.7 0.7-1.5 1.3-0.3 0.1-0.5 0.3-0.3 0.1-0.6 0.2-0.2 0.1-0.5 0.2-0.3 0-0.6 0.1-0.3 0-0.6 0-0.3 0-0.6-0.1-0.3 0-0.6-0.1-0.3-0.1-0.6-0.2c-3.1-1.3-4.7-5-8.2-6.6-3.3-1.8-7.6-1.9-11.7-1-4.1 1-8.1 3.2-12.2 5.5-4 2.3-8.3 4.7-13.3 5.6q-0.9 0.2-1.8 0.2-1 0.1-1.9 0.1-0.9 0-1.8-0.1-0.9-0.1-1.9-0.3-0.4-0.1-0.8-0.2-0.5-0.1-0.9-0.3-0.4-0.2-0.9-0.3-0.4-0.2-0.8-0.4-0.4-0.3-0.8-0.5-0.3-0.2-0.7-0.5-0.4-0.3-0.7-0.6-0.3-0.3-0.7-0.6-0.6-0.6-1.1-1.3-0.5-0.7-1-1.4-0.5-0.7-0.9-1.5-0.3-0.8-0.6-1.6-0.3-0.8-0.6-1.6-0.2-0.8-0.4-1.6-0.2-0.8-0.3-1.6-0.2-0.9-0.3-1.7c-0.4-4.3-0.1-8.4 0-12.2q0.1-1.3 0-2.6 0-1.3-0.1-2.6-0.2-1.4-0.4-2.7-0.2-1.3-0.5-2.5-0.2-0.6-0.4-1.1-0.2-0.6-0.4-1.1-0.2-0.6-0.4-1.1-0.2-0.5-0.5-1-0.2-0.5-0.4-0.9-0.3-0.5-0.5-0.9-0.3-0.5-0.6-0.9-0.3-0.4-0.6-0.9-0.4-0.6-0.9-1.3-0.5-0.6-1.1-1.2-0.5-0.7-1.1-1.2-0.6-0.6-1.2-1.2-0.4-0.3-0.8-0.6-0.4-0.3-0.9-0.6-0.4-0.4-0.8-0.7-0.4-0.2-0.9-0.5l-0.9-0.6-0.3-0.2q0 0 0.1 0.1 0 0 0.1 0 0 0 0 0 0.1 0.1 0.1 0.1l1 0.5q1.1 0.7 2.2 1.5 1.1 0.8 2.1 1.7 1 1 1.9 2 0.9 1 1.6 2.1 0.7 0.9 1.3 1.8 0.5 1 1 2 0.5 1 0.9 2 0.3 1 0.7 2.1 0.3 1.3 0.5 2.6 0.3 1.3 0.4 2.6 0.1 1.3 0.2 2.7 0 1.3 0 2.6c0 3.9-0.4 7.9 0.1 12.2q0 0.8 0.2 1.6 0.1 0.8 0.3 1.6 0.2 0.8 0.4 1.6 0.3 0.8 0.5 1.5 0.3 0.8 0.7 1.6 0.4 0.7 0.8 1.5 0.5 0.7 1 1.3 0.5 0.7 1.1 1.3 0.3 0.3 0.7 0.6 0.3 0.3 0.7 0.5 0.3 0.3 0.7 0.5 0.3 0.3 0.7 0.5 0.4 0.2 0.8 0.4 0.4 0.1 0.8 0.3 0.4 0.1 0.9 0.3 0.4 0.1 0.8 0.2 0.9 0.2 1.8 0.3 0.9 0.1 1.8 0.1 0.9 0 1.8-0.1 0.9-0.1 1.8-0.3c4.9-0.8 9.1-3.2 13.2-5.5 4-2.3 8-4.5 12.3-5.5q0.7-0.1 1.5-0.3 0.8-0.1 1.6-0.2 0.8 0 1.6 0 0.8 0 1.5 0 0.4 0 0.8 0.1 0.4 0 0.7 0.1 0.4 0.1 0.8 0.1 0.4 0.1 0.7 0.2 0.4 0.1 0.7 0.2 0.4 0.1 0.7 0.3 0.4 0.1 0.7 0.2 0.3 0.2 0.7 0.4c3.5 1.7 5.1 5.4 8.1 6.6q0.5 0.2 1.1 0.3 0.5 0.1 1.1 0.1 0.6-0.1 1.1-0.3 0.5-0.2 1-0.5 0.4-0.2 0.8-0.6 0.4-0.3 0.7-0.7 0.3-0.4 0.6-0.8 0.3-0.4 0.5-0.9 0.1-0.4 0.3-0.8 0.1-0.5 0.1-0.9 0.1-0.4 0.1-0.9 0-0.4-0.1-0.8-0.1-0.4-0.1-0.8-0.1-0.3-0.2-0.7-0.1-0.3-0.3-0.7-0.1-0.3-0.3-0.7-0.2-0.4-0.5-0.9-0.2-0.4-0.5-0.8-0.4-0.5-0.7-0.9-0.3-0.4-0.7-0.7-0.5-0.5-0.8-0.8c-0.1-0.1-0.3-0.3-0.3-0.3z"/>
		<path id="Layer" class="s7" d="m333.4 109.1c0 0 0-0.1-0.1-0.4q0-0.1 0-0.3 0-0.1-0.1-0.3 0-0.1 0-0.3-0.1-0.1-0.1-0.2-0.1-0.6-0.3-1.1-0.3-0.5-0.5-1-0.3-0.4-0.6-0.9-0.3-0.4-0.7-0.8-0.6-0.7-1.2-1.3-0.7-0.5-1.4-1-0.7-0.5-1.5-0.9-0.8-0.5-1.6-0.8c-2.4-1.1-5.5-1.7-8.9-2.3-3.4-0.6-7.2-1.4-10.6-3.7-1.9-1.3-3.6-3-4.7-5-1.2-1.9-2-4.1-2.2-6.4-0.2-2.3 0-4.7 0.8-6.8 0.7-2.2 2-4.2 3.6-5.9 3.5-3.6 8.5-5.4 12.6-8.6q0.4-0.3 0.7-0.6 0.4-0.4 0.7-0.7 0.4-0.4 0.7-0.7 0.3-0.4 0.6-0.8 0.3-0.4 0.5-0.8 0.3-0.4 0.5-0.8 0.2-0.4 0.3-0.9 0.2-0.4 0.3-0.9c0.7-2.4 0.7-5 0.9-7.5q0-0.4 0.1-0.9 0.1-0.4 0.1-0.9 0.1-0.5 0.2-0.9 0.1-0.5 0.3-0.9 0.1-0.5 0.3-0.9 0.2-0.4 0.4-0.8 0.2-0.4 0.5-0.8 0.3-0.4 0.6-0.7 0.6-0.7 1.3-1.2 0.7-0.5 1.5-1 0.8-0.4 1.6-0.7 0.8-0.3 1.7-0.5c2.2-0.7 4.4-1.1 6.5-1.7q0.7-0.2 1.4-0.4 0.8-0.3 1.5-0.6 0.7-0.3 1.4-0.7 0.7-0.4 1.3-0.8 0.6-0.4 1.2-0.9 0.5-0.5 1-1 0.6-0.5 1.1-1 0.5-0.5 0.9-1.1 0.4-0.5 0.9-1 0.4-0.5 0.8-1.1 0.4-0.5 0.8-1 0.3-0.6 0.7-1.1c1.9-2.9 3.5-5.6 5.2-7.7q0.6-0.7 1.2-1.4 0.5-0.7 1.2-1.3 0.6-0.6 1.3-1.2 0.6-0.5 1.3-1.1 0.5-0.3 1-0.6 0.4-0.3 0.9-0.5 0.5-0.3 1-0.5 0.6-0.2 1.1-0.4 0.2-0.1 0.3-0.1 0.2-0.1 0.4-0.1 0.2-0.1 0.4-0.1 0.2 0 0.4-0.1c0.1 0-0.5 0.2-1.5 0.5q-0.5 0.2-1 0.4-0.5 0.2-1 0.5-0.5 0.2-1 0.5-0.4 0.3-0.9 0.7-0.7 0.5-1.3 1.1-0.7 0.6-1.3 1.2-0.6 0.6-1.2 1.3-0.5 0.6-1.1 1.3c-1.7 2.2-3.2 4.8-5.1 7.7q-0.4 0.6-0.7 1.2-0.4 0.5-0.8 1.1-0.4 0.5-0.8 1.1-0.5 0.5-0.9 1-0.4 0.6-0.9 1.1-0.5 0.6-1.1 1.1-0.5 0.5-1.1 1-0.6 0.4-1.2 0.9-0.6 0.4-1.3 0.8-0.7 0.4-1.4 0.7-0.7 0.3-1.5 0.6-0.7 0.2-1.5 0.4c-2.1 0.6-4.3 1-6.4 1.7q-0.9 0.2-1.7 0.5-0.8 0.3-1.5 0.7-0.8 0.4-1.5 0.9-0.7 0.6-1.3 1.2-0.2 0.3-0.5 0.6-0.3 0.4-0.5 0.8-0.2 0.4-0.4 0.8-0.1 0.4-0.3 0.8-0.1 0.4-0.2 0.9-0.1 0.4-0.2 0.9-0.1 0.4-0.1 0.9-0.1 0.4-0.1 0.9c-0.3 2.4-0.2 5-0.9 7.5q-0.1 0.5-0.3 0.9-0.2 0.5-0.4 1-0.2 0.4-0.5 0.8-0.2 0.4-0.5 0.8-0.3 0.4-0.6 0.8-0.4 0.4-0.7 0.7-0.4 0.4-0.7 0.7-0.4 0.4-0.8 0.7-0.8 0.5-1.6 1.1-0.8 0.6-1.6 1.1-0.8 0.5-1.7 1-0.8 0.5-1.7 1-0.8 0.4-1.6 0.9-0.7 0.5-1.5 1.1-0.7 0.5-1.5 1.1-0.7 0.6-1.4 1.3c-1.5 1.6-2.7 3.5-3.4 5.7-0.8 2.1-1 4.3-0.8 6.6 0.2 2.2 0.9 4.4 2.1 6.3 1.1 1.9 2.7 3.6 4.6 4.9 3.3 2.2 7.1 2.9 10.4 3.6 3.4 0.7 6.5 1.2 9 2.4q0.8 0.4 1.6 0.8 0.8 0.4 1.5 0.9 0.7 0.6 1.4 1.1 0.6 0.6 1.2 1.3 0.4 0.4 0.7 0.9 0.3 0.4 0.6 0.9 0.2 0.5 0.4 1 0.2 0.6 0.4 1.1 0 0.1 0 0.3 0.1 0.1 0.1 0.3 0 0.1 0 0.2 0 0.2 0.1 0.3c-0.1 0.4-0.1 0.5-0.1 0.5z"/>
		<path id="Layer" class="s6" d="m401.8 32.2q-0.1-0.1-0.2-0.1-0.1 0-0.2 0-0.1 0-0.1-0.1-0.1 0-0.2 0-0.2-0.1-0.4-0.2-0.3 0-0.5-0.1-0.2-0.1-0.4-0.2-0.2-0.1-0.4-0.2-1.4-0.7-2.7-1.5-1.3-0.8-2.4-1.8-1.2-1-2.2-2.2-1-1.1-1.9-2.4-0.1-0.2-0.2-0.4-0.1-0.2-0.2-0.4-0.2-0.2-0.3-0.4-0.1-0.2-0.2-0.4 0 0-0.1-0.1 0-0.1-0.1-0.2 0-0.1 0-0.1 0-0.1-0.1-0.2c0.1 0 0.6 0.8 1.5 2q0.9 1.2 1.9 2.4 1 1.1 2.2 2 1.1 1 2.4 1.9 1.2 0.8 2.5 1.5c1.4 0.7 2.3 1.1 2.3 1.2z"/>
		<path id="Layer" class="s6" d="m430.2 90.6c0 0-0.5-0.1-1.5-0.3q-0.5-0.1-1-0.2-0.5-0.1-1.1-0.2-0.5 0-1-0.1-0.5 0-1.1 0-0.7-0.1-1.5-0.1-0.8 0-1.6 0.1-0.7 0-1.5 0-0.8 0.1-1.6 0.1c-2.3 0.2-4.9 0.4-7.6 0.4q-1 0-2-0.1-0.9-0.1-1.9-0.3-0.9-0.2-1.9-0.4-0.9-0.3-1.8-0.6-0.7-0.3-1.4-0.7-0.7-0.4-1.3-0.9-0.7-0.5-1.3-1-0.5-0.5-1.1-1.1-0.3-0.5-0.6-0.9-0.3-0.4-0.5-0.9-0.3-0.5-0.5-1-0.2-0.5-0.3-1 0-0.1-0.1-0.3 0-0.1 0-0.3 0-0.1-0.1-0.3 0-0.1 0-0.2 0-0.1 0-0.1 0-0.1 0-0.1 0-0.1 0-0.1 0-0.1 0-0.1c0.1 0 0.1 0.5 0.4 1.5q0.1 0.5 0.3 0.9 0.2 0.5 0.5 1 0.2 0.4 0.6 0.8 0.3 0.5 0.6 0.9 0.5 0.5 1.1 1 0.6 0.6 1.2 1 0.6 0.4 1.3 0.8 0.7 0.4 1.4 0.7 0.9 0.3 1.8 0.6 0.9 0.2 1.8 0.4 1 0.2 1.9 0.3 0.9 0 1.9 0c2.7 0.1 5.3-0.1 7.6-0.3q0.8 0 1.6-0.1 0.7 0 1.5 0 0.8 0 1.6 0 0.8 0 1.6 0 0.5 0.1 1 0.1 0.6 0.1 1.1 0.2 0.5 0.1 1 0.2 0.5 0.1 1.1 0.2 0.1 0 0.2 0.1 0.2 0 0.3 0.1 0.1 0 0.3 0.1 0.1 0 0.2 0.1 0.1 0 0.1 0 0.1 0 0.1 0 0.1 0 0.1 0.1 0.1 0 0.1 0z"/>
		<path id="Layer" class="s6" d="m480.6 129.6c0 0 0 0-0.2 0.1q-0.1 0-0.2 0.1-0.1 0-0.2 0.1-0.1 0-0.2 0-0.1 0-0.2 0.1-0.3 0-0.7 0.1-0.4 0-0.8 0-0.4 0-0.8-0.1-0.4-0.1-0.7-0.2-0.6-0.2-1.2-0.4-0.5-0.3-1.1-0.6-0.5-0.3-0.9-0.7-0.5-0.4-0.9-0.9-0.6-0.6-1.1-1.2-0.4-0.7-0.9-1.4-0.4-0.7-0.7-1.4-0.4-0.7-0.6-1.5c-1-2.2-1.8-4.7-3.3-7q-0.3-0.5-0.6-0.9-0.3-0.5-0.6-0.9-0.4-0.4-0.7-0.8-0.4-0.4-0.8-0.8-0.4-0.4-0.9-0.7-0.4-0.4-0.8-0.7-0.5-0.4-1-0.7-0.4-0.3-0.9-0.6c-5.4-3.3-12.5-4.6-19.7-4.2-7.3 0.5-14.1 1.8-20.4 2.3q-2.1 0.2-4.2 0.2-2.1 0-4.2-0.2-2.1-0.2-4.1-0.7-2.1-0.4-4.1-1-1.3-0.5-2.6-1.1-1.3-0.6-2.5-1.4-1.2-0.7-2.3-1.6-1.1-0.9-2.1-1.9-0.2-0.2-0.3-0.4-0.2-0.1-0.3-0.3-0.2-0.2-0.3-0.4-0.1-0.1-0.3-0.3-0.1-0.1-0.2-0.3-0.1-0.1-0.2-0.2 0-0.2-0.1-0.3-0.1-0.1-0.2-0.3-0.3-0.4-0.4-0.7 0 0-0.1 0 0 0 0-0.1 0 0 0 0 0-0.1 0-0.1c-0.1 0 0 0.1 0.1 0.2l0.5 0.7q0.1 0.1 0.1 0.2 0.1 0.2 0.2 0.3 0.1 0.1 0.2 0.3 0.1 0.1 0.2 0.2 0.2 0.2 0.3 0.3 0.2 0.2 0.3 0.4 0.1 0.2 0.3 0.3 0.1 0.2 0.3 0.3 1 1 2.1 1.9 1.1 0.9 2.3 1.6 1.2 0.7 2.5 1.3 1.3 0.6 2.6 1 2 0.7 4 1.1 2.1 0.4 4.2 0.6 2 0.2 4.1 0.2 2.1 0 4.2-0.3c6.2-0.4 13.1-1.9 20.4-2.2 7.3-0.4 14.4 0.9 19.8 4.2q0.5 0.3 1 0.6 0.5 0.4 1 0.7 0.4 0.4 0.9 0.8 0.4 0.3 0.8 0.7 0.4 0.4 0.8 0.8 0.4 0.4 0.7 0.9 0.4 0.4 0.7 0.8 0.3 0.5 0.6 1c1.5 2.4 2.3 4.9 3.2 7.1q0.3 0.7 0.6 1.5 0.3 0.7 0.7 1.4 0.4 0.7 0.9 1.3 0.5 0.7 1 1.3 0.4 0.4 0.9 0.8 0.4 0.4 0.9 0.7 0.5 0.3 1.1 0.6 0.5 0.3 1.1 0.4 0.3 0.2 0.7 0.2 0.4 0.1 0.8 0.1 0.3 0.1 0.7 0 0.4 0 0.8 0c0.7-0.2 1-0.3 1-0.3z"/>
		<path id="Layer" class="s8" d="m380.8 28.1c11 0.3 16.4 14.5 15.6 25.4-0.8 12.2-2.3 27-4.9 35.7-5.2 17.7-19.4 18.3-19.4 18.2 0-0.1-0.8 5.9-3.1 22-1.5 9.6-2.5 14.9-13.5 13.7-10.9-1.2-24.1-22.9-22.9-33.1l6.9-72.2q0.1-1.2 0.7-2.2 0.6-1.1 1.5-1.9 0.9-0.8 2-1.2 1.1-0.4 2.3-0.4z"/>
		<path id="Layer" class="s7" d="m391.6 63.1q0 0.4-0.2 0.9-0.3 0.4-0.6 0.6-0.4 0.3-0.8 0.4-0.5 0.2-0.9 0.1-0.5 0-0.9-0.2-0.4-0.2-0.7-0.5-0.3-0.4-0.4-0.8-0.2-0.4-0.1-0.9 0-0.4 0.2-0.8 0.3-0.4 0.6-0.7 0.4-0.3 0.8-0.4 0.5-0.2 0.9-0.1 0.5 0 0.9 0.2 0.4 0.2 0.7 0.5 0.3 0.4 0.4 0.8 0.2 0.4 0.1 0.9z"/>
		<path id="Layer" class="s7" d="m392.6 58.4c-0.2 0.3-2.1-0.8-4.6-0.7-2.5 0.2-4.3 1.6-4.5 1.3-0.2-0.1 0.1-0.7 0.8-1.3q0.4-0.3 0.8-0.6 0.4-0.2 0.9-0.4 0.5-0.2 0.9-0.3 0.5-0.1 1-0.1 0.5-0.1 1 0 0.5 0 0.9 0.1 0.5 0.2 1 0.4 0.4 0.1 0.8 0.4c0.9 0.5 1.2 1.1 1 1.2z"/>
		<path id="Layer" class="s7" d="m369.6 64.4c-0.3 0.3-2-1.1-4.5-1.1-2.5-0.1-4.4 1.1-4.7 0.8-0.1-0.1 0.2-0.7 1-1.2q0.5-0.3 0.9-0.5 0.5-0.2 0.9-0.3 0.5-0.2 1-0.2 0.5-0.1 1-0.1 0.5 0.1 0.9 0.1 0.5 0.1 1 0.3 0.4 0.2 0.9 0.4 0.4 0.2 0.8 0.5c0.7 0.6 0.9 1.2 0.8 1.3z"/>
		<path id="Layer" class="s7" d="m374.3 77.7c0-0.2 1.6-0.2 4.1-0.2 0.7 0 1.3 0 1.5-0.5q0-0.2 0-0.5 0-0.2 0-0.5 0-0.2-0.1-0.5 0-0.2-0.1-0.4-0.6-2.5-1.3-5.2c-1.7-7.2-2.8-13.1-2.5-13.2 0.3-0.1 1.9 5.8 3.6 13q0.6 2.7 1.2 5.1 0.1 0.4 0.1 0.7 0.1 0.3 0.1 0.6 0 0.4-0.1 0.7 0 0.3-0.1 0.6-0.1 0.2-0.3 0.3-0.1 0.1-0.2 0.2-0.2 0.1-0.4 0.2-0.1 0.1-0.3 0.1-0.2 0-0.3 0-0.1 0-0.3 0-0.1 0-0.2 0-0.2 0-0.3 0c-2.6-0.2-4.1-0.4-4.1-0.5z"/>
		<path id="Layer" class="s9" d="m371.6 111.6c-18.3-0.7-24.4-15.2-22.8-13.9q2.5 2 5.3 3.6 2.7 1.6 5.7 2.9 3 1.2 6.1 2 3.1 0.8 6.2 1.2z"/>
		<path id="Layer" class="s7" d="m370 60.1c-0.4 0.6-2.8-0.3-5.7-0.6-3-0.3-5.5-0.1-5.7-0.8-0.1-0.3 0.4-0.8 1.5-1.3q0.5-0.2 1.1-0.3 0.5-0.1 1.1-0.2 0.6 0 1.1 0 0.6 0 1.2 0.1 0.5 0 1.1 0.1 0.5 0.2 1.1 0.4 0.5 0.2 1 0.4 0.5 0.3 1 0.6c0.9 0.7 1.4 1.3 1.2 1.6z"/>
		<path id="Layer" class="s7" d="m392.3 55c-0.5 0.6-2.2 0.1-4.3 0.2-2.1 0.1-3.8 0.6-4.3 0-0.2-0.3 0.1-0.8 0.8-1.4q0.4-0.3 0.8-0.5 0.4-0.2 0.8-0.4 0.4-0.1 0.9-0.2 0.5 0 0.9 0 0.5 0 0.9 0 0.5 0.1 0.9 0.2 0.4 0.1 0.8 0.3 0.5 0.2 0.8 0.4c0.9 0.6 1.1 1.2 1 1.4z"/>
		<path id="Layer" class="s9" d="m368.2 82.2q0.5-0.3 0.9-0.5 0.5-0.2 1-0.3 0.5-0.1 1-0.1 0.5 0 1.1 0.1 0.2 0 0.5 0.1 0.2 0.1 0.5 0.2 0.2 0.1 0.4 0.3 0.2 0.1 0.4 0.3 0.2 0.3 0.3 0.6 0.2 0.3 0.2 0.7 0.1 0.3 0.1 0.6 0.1 0.4 0 0.7 0 0.2 0 0.4 0 0.2 0 0.5-0.1 0.2-0.1 0.4-0.1 0.2-0.1 0.4-0.1 0.2-0.2 0.3-0.1 0.2-0.2 0.4-0.2 0.1-0.3 0.3-0.2 0.1-0.4 0.2-0.2 0.1-0.4 0.1-0.2 0-0.4 0.1-0.2 0-0.5-0.1-0.2 0-0.4 0-0.3-0.1-0.7-0.2-0.3 0-0.7-0.2-0.3-0.1-0.6-0.2-0.3-0.2-0.6-0.4-0.3-0.2-0.6-0.4-0.2-0.3-0.4-0.6-0.2-0.3-0.3-0.6-0.2-0.4-0.2-0.7 0-0.4 0-0.7 0.1-0.4 0.3-0.7 0.2-0.3 0.4-0.5 0.3-0.2 0.6-0.4"/>
		<path id="Layer" class="s7" d="m375 87.7c-0.2 0.1-0.5-0.5-1.1-1.2q-0.6-0.7-1.3-1.4-0.7-0.6-1.5-1-0.8-0.5-1.7-0.8-0.8-0.3-1.7-0.4c-1-0.1-1.6-0.1-1.7-0.3 0-0.2 0.6-0.5 1.7-0.6q0.5 0 1 0 0.6 0 1.1 0.1 0.5 0.2 1 0.4 0.5 0.1 1 0.4 0.5 0.3 0.9 0.6 0.4 0.3 0.8 0.7 0.3 0.4 0.6 0.9 0.3 0.4 0.6 0.9c0.4 1 0.4 1.7 0.3 1.7z"/>
		<path id="Layer" class="s7" d="m331.4 105.1c-6-1.6-10-8.7-8.1-14.7 1.2-3.9 4.4-6.9 7.6-9.4q1.2-1.1 2.5-2.1 1.4-1 2.7-1.9 1.4-1 2.7-1.9 1.4-0.9 2.8-1.7c1-0.6 2.3-1.2 3.2-0.5q0.2 0.2 0.3 0.5 0.2 0.2 0.3 0.5 0.1 0.3 0.2 0.6 0 0.3 0 0.6c0.5 6 0.6 12.3-1.4 18-2.1 5.6-6.6 10.8-12.6 11.9"/>
		<path id="Layer" class="s8" d="m458 137.1l-52.7 14.3 6.5-37.1 29.2-6.2-17-41.6-1.3-1c0 0-12.5-4.1-17.3-5.3-4.1-1.1-8-1.8-11.1-2.3-1.6-0.2-2.9-2.8-1.7-4 1-1 2.6-1.4 4.4-1.6q1.2-0.1 2.5-0.1 1.2-0.1 2.4 0 1.2-0.1 2.4 0 1.2 0 2.4 0.1c2.1 0.2 7-3.1 3.5-5.7q-0.3 0.2-0.5 0.4-0.3 0.2-0.5 0.4-0.3 0.2-0.6 0.4-0.2 0.2-0.5 0.4c-1.5 1.1-4.7-1.6-3.5-3.4l0.1-0.1c-0.9 0.9-1.8 1.8-2.7 2.5q-0.4 0.4-0.9 0.6-0.5 0.2-1 0.4-0.6 0.1-1.1 0.1-0.6 0-1.1-0.1c-2.2-0.7 0.1-4.7 0-4.5q-0.2 0.2-0.5 0.5-0.3 0.2-0.5 0.4-0.3 0.2-0.6 0.4-0.3 0.2-0.6 0.4-0.4 0.2-0.8 0.4-0.3 0.1-0.7 0.3-0.4 0.2-0.8 0.3-0.4 0.2-0.9 0.3c-2.6 1-4.6-1.2-3.5-2.8 2.1-3.4 10.9-10 12.3-10.5 1.8-0.7 3.8 0.6 4.8 1.6q0.2-0.2 0.4-0.3 0.3-0.2 0.5-0.2 0.3-0.1 0.6-0.2 0.2 0 0.5 0c3.2 0.2 4.1 1.8 4.3 1.5q0.4-0.5 0.8-0.9 0.4-0.3 0.9-0.6 0.5-0.2 1.1-0.4 0.5-0.1 1.1-0.1 0.5 0 0.9 0.1 0.4 0.1 0.8 0.3 0.4 0.2 0.7 0.6 0.3 0.3 0.4 0.7c0 0 4.2-3.6 8.4 1 2.6 2.8 5.1 6.1 5.1 6.1l7.7 15.9 28 45.2c7.2 11.3 1.6 27.1-10.3 33.4z"/>
		<path id="Layer" class="s9" d="m422.8 65.4q-0.1 0-0.2 0-0.1 0-0.2-0.1-0.1 0-0.1 0-0.1 0-0.2-0.1l-1.9-0.5-6.9-2.1-4.8-1.4c-1.7-0.5-3.6-1.1-5.5-1.6q-0.8-0.2-1.6-0.4-0.7-0.2-1.5-0.3-0.8-0.2-1.6-0.3-0.7-0.2-1.5-0.3-0.4 0-0.9 0-0.4-0.1-0.8-0.1-0.4-0.1-0.8-0.2-0.5-0.1-0.9-0.3-0.1 0-0.2-0.1-0.1 0-0.2-0.1-0.1-0.1-0.2-0.2 0 0-0.1-0.1-0.1-0.1-0.1-0.1 0-0.1-0.1-0.2 0 0 0-0.1-0.1 0-0.1-0.1v-0.5q-0.1-0.2-0.1-0.4 0-0.2 0-0.5 0-0.2 0.1-0.4 0-0.2 0.1-0.5 0.1-0.2 0.2-0.4 0.1-0.2 0.2-0.4 0.2-0.2 0.4-0.3 0.2-0.2 0.4-0.3 0.2-0.1 0.4-0.2 0.2-0.1 0.4-0.1 0.2-0.1 0.4-0.2 0.2-0.1 0.4-0.1 0.4-0.1 0.9-0.2 0.4-0.1 0.8-0.2 0.4 0 0.9 0 0.4-0.1 0.8 0c2.3 0 4.4 0.3 6.4 0.2q0.3 0 0.7 0 0.4 0 0.7-0.1 0.4 0 0.7-0.1 0.4 0 0.8-0.1c0.9-0.1 1.8-0.4 2.7-0.6q0.6-0.2 1.2-0.3 0.6-0.2 1.2-0.2 0.7-0.1 1.3-0.2 0.6 0 1.3 0.1 0.5 0 1 0.1 0.5 0.1 1 0.2 0.5 0.1 1 0.3 0.5 0.2 1 0.4 0.3 0.1 0.7 0.3 0.4 0.2 0.7 0.3 0.4 0.2 0.7 0.4 0.3 0.2 0.7 0.4 1.1 0.6 1.7 1 0.1 0 0.1 0.1 0.1 0 0.2 0 0.1 0.1 0.1 0.2 0.1 0 0.2 0.1-0.1-0.1-0.2-0.1-0.1 0-0.2-0.1 0 0-0.1-0.1-0.1 0-0.2-0.1l-1.7-0.9q-0.3-0.2-0.7-0.3-0.3-0.2-0.7-0.4-0.3-0.1-0.7-0.3-0.3-0.1-0.7-0.3-0.5-0.2-0.9-0.3-0.5-0.2-1-0.3-0.5-0.1-1-0.2-0.5-0.1-1-0.1-0.7 0-1.3 0-0.6 0-1.2 0.1-0.6 0.1-1.2 0.2-0.6 0.2-1.2 0.3c-0.9 0.3-1.8 0.5-2.7 0.7q-0.4 0.1-0.8 0.1-0.3 0.1-0.7 0.1-0.4 0.1-0.7 0.1-0.4 0-0.8 0c-2 0.1-4.2-0.2-6.3-0.2q-0.4 0-0.8 0-0.5 0-0.9 0.1-0.4 0-0.8 0.1-0.4 0.1-0.8 0.2c-1 0.3-2.2 0.7-2.5 1.8q-0.1 0.2-0.1 0.4-0.1 0.2-0.1 0.4 0 0.2 0 0.4 0 0.2 0.1 0.4v0.4q0 0 0 0.1 0.1 0 0.1 0 0 0.1 0 0.1 0.1 0 0.1 0.1 0 0 0.1 0.1 0.1 0.1 0.2 0.1 0 0.1 0.1 0.1 0.1 0.1 0.2 0.1 0.4 0.2 0.8 0.3 0.4 0.1 0.8 0.1 0.4 0.1 0.8 0.1 0.4 0.1 0.8 0.1 0.8 0.1 1.6 0.3 0.8 0.1 1.5 0.3 0.8 0.1 1.6 0.3 0.8 0.2 1.5 0.4c2 0.5 3.8 1.1 5.5 1.6l4.8 1.5 6.9 2.2 1.9 0.7q0.1 0 0.1 0 0.1 0 0.2 0.1 0 0 0.1 0 0.1 0.1 0.2 0.1z"/>
		<path id="Layer" class="s9" d="m401.1 33.4c0.1 0.1-1.3 0.9-3.3 2.4q-0.4 0.4-0.9 0.7-0.4 0.4-0.8 0.7-0.4 0.4-0.9 0.8-0.4 0.4-0.8 0.7c-1.2 1.2-2.4 2.6-3.9 3.9q-0.3 0.2-0.5 0.4-0.3 0.2-0.5 0.5-0.2 0.3-0.3 0.6-0.2 0.3-0.3 0.6-0.1 0.3 0 0.6 0 0.3 0.2 0.5 0.1 0.3 0.3 0.4 0.3 0.2 0.5 0.3 0.3 0.1 0.6 0.1 0.3 0.1 0.6 0.1 0.3 0 0.5-0.1 0.3 0 0.6 0 0.3-0.1 0.5-0.1 0.2-0.1 0.5-0.2 0.2-0.1 0.5-0.1 0.2-0.1 0.5-0.2 0.4-0.2 0.9-0.4 0.4-0.3 0.9-0.5 0.4-0.3 0.8-0.6 0.4-0.3 0.8-0.6 0 0.1-0.1 0.2-0.1 0.1-0.2 0.2-0.1 0.1-0.2 0.2-0.1 0.1-0.2 0.2-0.3 0.2-0.6 0.5-0.3 0.2-0.7 0.4-0.3 0.2-0.6 0.4-0.4 0.1-0.7 0.3-0.2 0.1-0.5 0.2-0.2 0.1-0.5 0.2-0.2 0-0.5 0.1-0.3 0.1-0.5 0.1-0.3 0.1-0.6 0.1-0.3 0.1-0.6 0.1-0.4 0-0.7-0.1-0.3 0-0.6-0.1-0.3-0.1-0.6-0.3-0.3-0.2-0.5-0.6-0.2-0.3-0.3-0.7 0-0.3 0.1-0.7 0.1-0.4 0.3-0.7 0.1-0.3 0.4-0.6 0.2-0.3 0.4-0.6 0.3-0.2 0.6-0.5c1.5-1.2 2.7-2.5 4-3.7q0.4-0.4 0.8-0.8 0.4-0.4 0.8-0.7 0.4-0.4 0.9-0.7 0.4-0.4 0.9-0.7c1-0.7 1.9-1.3 2.6-1.6q0.1-0.1 0.2-0.2 0.1-0.1 0.2-0.1 0.2-0.1 0.3-0.1 0.1-0.1 0.2-0.2z"/>
		<path id="Layer" class="s9" d="m411.8 37q-0.1 0.1-0.2 0.3-0.1 0.1-0.2 0.3-0.2 0.1-0.3 0.3-0.1 0.1-0.3 0.3l-2.8 3.1-4.2 4.5q-0.3 0.4-0.7 0.7-0.3 0.3-0.7 0.6-0.3 0.3-0.7 0.5-0.4 0.3-0.9 0.5-0.2 0.1-0.4 0.2-0.3 0.1-0.5 0.1-0.3 0.1-0.5 0.1-0.3 0.1-0.5 0.1-0.3 0-0.6-0.1-0.2 0-0.5-0.1-0.2-0.1-0.5-0.3-0.2-0.1-0.4-0.3-0.1-0.1-0.2-0.3-0.1-0.1-0.1-0.2-0.1-0.2-0.1-0.3 0-0.1-0.1-0.3 0-0.1 0-0.3 0-0.1 0.1-0.2 0-0.2 0-0.3 0-0.2 0.1-0.3 0-0.2 0.1-0.5 0.1-0.2 0.2-0.5 0.1-0.2 0.3-0.4 0.1-0.2 0.3-0.5 2.2-2.4 4.1-4.5c1.3-1.3 2.6-2.4 3.6-3.4q0.1-0.2 0.3-0.3 0.2-0.2 0.4-0.3 0.1-0.2 0.3-0.3 0.2-0.1 0.4-0.3 0.2 0 0.4-0.1 0.1 0 0.3-0.1 0.2 0 0.4 0 0.1-0.1 0.3-0.1c0.8 0 1.2 0 1.2 0.1q-0.2 0-0.3 0-0.2 0-0.3 0-0.1 0-0.3 0-0.1 0.1-0.3 0.1-0.1 0-0.3 0-0.2 0.1-0.3 0.1-0.2 0-0.4 0.1-0.1 0.1-0.3 0.1-0.2 0.2-0.3 0.3-0.2 0.1-0.4 0.3-0.2 0.1-0.3 0.3-0.2 0.1-0.3 0.3c-1 1-2.2 2.1-3.5 3.5-1.2 1.4-2.6 2.9-4.1 4.5q-0.1 0.2-0.3 0.4-0.1 0.3-0.2 0.5-0.1 0.2-0.2 0.4-0.1 0.2-0.2 0.5 0 0.1 0 0.2 0 0.1-0.1 0.2 0 0.1 0 0.3 0 0.1 0 0.2 0 0.1 0.1 0.2 0 0.1 0.1 0.2 0 0.1 0.1 0.2 0 0.1 0.1 0.2 0.2 0.2 0.4 0.3 0.1 0.1 0.4 0.2 0.2 0.1 0.4 0.1 0.2 0.1 0.4 0.1 0.3 0 0.5-0.1 0.2 0 0.4-0.1 0.3 0 0.5-0.1 0.2-0.1 0.4-0.2 0.4-0.2 0.8-0.4 0.4-0.3 0.7-0.5 0.4-0.3 0.7-0.6 0.3-0.3 0.7-0.6l4.2-4.5 3-3 0.8-0.8q0.3-0.3 0.3-0.3z"/>
		<path id="Layer" class="s9" d="m424.9 41.1c0 0 0 0.3-0.3 0.5q-0.3 0.2-0.7 0.3-0.3 0.1-0.7 0.1-0.4-0.1-0.7-0.3-0.3-0.2-0.5-0.5c-0.2-0.4-0.2-0.6-0.2-0.6 0.1 0 0.2 0.1 0.4 0.4q0.1 0.1 0.2 0.2 0.2 0.1 0.3 0.1 0.1 0.1 0.3 0.2 0.1 0 0.3 0 0.1 0.1 0.3 0.1 0.1 0 0.3-0.1 0.1 0 0.3 0 0.1-0.1 0.2-0.2c0.3-0.1 0.5-0.2 0.5-0.2z"/>
		<path id="Layer" class="s9" d="m426 45c-0.1 0.1-0.8-0.5-1.3-1.5q-0.2-0.2-0.3-0.4-0.1-0.2-0.2-0.5-0.1-0.2-0.2-0.5 0-0.2 0-0.5c0.1 0 0.5 0.8 1.1 1.7q0.1 0.2 0.2 0.4 0.2 0.2 0.3 0.4 0.1 0.3 0.2 0.5 0.1 0.2 0.2 0.4z"/>
		<path id="Layer" class="s9" d="m427.9 60.4q-0.2-0.2-0.3-0.5-0.1-0.2-0.2-0.4-0.1-0.2-0.2-0.4-0.1-0.3-0.1-0.5-0.2-0.6-0.4-1.2-0.1-0.5-0.2-1.1-0.1-0.6-0.1-1.2-0.1-0.6 0-1.2 0-0.6 0-1.2 0.1-0.6 0.2-1.2 0.1-0.6 0.3-1.1 0.1-0.6 0.3-1.2 0.1-0.2 0.2-0.4 0-0.3 0.2-0.5 0.1-0.2 0.2-0.4 0.1-0.2 0.3-0.4-0.3 0.7-0.5 1.5-0.2 0.8-0.4 1.6-0.1 0.8-0.2 1.7-0.1 0.8-0.2 1.6 0 0.8 0.1 1.6 0.1 0.9 0.2 1.7 0.1 0.8 0.3 1.6 0.2 0.8 0.5 1.6z"/>
		<path id="Layer" class="s9" d="m450.9 119.8c-0.1 0-0.2-1-0.6-2.4q-0.1-0.3-0.2-0.6-0.1-0.3-0.3-0.6-0.1-0.2-0.2-0.5-0.2-0.3-0.3-0.6-0.4-0.7-0.9-1.3-0.4-0.7-0.9-1.3-0.5-0.6-1.1-1.1-0.6-0.5-1.2-1-0.3-0.2-0.6-0.3-0.2-0.2-0.5-0.4-0.3-0.1-0.6-0.3-0.2-0.2-0.5-0.3c-1.4-0.6-2.3-0.8-2.2-0.9q0 0 0.1 0 0.1 0 0.2 0 0.1 0 0.2 0 0 0.1 0.1 0.1 0.2 0 0.4 0.1 0.3 0 0.5 0.1 0.2 0.1 0.4 0.2 0.2 0 0.4 0.1 0.3 0.1 0.6 0.3 0.3 0.1 0.6 0.3 0.3 0.1 0.6 0.3 0.3 0.2 0.5 0.4 0.7 0.4 1.3 1 0.6 0.5 1.1 1.1 0.6 0.6 1 1.3 0.5 0.7 0.9 1.4 0.1 0.3 0.2 0.6 0.2 0.3 0.3 0.6 0.1 0.3 0.2 0.6 0.1 0.3 0.2 0.7 0.1 0.2 0.1 0.4 0.1 0.2 0.1 0.4 0 0.2 0.1 0.4 0 0.3 0 0.5 0 0.1 0 0.1 0 0.1 0 0.2 0 0.1 0 0.2 0 0.1 0 0.2z"/>
		<path id="Layer" class="s8" d="m359.4 214.8c-2.2 2.9-3.4 0.6-3.4 0.6 0 0 4 10.5 0.5 12.1-3.5 1.5-4.7-0.6-4.7-0.6 0 0-2.7 5.1-6.6 1.3q-0.3-0.3-0.5-0.6-0.3-0.4-0.5-0.8-0.2-0.3-0.4-0.7-0.2-0.4-0.4-0.8c0 0-4.5 6.5-7.6 0.5-1.7-3.4-1.7-3.6-1.7-3.6 0 0-9.6 4.2-15.2 5.7q-1.8 0.5-3.6 0.8-1.9 0.4-3.7 0.7-1.9 0.3-3.8 0.5-1.8 0.2-3.7 0.3l-65-33.4c-2.2-1.1-4.3-2.5-6.1-4.2-1.8-1.7-3.3-3.6-4.5-5.7-1.3-2.2-2.2-4.4-2.8-6.8-0.6-2.4-0.8-4.9-0.7-7.3q0.1-1.8 0.4-3.5 0.4-1.6 1.1-3.2 0.6-1.6 1.5-3.1 1-1.4 2.1-2.7l25.7-26.5 22 22.9-15.7 16.3 55.2 41.1 10.4-4.9c0 0 8.3-5.5 9.6-4.8 0 0 4.7-2.9 8.6-1.2q0.8-0.4 1.7-0.6 0.8-0.3 1.8-0.4 0.9-0.1 1.8-0.1 0.9 0 1.8 0.2c3.7 0.8 8.7 9.6 6.4 12.5z"/>
		<path id="Layer" class="s9" d="m345.2 203.7q0.1 0 0.1-0.1 0.1 0 0.2-0.1 0.1 0 0.2 0 0.1 0 0.2-0.1 0.3 0 0.5 0 0.3-0.1 0.5-0.1 0.3 0 0.6 0.1 0.2 0 0.5 0.1 0.4 0.1 0.7 0.3 0.4 0.1 0.7 0.3 0.4 0.2 0.7 0.4 0.3 0.2 0.7 0.4 0.1 0.2 0.3 0.3 0.2 0.1 0.4 0.3 0.1 0.2 0.3 0.3 0.2 0.2 0.3 0.3 0.2 0.2 0.3 0.4 0.2 0.3 0.3 0.5 0.2 0.2 0.3 0.4 0.1 0.2 0.2 0.5 0.4 0.7 0.7 1.5 0.4 0.8 0.7 1.6 0.3 0.8 0.6 1.6 0.3 0.8 0.5 1.6 0.4 1.3 0.6 2 0 0.1 0 0.2 0 0.1 0.1 0.2 0 0.1 0 0.2 0 0.1 0 0.2c-0.1 0-0.4-1.1-1-2.7q-0.3-0.8-0.6-1.6-0.3-0.8-0.6-1.6-0.3-0.7-0.7-1.5-0.3-0.8-0.7-1.5-0.1-0.3-0.2-0.5-0.1-0.2-0.2-0.4-0.2-0.2-0.3-0.4-0.2-0.1-0.3-0.3-0.2-0.2-0.3-0.3-0.2-0.2-0.3-0.3-0.2-0.2-0.4-0.3-0.1-0.2-0.3-0.3-0.3-0.3-0.6-0.5-0.3-0.2-0.6-0.4-0.3-0.1-0.7-0.3-0.3-0.1-0.7-0.3-0.3-0.1-0.6-0.1-0.4-0.1-0.7-0.1-0.4 0-0.7 0-0.4 0.1-0.7 0.1z"/>
		<path id="Layer" class="s9" d="m351.8 227q-0.1-0.2-0.1-0.3-0.1-0.1-0.2-0.2 0-0.1-0.1-0.2 0-0.2-0.1-0.3l-1.2-2.6c-1-2.2-2.5-5.3-3.9-8.7q-0.2-0.6-0.5-1.2-0.2-0.6-0.5-1.2-0.3-0.6-0.6-1.2-0.3-0.6-0.7-1.1-0.3-0.4-0.6-0.8-0.4-0.4-0.8-0.8-0.4-0.3-0.8-0.6-0.5-0.2-0.9-0.5-0.3-0.1-0.7-0.2-0.3-0.1-0.7-0.2-0.3 0-0.7-0.1-0.3 0-0.7 0.1c-0.6 0-1 0.2-1 0.2 0-0.1 0.1-0.1 0.2-0.2q0.1 0 0.2-0.1 0.1 0 0.2 0 0.1-0.1 0.2-0.1 0.1 0 0.2 0 0.4-0.1 0.7-0.1 0.4 0 0.8 0 0.3 0.1 0.7 0.2 0.4 0.1 0.7 0.2 0.5 0.3 1 0.5 0.4 0.3 0.9 0.7 0.4 0.3 0.8 0.7 0.4 0.4 0.7 0.9 0.3 0.5 0.7 1.1 0.3 0.6 0.6 1.2 0.3 0.6 0.5 1.2 0.3 0.6 0.5 1.2c1.4 3.4 2.9 6.5 3.8 8.8 0.5 1.1 0.9 2 1.1 2.6q0 0.2 0.1 0.3 0 0.1 0.1 0.2 0 0.2 0.1 0.3 0 0.1 0 0.3z"/>
		<path id="Layer" class="s9" d="m326.5 213.7q0.1 0 0.2-0.1 0.1-0.1 0.2-0.1 0.1-0.1 0.2-0.2 0.1 0 0.2-0.1l2.5-1.1q0.8-0.4 1.7-0.8 0.3-0.1 0.5-0.2 0.3-0.1 0.6-0.1 0.3-0.1 0.6-0.1 0.2 0 0.5 0 0.3 0.1 0.6 0.1 0.3 0.1 0.6 0.2 0.3 0.1 0.6 0.3 0.3 0.1 0.5 0.3 0.3 0.2 0.5 0.4 0.3 0.3 0.5 0.5 0.2 0.3 0.4 0.5 0.2 0.3 0.4 0.6c0.4 0.8 0.8 1.6 1.2 2.3 0.3 0.8 0.7 1.5 1.1 2.1 0.7 1.4 1.4 2.6 1.9 3.6q0.2 0.3 0.3 0.6 0.2 0.3 0.3 0.6 0.2 0.4 0.3 0.7 0.1 0.3 0.2 0.6 0.1 0.1 0.1 0.3 0.1 0.1 0.1 0.2 0 0.1 0.1 0.2 0 0.2 0 0.3c-0.1 0-0.5-1.3-1.6-3.4-0.6-1-1.3-2.1-2.1-3.5q-0.6-1-1.1-2.1c-0.4-0.7-0.8-1.5-1.2-2.3q-0.2-0.2-0.4-0.5-0.1-0.2-0.3-0.5-0.2-0.2-0.4-0.4-0.3-0.3-0.5-0.5-0.2-0.1-0.5-0.3-0.2-0.1-0.5-0.2-0.3-0.2-0.5-0.2-0.3-0.1-0.6-0.1-0.3-0.1-0.5-0.1-0.3 0.1-0.5 0.1-0.3 0-0.5 0.1-0.3 0-0.5 0.1c-0.7 0.3-1.3 0.6-1.8 0.8l-2.5 1.1q-0.1 0.1-0.2 0.1-0.1 0.1-0.2 0.1-0.2 0-0.3 0.1-0.1 0-0.2 0z"/>
		<path id="Layer" class="s9" d="m327.7 209.2q-0.1 0.1-0.2 0.1-0.1 0.1-0.2 0.1-0.1 0.1-0.2 0.2-0.1 0-0.2 0.1-0.7 0.4-2.1 1.1c-1.8 1-4.3 2.3-7.1 3.7-2.8 1.4-5.4 2.6-7.2 3.5l-2.2 1.1q-0.1 0-0.2 0.1-0.1 0-0.2 0-0.1 0.1-0.2 0.1-0.1 0-0.3 0.1 0.1-0.1 0.2-0.2 0.1 0 0.2-0.1 0.1-0.1 0.2-0.1 0.1-0.1 0.2-0.1 0.8-0.4 2.1-1.2c1.8-0.9 4.4-2.2 7.2-3.6 2.7-1.4 5.3-2.7 7.1-3.6 0.9-0.4 1.7-0.8 2.2-1q0.1-0.1 0.2-0.1 0.1-0.1 0.2-0.1 0.1 0 0.2-0.1 0.2 0 0.3 0z"/>
		<path id="Layer" class="s9" d="m262.8 173.1q-0.8-0.2-1.6-0.2-0.8-0.1-1.6-0.1-0.8-0.1-1.7-0.1-0.8 0.1-1.6 0.1-0.8 0.2-1.6 0.3-0.8 0.2-1.6 0.4-0.8 0.2-1.6 0.5-0.7 0.2-1.5 0.6 0.2-0.2 0.4-0.3 0.2-0.2 0.4-0.3 0.2-0.1 0.5-0.2 0.2-0.1 0.4-0.2 0.6-0.2 1.1-0.4 0.6-0.2 1.2-0.4 0.5-0.1 1.1-0.2 0.6-0.2 1.2-0.2 0.6-0.1 1.1-0.1 0.6 0 1.2 0 0.6 0 1.2 0 0.6 0.1 1.2 0.2 0.2 0 0.4 0.1 0.3 0 0.5 0.1 0.3 0.1 0.5 0.2 0.2 0.1 0.4 0.2z"/>
		<path id="Layer" class="s7" d="m381.2 32.7c-2.8 1.7-6.2 2-9.4 2.7-3.1 0.7-6.5 2-8.2 4.8-1.7 2.9-1.2 6.8-2.8 9.9-2.8 5.3-10.8 5.9-13.6 11.2-2.1 4-0.3 8.8-0.3 13.3q0 0.3 0 0.5 0 0.3-0.1 0.6 0 0.2 0 0.5 0 0.2-0.1 0.5c1.3 4.2 0.3 9-0.8 13.4-1.1 5.1-2.2 10.7 0.4 15.3 3.3 5.7 10.9 7.1 15.7 11.7 1.9 1.9 3.3 4.3 5.6 5.8q1 0.6 2.2 1 1.2 0.4 2.4 0.4 1.2 0 2.4-0.3 1.2-0.3 2.3-0.9c-0.1 3.9-4.5 6.5-8.4 6.1-3.8-0.3-7.1-2.8-10.2-5.2-3-2.4-6.2-4.9-10-5.4-2.6-0.4-5.2 0.1-7.8-0.4-5.3-0.9-8.8-6.2-10.7-11.2-2-5.1-3-10.7-6.4-15-1.9-2.5-4.6-4.5-6-7.4-2.4-4.7-0.8-10.6 2.1-15 3-4.4 7.1-7.9 10.3-12.2q0.3-0.3 0.5-0.7 0.3-0.3 0.5-0.7 0.3-0.3 0.5-0.7 0.2-0.4 0.5-0.8 0.5-6.1 1-12.2c0.3-3.3 0.7-6.9 2.9-9.4 2.1-2.4 5.4-3.3 8.5-4q5-1.1 10-2 5.1-0.8 10.2-1.4 5.1-0.5 10.2-0.7 5.1-0.3 10.2-0.2c1.3 3-0.8 6.5-3.6 8.1z"/>
		<path id="Layer" class="s7" d="m395.2 116.6q0 0 0 0 0 0.1-0.1 0.1 0 0 0 0 0 0.1 0 0.1l-0.5 0.6q-0.2 0.3-0.4 0.5-0.2 0.3-0.5 0.5-0.2 0.3-0.5 0.5-0.3 0.3-0.5 0.5-0.5 0.3-0.9 0.6-0.5 0.3-1 0.6-0.5 0.3-1 0.5-0.5 0.2-1 0.4-0.7 0.2-1.5 0.4-0.7 0.1-1.4 0.2-0.7 0.1-1.5 0.1-0.7 0-1.5 0-0.9-0.1-1.7-0.3-0.9-0.3-1.7-0.6-0.9-0.3-1.6-0.8-0.8-0.5-1.5-1c-2-1.6-3.9-3.7-6.2-5.3q-0.4-0.4-0.9-0.6-0.4-0.3-0.9-0.5-0.5-0.2-1-0.4-0.6-0.1-1.1-0.2-0.5 0-1.1 0-0.6 0-1.1 0.1-0.6 0.1-1.1 0.3-0.5 0.2-1 0.4-0.6 0.3-1.1 0.5-0.6 0.2-1.2 0.4-0.5 0.2-1.1 0.4-0.6 0.1-1.2 0.3-0.6 0-1.2 0-0.7 0-1.3-0.1-0.6-0.1-1.2-0.3-0.6-0.2-1.2-0.5-0.5-0.3-1-0.6-0.6-0.3-1.1-0.7-0.5-0.3-1-0.7-0.5-0.3-1-0.7-0.4-0.4-0.9-0.8-0.5-0.3-0.9-0.7-0.5-0.4-0.9-0.9-0.5-0.4-0.9-0.8-0.4-0.4-0.8-0.8-0.3-0.5-0.7-1-0.3-0.5-0.6-1-0.2-0.5-0.4-1.1-0.2-0.5-0.4-1-0.1-0.6-0.1-1.2-0.1-0.5 0-1.1 0-0.6 0.2-1.1 0.1-0.5 0.2-1 0.2-0.5 0.3-1.1 0.2-0.5 0.4-0.9 0.1-0.5 0.4-1 0.7-1.9 1.3-3.8 0.2-0.8 0.4-1.6 0.3-0.9 0.5-1.8 0.2-0.8 0.3-1.7 0.2-0.8 0.3-1.7 0.2-1.3 0.4-2.6 0.1-1.2 0.2-2.5 0-1.3 0-2.6 0.1-1.3 0-2.5-0.1-1.9-0.2-2.8c0-0.3 0-0.5-0.1-0.7q0-0.1 0-0.1 0 0 0-0.1 0 0 0 0 0-0.1 0-0.1 0.1 0 0.1 0.1 0 0 0 0 0 0.1 0 0.1 0 0 0 0.1l0.1 0.7q0.1 0.9 0.3 2.8 0.1 1.2 0.1 2.5 0 1.3-0.1 2.6 0 1.3-0.1 2.6-0.1 1.3-0.3 2.5-0.2 0.9-0.3 1.8-0.2 0.9-0.4 1.7-0.2 0.9-0.4 1.8-0.2 0.8-0.5 1.7-0.5 1.8-1.3 3.7-0.2 0.5-0.4 1-0.1 0.5-0.3 1-0.2 0.5-0.3 1-0.1 0.5-0.2 1-0.2 0.5-0.2 1 0 0.6 0 1.1 0 0.5 0.1 1.1 0.2 0.5 0.3 1 0.3 0.5 0.5 1 0.3 0.5 0.6 1 0.3 0.4 0.7 0.9 0.3 0.4 0.7 0.8 0.4 0.4 0.9 0.8 0.4 0.4 0.9 0.8 0.4 0.4 0.9 0.8 0.4 0.3 0.9 0.7 0.5 0.4 1 0.7 0.4 0.4 0.9 0.7 0.6 0.4 1.1 0.7 0.5 0.3 1 0.6 0.6 0.3 1.1 0.5 0.6 0.2 1.2 0.3 0.6 0.1 1.2 0.1 0.6 0 1.1-0.1 0.6-0.1 1.2-0.2 0.6-0.2 1.1-0.4 0.6-0.2 1.1-0.4 0.6-0.2 1.1-0.5 0.5-0.2 1.1-0.4 0.5-0.2 1.1-0.3 0.6-0.1 1.2-0.1 0.6 0 1.2 0 0.5 0.1 1.1 0.2 0.5 0.2 1 0.4 0.5 0.2 1 0.5 0.5 0.3 1 0.6c2.3 1.7 4.1 3.8 6.1 5.4q0.7 0.5 1.4 1 0.8 0.4 1.6 0.8 0.8 0.3 1.7 0.5 0.8 0.3 1.7 0.3 1.2 0.2 2.5 0.1 1.3-0.1 2.5-0.4 1.2-0.4 2.4-0.9 1.1-0.6 2.2-1.3 0.3-0.3 0.7-0.6 0.3-0.4 0.7-0.7 0.3-0.3 0.6-0.7 0.3-0.4 0.6-0.7z"/>
		<path id="Layer" class="s6" d="m309.7 89.3q-0.1-0.1-0.2-0.2-0.1-0.1-0.2-0.3-0.1-0.1-0.1-0.2-0.1-0.1-0.2-0.2-0.2-0.4-0.4-0.8-0.2-0.4-0.3-0.8-0.2-0.3-0.3-0.7-0.1-0.4-0.2-0.9-0.1-0.6-0.2-1.3-0.1-0.7 0-1.3 0-0.7 0-1.3 0.1-0.7 0.3-1.4 0.2-0.8 0.5-1.7 0.2-0.8 0.6-1.6 0.4-0.8 0.8-1.6 0.5-0.7 1-1.4 0.7-0.9 1.4-1.6 0.7-0.8 1.5-1.6 0.8-0.7 1.6-1.4 0.8-0.6 1.7-1.3c2.5-1.8 5.3-3.5 8-5.5q1.2-0.7 2.2-1.6 1-0.8 2-1.7 0.9-1 1.8-2 0.9-1 1.7-2.1 0.3-0.6 0.7-1.2 0.3-0.6 0.6-1.3 0.3-0.6 0.5-1.3 0.3-0.7 0.5-1.3c0.5-1.9 0.9-3.8 1.3-5.7q0.2-0.7 0.4-1.5 0.1-0.7 0.4-1.4 0.2-0.7 0.4-1.4 0.3-0.7 0.6-1.4 0.2-0.6 0.6-1.3 0.3-0.6 0.8-1.2 0.4-0.6 0.9-1.1 0.5-0.5 1-1 0.6-0.5 1.1-0.9 0.6-0.4 1.2-0.7 0.6-0.3 1.3-0.6 0.6-0.3 1.3-0.5 0.6-0.2 1.3-0.4 0.6-0.1 1.2-0.3 0.7-0.1 1.4-0.2 0.6-0.1 1.3-0.1 1.2-0.1 2.4-0.1 1.2 0 2.5 0 1.2 0.1 2.4 0.2 1.2 0 2.4 0.2 1.1 0.1 2.1 0.2 1.1 0 2.2 0 1 0.1 2.1 0 1 0 2.1-0.1 0.8-0.1 1.7-0.3 0.8-0.1 1.7-0.4 0.8-0.2 1.6-0.5 0.8-0.4 1.6-0.8 0.6-0.3 1.1-0.6 0.6-0.4 1.1-0.8 0.5-0.4 1-0.9 0.4-0.4 0.8-0.9 0.3-0.4 0.5-0.7 0.3-0.4 0.5-0.7 0.2-0.4 0.4-0.7 0.1-0.4 0.3-0.8c0.2-0.7 0.3-1.1 0.3-1.1q0 0.1 0 0.3 0 0.1-0.1 0.3 0 0.1-0.1 0.2 0 0.2 0 0.3-0.2 0.4-0.3 0.8-0.2 0.4-0.4 0.8-0.2 0.3-0.4 0.7-0.3 0.3-0.5 0.7-0.4 0.5-0.9 1-0.5 0.5-1 0.9-0.5 0.4-1 0.8-0.6 0.4-1.2 0.7-0.8 0.4-1.6 0.8-0.8 0.3-1.6 0.6-0.9 0.2-1.7 0.4-0.9 0.2-1.8 0.3-1.1 0.1-2.1 0.1-1.1 0-2.1 0-1.1 0-2.2 0-1-0.1-2.1-0.2-1.2-0.1-2.4-0.2-1.2-0.1-2.4-0.1-1.2-0.1-2.5 0-1.2 0-2.4 0-0.6 0.1-1.3 0.2-0.6 0.1-1.3 0.2-0.6 0.1-1.3 0.3-0.6 0.2-1.2 0.4-0.7 0.2-1.3 0.4-0.6 0.3-1.2 0.6-0.6 0.3-1.2 0.7-0.5 0.4-1 0.8-0.6 0.5-1 1-0.5 0.5-0.9 1.1-0.4 0.6-0.8 1.2-0.3 0.6-0.6 1.2-0.3 0.7-0.5 1.4-0.2 0.7-0.5 1.4-0.2 0.7-0.4 1.4-0.1 0.7-0.3 1.4c-0.4 1.9-0.8 3.9-1.4 5.7q-0.2 0.7-0.4 1.4-0.3 0.7-0.6 1.3-0.3 0.7-0.6 1.3-0.4 0.6-0.7 1.2-0.8 1.1-1.7 2.2-0.9 1-1.9 1.9-0.9 1-2 1.8-1 0.9-2.2 1.6c-2.8 2-5.5 3.7-8 5.5q-0.9 0.6-1.7 1.3-0.8 0.7-1.6 1.4-0.7 0.7-1.5 1.5-0.7 0.7-1.3 1.6-0.6 0.7-1 1.4-0.5 0.7-0.9 1.5-0.3 0.8-0.6 1.6-0.3 0.8-0.5 1.7-0.2 0.6-0.3 1.3 0 0.6-0.1 1.3 0 0.6 0.1 1.3 0 0.6 0.1 1.3 0.1 0.5 0.3 1.1 0.2 0.5 0.4 1 0.2 0.6 0.5 1.1 0.3 0.4 0.6 0.9z"/>
		<path id="Layer" class="s6" d="m312.2 93.8q-0.4-0.3-0.7-0.6-0.4-0.3-0.7-0.6-0.3-0.3-0.6-0.6-0.3-0.4-0.6-0.7-0.4-0.4-0.7-0.8-0.4-0.5-0.6-0.9-0.3-0.5-0.6-1-0.2-0.4-0.4-0.9-0.1-0.4-0.2-0.7-0.1-0.3-0.2-0.7 0-0.3 0-0.6 0-0.4 0-0.7 0-0.4 0.1-0.8 0.1-0.4 0.3-0.7 0.1-0.4 0.3-0.7 0.2-0.3 0.4-0.6c1.4-1.7 3.7-2.7 6.1-3.2 1.2-0.2 2.5-0.4 3.8-0.7q0.4-0.1 0.9-0.3 0.5-0.1 1-0.3 0.4-0.2 0.9-0.4 0.4-0.3 0.8-0.5 0.4-0.3 0.8-0.7 0.4-0.4 0.7-0.8 0.4-0.3 0.6-0.8 0.3-0.4 0.6-0.9 0.2-0.5 0.4-1 0.3-0.5 0.5-1 0.2-0.5 0.4-1 0.1-0.5 0.3-1.1 0.2-0.5 0.4-1.1 0.2-0.5 0.4-1 0.2-0.6 0.4-1.1 0.3-0.5 0.5-1.1 0.3-0.5 0.6-1 0.4-0.5 0.8-1 0.4-0.4 0.9-0.8 0.4-0.4 0.9-0.7 0.6-0.3 1.1-0.6 0.5-0.2 1.1-0.4 0.6-0.3 1.1-0.4 0.6-0.2 1.2-0.3c1.5-0.4 3-0.7 4.4-1.2q1-0.4 2-0.9 0.9-0.5 1.8-1.1 0.9-0.6 1.6-1.4 0.8-0.8 1.4-1.6 0.6-0.8 1.2-1.6 0.5-0.8 1.1-1.7 0.5-0.8 1-1.6 0.5-0.9 1-1.8 0.4-0.7 0.8-1.4 0.5-0.8 1-1.5 0.4-0.7 0.9-1.4 0.6-0.7 1.1-1.3 0.5-0.6 1-1.1 0.5-0.5 1-1 0.6-0.4 1.2-0.8 0.6-0.4 1.2-0.7 0.5-0.3 1-0.5 0.5-0.2 1-0.4 0.5-0.1 1-0.2 0.6-0.1 1.1-0.2 0.3 0 0.7 0 0.3 0 0.7 0 0.3 0 0.6 0.1 0.4 0.1 0.7 0.1 0.1 0.1 0.2 0.1 0.1 0 0.2 0.1 0.1 0 0.3 0.1 0.1 0 0.2 0.1c0 0-0.4-0.1-1-0.3q-0.3 0-0.6-0.1-0.3 0-0.7 0-0.3-0.1-0.7-0.1-0.3 0-0.6 0.1-0.5 0.1-1.1 0.2-0.5 0.1-1 0.2-0.5 0.2-1 0.4-0.5 0.2-0.9 0.5-0.6 0.3-1.2 0.7-0.6 0.4-1.1 0.9-0.6 0.4-1.1 0.9-0.5 0.5-0.9 1-0.5 0.7-1 1.4-0.5 0.7-1 1.4-0.5 0.7-0.9 1.5-0.5 0.7-0.9 1.4-0.4 0.9-0.9 1.8-0.5 0.8-1 1.7-0.6 0.8-1.1 1.6-0.6 0.8-1.2 1.6-0.3 0.4-0.7 0.8-0.3 0.5-0.7 0.8-0.4 0.4-0.8 0.8-0.4 0.3-0.8 0.7-0.4 0.3-0.9 0.6-0.5 0.3-1 0.6-0.5 0.2-1 0.5-0.5 0.2-1 0.3c-1.4 0.5-3 0.9-4.5 1.3q-0.5 0.1-1.1 0.3-0.5 0.1-1.1 0.3-0.5 0.3-1.1 0.5-0.5 0.3-1 0.6-0.5 0.3-0.9 0.7-0.5 0.3-0.9 0.8-0.3 0.4-0.7 0.9-0.3 0.5-0.6 1-0.2 0.5-0.4 1-0.3 0.5-0.5 1.1-0.2 0.5-0.4 1-0.2 0.6-0.4 1.1-0.1 0.6-0.3 1.1-0.2 0.5-0.4 1-0.3 0.5-0.5 1-0.2 0.6-0.5 1.1-0.2 0.4-0.5 0.9-0.3 0.5-0.7 0.9-0.3 0.4-0.7 0.8-0.4 0.3-0.9 0.6-0.4 0.3-0.9 0.6-0.4 0.2-0.9 0.4-0.5 0.2-1 0.4-0.5 0.1-1 0.2c-1.2 0.3-2.5 0.5-3.7 0.8-2.4 0.4-4.6 1.3-5.9 2.9q-0.3 0.3-0.4 0.6-0.2 0.3-0.4 0.6-0.1 0.4-0.2 0.7-0.1 0.4-0.1 0.7-0.1 0.4-0.1 0.7 0 0.3 0.1 0.7 0 0.3 0.1 0.6 0.1 0.3 0.2 0.6 0.2 0.5 0.4 1 0.3 0.5 0.5 0.9 0.3 0.5 0.6 0.9 0.3 0.4 0.7 0.8c0.7 0.9 1.4 1.6 1.8 2l0.5 0.5q0.2 0.1 0.2 0.1z"/>
		<path id="Layer" class="s9" d="m417.6 38.5q-0.1 0.1-0.1 0.1-0.1 0.1-0.1 0.2-0.1 0.1-0.2 0.2 0 0-0.1 0.1-0.4 0.6-1.3 1.7c-1.2 1.4-2.9 3.3-4.8 5.3-1 1-1.9 2-3.2 2.4q-0.2 0.1-0.4 0.1-0.3 0.1-0.5 0.1-0.2 0-0.5-0.1-0.2 0-0.4-0.1-0.2 0-0.4-0.2-0.1-0.1-0.3-0.2-0.1-0.1-0.3-0.3-0.1-0.2-0.2-0.3-0.1-0.3-0.2-0.5-0.1-0.3-0.1-0.6 0-0.3 0-0.6 0-0.2 0-0.5 0-0.1 0-0.2 0.1-0.1 0.1-0.2 0-0.1 0-0.2 0.1-0.1 0.1-0.2 0 0.1 0 0.2 0 0.1 0 0.2 0 0.1 0 0.2 0 0.1 0 0.2 0 0.3 0 0.5 0 0.3 0.1 0.5 0 0.3 0.1 0.5 0.1 0.3 0.2 0.5 0.1 0.2 0.2 0.3 0.1 0.1 0.3 0.2 0.1 0.1 0.2 0.2 0.2 0.1 0.4 0.2 0.1 0 0.3 0.1 0.2 0 0.4 0 0.2 0 0.4 0 0.2-0.1 0.4-0.1c1.1-0.4 2-1.4 3-2.4 1.9-1.9 3.6-3.8 4.9-5.1q0.2-0.3 0.4-0.6 0.3-0.3 0.5-0.6 0.3-0.2 0.5-0.5 0.3-0.3 0.6-0.5z"/>
		<path id="Layer" class="s9" d="m424.1 38.5q0 0.1-0.1 0.1-0.1 0.1-0.1 0.2-0.1 0.1-0.2 0.2 0 0.1-0.1 0.1-0.5 0.7-1.5 1.7l-2.3 2.5-1.4 1.5q-0.2 0.2-0.4 0.4-0.2 0.2-0.4 0.4-0.2 0.2-0.4 0.4-0.2 0.1-0.4 0.3-0.2 0.2-0.4 0.3-0.3 0.2-0.6 0.3-0.2 0.1-0.5 0.2-0.3 0-0.6 0.1-0.2 0-0.5-0.1-0.3 0-0.5-0.1-0.3-0.1-0.5-0.3-0.2-0.2-0.4-0.4-0.1-0.1-0.1-0.2-0.1-0.1-0.1-0.3-0.1-0.1-0.1-0.2 0-0.2 0-0.3 0-0.1 0-0.2 0-0.2 0.1-0.3 0-0.1 0.1-0.2 0-0.1 0.1-0.2c0.3-0.5 0.6-0.9 0.9-1.3q0.9-1.2 1.4-1.8 0-0.1 0.1-0.2 0-0.1 0.1-0.2 0.1-0.1 0.2-0.1 0-0.1 0.1-0.2 0 0.1-0.1 0.2 0 0.1-0.1 0.2 0 0.1-0.1 0.2 0 0.1-0.1 0.2-0.4 0.6-1.2 1.9c-0.3 0.4-0.6 0.8-0.9 1.3q-0.1 0.1-0.2 0.3 0 0.2 0 0.4 0 0.2 0 0.4 0.1 0.2 0.2 0.4 0.1 0.1 0.3 0.3 0.2 0.1 0.4 0.2 0.2 0.1 0.4 0.1 0.3 0 0.5 0 0.2 0 0.5-0.1 0.2 0 0.5-0.1 0.2-0.1 0.4-0.3 0.2-0.1 0.4-0.2 0.2-0.2 0.4-0.4 0.2-0.1 0.4-0.3 0.2-0.2 0.4-0.4 0.2-0.2 0.4-0.4l1.4-1.4 2.3-2.4q1.1-1.1 1.7-1.6 0-0.1 0.1-0.2 0.1-0.1 0.2-0.2 0 0 0.1-0.1 0.1-0.1 0.2-0.1z"/>
	</g>
	<g id="freepik--Plants--inject-4">
		<path id="Layer" class="s2" d="m513.4 300.8c0.8-1.6 1.9-2.9 3.3-4 1.4-1.1 3-1.8 4.7-2.1 1.8-0.3 3.6-0.2 5.2 0.3 1.7 0.6 3.2 1.5 4.5 2.8q-0.7 1.1-1.6 2-0.8 1-1.8 1.7-1 0.8-2.2 1.4-1.1 0.6-2.3 1-1.3 0.4-2.7 0.4-1.4 0.1-2.7-0.3-1.3-0.4-2.4-1.2-1.2-0.8-2-2z"/>
		<path id="Layer" class="s7" d="m507.4 302.3q0.2-0.2 0.6-0.3 0.3-0.1 0.6-0.2 0.3-0.1 0.6-0.2 0.3-0.1 0.6-0.1c1.6-0.4 3.7-0.8 6.1-1.2 2.4-0.4 4.6-0.7 6.2-0.9q0.3 0 0.6-0.1 0.3 0 0.6 0 0.4 0 0.7-0.1 0.3 0 0.6 0-0.3 0.1-0.6 0.2-0.3 0.1-0.6 0.1-0.3 0.1-0.7 0.2-0.3 0-0.6 0.1l-6.1 1c-2.4 0.3-4.6 0.7-6.1 1q-0.3 0.1-0.6 0.2-0.4 0-0.7 0.1-0.3 0-0.6 0.1-0.3 0-0.6 0.1z"/>
		<path id="Layer" class="s2" d="m207.5 246.5c1.8 1.6 3.3 3.5 4.1 5.7 0.9 2.2 1.3 4.6 1 6.9-0.2 2.4-1.1 4.6-2.4 6.6-1.4 1.9-3.2 3.5-5.3 4.6-3.1-8.1-4.3-16.8 2.6-23.8z"/>
		<path id="Layer" class="s2" d="m219.4 252.7c12.6-1.8 20.7 6.1 26.7 15.5-2.8 1.4-5.8 2.1-8.9 2-3-0.1-6-1-8.6-2.5-2.7-1.6-4.9-3.7-6.5-6.3-1.6-2.6-2.5-5.6-2.7-8.7"/>
		<path id="Layer" class="s7" d="m192.1 222.9q0.1 0.1 0.1 0.1 0.1 0.1 0.2 0.1 0 0.1 0 0.1 0.1 0.1 0.1 0.2l1.1 1.2c0.9 1.2 2.2 2.8 3.9 4.7 3.4 4 8.1 9.3 13.6 14.9 2.8 2.8 5.5 5.4 8.1 7.7 2.5 2.3 4.9 4.2 7 5.8q0.6 0.4 1.2 0.9 0.6 0.4 1.2 0.9 0.7 0.4 1.3 0.8 0.6 0.4 1.3 0.8c1.2 0.7 2 1.1 2 1.1q-0.1 0-0.2 0-0.1-0.1-0.1-0.1-0.1 0-0.2 0 0-0.1-0.1-0.1-0.2-0.1-0.4-0.2-0.2-0.1-0.4-0.1-0.1-0.1-0.3-0.2-0.2-0.1-0.4-0.2-0.7-0.4-1.3-0.8-0.7-0.4-1.3-0.8-0.7-0.4-1.3-0.9-0.6-0.4-1.2-0.9c-2.1-1.5-4.5-3.5-7.1-5.7-2.6-2.2-5.3-4.9-8.1-7.6-5.5-5.7-10.2-11.1-13.5-15.1-1.7-2-2.9-3.6-3.8-4.8l-1-1.3q-0.1-0.1-0.1-0.1-0.1-0.1-0.1-0.1 0-0.1-0.1-0.2 0 0-0.1-0.1z"/>
		<path id="Layer" class="s7" d="m206.8 258.7c0 0 0.3-1.2 0.5-3.1q0.2-1.9 0.3-3.8 0-1.9-0.2-3.9-0.2-1.9-0.6-3.7-0.4-1.9-1.1-3.7c-0.6-1.9-1.1-3-1.1-3q0.1 0.1 0.2 0.2 0 0.1 0.1 0.1 0 0.1 0.1 0.2 0 0.1 0.1 0.2 0.1 0.3 0.2 0.6 0.2 0.2 0.3 0.5 0.1 0.3 0.2 0.5 0.1 0.3 0.2 0.6 0.4 0.9 0.7 1.8 0.2 0.9 0.5 1.9 0.2 0.9 0.4 1.9 0.1 0.9 0.2 1.9 0.1 1 0.2 1.9 0 1 0 2-0.1 0.9-0.2 1.9 0 1-0.2 1.9 0 0.3-0.1 0.6 0 0.3-0.1 0.6-0.1 0.3-0.2 0.6 0 0.3-0.1 0.6 0 0.1 0 0.2-0.1 0.1-0.1 0.1 0 0.1-0.1 0.2 0 0.1-0.1 0.2z"/>
		<path id="Layer" class="s2" d="m584.6 85.4c-1.1-1.5-1.8-3.1-2.1-4.8-0.2-1.8-0.1-3.6 0.5-5.2 0.5-1.7 1.5-3.2 2.7-4.4 1.3-1.2 2.9-2.1 4.5-2.6q0.7 1.1 1.1 2.3 0.4 1.2 0.6 2.4 0.2 1.3 0.2 2.6 0 1.2-0.3 2.5-0.2 1.4-0.8 2.6-0.6 1.2-1.6 2.2-1 0.9-2.2 1.6-1.3 0.6-2.6 0.8z"/>
		<path id="Layer" class="s7" d="m583 91.4q0-0.3 0-0.7 0.1-0.3 0.1-0.6 0.1-0.3 0.2-0.6 0-0.3 0.1-0.6c0.4-1.6 1.1-3.7 1.9-6 0.8-2.3 1.5-4.3 2.1-5.8q0.1-0.3 0.2-0.6 0.2-0.3 0.3-0.6 0.1-0.3 0.3-0.6 0.1-0.3 0.3-0.6-0.1 0.3-0.2 0.6-0.1 0.4-0.2 0.7 0 0.3-0.2 0.6-0.1 0.3-0.2 0.6c-0.5 1.6-1.2 3.6-2 5.9-0.8 2.2-1.5 4.3-2 5.8q0 0.3-0.1 0.7-0.1 0.3-0.2 0.6-0.1 0.3-0.2 0.6-0.1 0.3-0.2 0.6z"/>
		<path id="Layer" class="s2" d="m546.9 149.1c-0.9-3.3-0.9-6.7-0.2-10.1 0.8-3.3 2.3-6.4 4.5-9 2.2-2.6 5-4.6 8.2-5.8 3.1-1.3 6.6-1.8 9.9-1.4 1.2 6.4-0.8 13.1-4.2 18.7-4 6.7-12 9.5-18.2 7.6z"/>
		<path id="Layer" class="s7" d="m521.6 174.5q0-0.1 0.1-0.1 0-0.1 0.1-0.2 0 0 0-0.1 0.1 0 0.1-0.1l1.2-1.2c0.9-1.1 2.4-2.7 4.2-4.6 3.6-3.7 8.6-8.9 14.2-14.5 5.5-5.7 10.6-10.8 14.3-14.4l4.4-4.4 1.2-1.1q0.4-0.4 0.5-0.4-0.1 0.1-0.1 0.1-0.1 0.1-0.1 0.1-0.1 0.1-0.1 0.2-0.1 0-0.1 0.1l-1.2 1.2-4.2 4.4-14.3 14.5-14.3 14.5-4.3 4.4-1.1 1.2q-0.1 0-0.2 0.1 0 0-0.1 0.1 0 0-0.1 0.1-0.1 0-0.1 0.1z"/>
		<g id="Layer" style="opacity: .3">
			<path id="Layer" class="s5" d="m546.9 149.1c-0.9-3.3-0.9-6.7-0.2-10.1 0.8-3.3 2.3-6.4 4.5-9 2.2-2.6 5-4.6 8.2-5.8 3.1-1.3 6.6-1.8 9.9-1.4 1.2 6.4-0.8 13.1-4.2 18.7-4 6.7-12 9.5-18.2 7.6z"/>
		</g>
		<path id="Layer" class="s2" d="m535.2 151.7c-1.9-1-3.5-2.4-4.7-4.1-1.2-1.7-2-3.7-2.2-5.8-0.3-2.1 0-4.2 0.7-6.1 0.7-2 1.9-3.7 3.5-5.1 3.4 2.1 5.6 5.8 6.8 9.6 1.3 4.6-0.7 9.5-4.1 11.5z"/>
		<g id="Layer" style="opacity: .3">
			<path id="Layer" class="s5" d="m535.2 151.7c-1.9-1-3.5-2.4-4.7-4.1-1.2-1.7-2-3.7-2.2-5.8-0.3-2.1 0-4.2 0.7-6.1 0.7-2 1.9-3.7 3.5-5.1 3.4 2.1 5.6 5.8 6.8 9.6 1.3 4.6-0.7 9.5-4.1 11.5z"/>
		</g>
		<path id="Layer" class="s7" d="m536.5 159q0-0.1-0.1-0.2 0-0.1 0-0.2-0.1-0.1-0.1-0.2 0-0.1 0-0.2-0.3-0.8-0.5-2.2c-0.4-1.9-0.8-4.5-1.1-7.3-0.4-2.9-0.6-5.5-0.7-7.4q-0.1-0.3-0.1-0.7 0-0.4-0.1-0.8 0-0.4 0-0.7 0-0.4 0-0.8 0.1 0.4 0.2 0.7 0.1 0.4 0.1 0.8 0.1 0.4 0.1 0.8 0.1 0.3 0.1 0.7c0.2 2 0.5 4.5 0.8 7.3 0.4 2.8 0.7 5.5 1 7.3 0.2 1.9 0.5 3 0.4 3.1z"/>
		<path id="Layer" class="s2" d="m374.9 251c1.3-3.2 3.3-5.9 6-8 2.6-2.1 5.7-3.5 9-4.1 3.3-0.6 6.7-0.4 9.9 0.7 3.2 1 6.1 2.8 8.4 5.3-9.7 7.5-21 12.7-33.3 6.1"/>
		<g id="Layer" style="opacity: .3">
			<path id="Layer" class="s5" d="m374.9 251c1.3-3.2 3.3-5.9 6-8 2.6-2.1 5.7-3.5 9-4.1 3.3-0.6 6.7-0.4 9.9 0.7 3.2 1 6.1 2.8 8.4 5.3-9.7 7.5-21 12.7-33.3 6.1"/>
		</g>
		<path id="Layer" class="s7" d="m369.4 254q0.1-0.1 0.2-0.2 0.1-0.1 0.2-0.2 0.1 0 0.2-0.1 0.1-0.1 0.2-0.1 0.8-0.6 2.2-1.4 1.9-1.2 3.9-2.1 2-0.8 4.1-1.5 2.1-0.7 4.3-1.2 2.1-0.5 4.3-0.7c1.1-0.1 2-0.2 2.6-0.2q0.2 0 0.3 0 0.1 0 0.2 0 0.1 0 0.3 0 0.1 0 0.2 0c0 0.1-1.4 0.1-3.6 0.5q-1.1 0.1-2.1 0.3-1.1 0.2-2.1 0.5-1.1 0.2-2.2 0.5-1 0.3-2 0.7-1.1 0.3-2.1 0.7-1 0.4-2 0.8-1 0.4-2 0.9-1 0.5-1.9 1c-2 1.1-3.2 1.8-3.2 1.8z"/>
		<path id="Layer" class="s2" d="m149.3 139.3c2.3-1.1 4.9-1.6 7.5-1.5 2.6 0.2 5.1 1 7.3 2.3 2.2 1.4 4.1 3.3 5.3 5.5 1.3 2.3 2.1 4.8 2.1 7.4-9.4-0.7-18.6-3.6-22.2-13.7z"/>
		<g id="Layer" style="opacity: .3">
			<path id="Layer" class="s5" d="m149.3 139.3c2.3-1.1 4.9-1.6 7.5-1.5 2.6 0.2 5.1 1 7.3 2.3 2.2 1.4 4.1 3.3 5.3 5.5 1.3 2.3 2.1 4.8 2.1 7.4-9.4-0.7-18.6-3.6-22.2-13.7z"/>
		</g>
		<path id="Layer" class="s7" d="m144.6 138.2q0.1-0.1 0.2-0.1 0.1 0 0.2 0 0 0 0.1 0 0.1 0 0.2 0.1 0.3 0 0.5 0 0.3 0 0.6 0.1 0.2 0 0.5 0.1 0.2 0 0.5 0.1 0.8 0.2 1.6 0.4 0.8 0.2 1.6 0.4 0.9 0.3 1.6 0.6 0.8 0.3 1.6 0.6 0.8 0.4 1.5 0.8 0.8 0.4 1.5 0.8 0.8 0.4 1.5 0.9 0.7 0.4 1.4 0.9 1.1 0.8 1.6 1.3 0.1 0 0.2 0.1 0 0.1 0.1 0.1 0.1 0.1 0.1 0.2 0.1 0 0.2 0.1c-0.1 0.1-0.9-0.6-2.4-1.5q-1.4-0.9-2.9-1.8-1.4-0.7-3-1.4-1.5-0.7-3.1-1.2-1.6-0.6-3.2-1c-1.7-0.4-2.7-0.6-2.7-0.6z"/>
		<path id="Layer" class="s2" d="m456 240.5c-0.3-2.3 0-4.7 0.8-6.8 0.9-2.2 2.3-4.1 4-5.6 1.8-1.5 3.9-2.5 6.2-3 2.3-0.5 4.6-0.4 6.8 0.3-3.2 7.8-8.2 14.8-17.8 15.1z"/>
		<path id="Layer" class="s7" d="m453.7 244.2q0.1-0.3 0.2-0.6 0.1-0.3 0.3-0.6 0.1-0.3 0.3-0.6 0.1-0.2 0.3-0.5 0.7-1.3 1.6-2.6 0.9-1.2 1.9-2.3 1.1-1.2 2.2-2.2 1.1-1 2.3-1.9 0.3-0.2 0.5-0.4 0.3-0.2 0.6-0.3 0.2-0.2 0.5-0.3 0.3-0.2 0.6-0.3-0.2 0.2-0.5 0.4-0.2 0.2-0.5 0.4-0.2 0.2-0.5 0.4-0.2 0.2-0.5 0.3-1.2 1-2.2 2-1.1 1-2.1 2.2-1 1.1-2 2.3-0.9 1.2-1.7 2.4-0.1 0.3-0.3 0.6-0.1 0.3-0.3 0.5-0.2 0.3-0.3 0.6-0.2 0.2-0.4 0.5z"/>
		<path id="Layer" class="s2" d="m523.3 196c-0.7-2.2-0.8-4.6-0.4-6.9 0.4-2.3 1.4-4.4 2.9-6.2 1.4-1.8 3.3-3.2 5.5-4.1 2.1-0.9 4.4-1.3 6.7-1-1.7 8.3-5.3 16.1-14.7 18.2z"/>
		<g id="Layer" style="opacity: .3">
			<path id="Layer" class="s5" d="m523.3 196c-0.7-2.2-0.8-4.6-0.4-6.9 0.4-2.3 1.4-4.4 2.9-6.2 1.4-1.8 3.3-3.2 5.5-4.1 2.1-0.9 4.4-1.3 6.7-1-1.7 8.3-5.3 16.1-14.7 18.2z"/>
		</g>
		<path id="Layer" class="s7" d="m521.8 200q0-0.3 0.1-0.6 0.1-0.3 0.1-0.6 0.1-0.3 0.2-0.6 0.1-0.3 0.2-0.6 0.3-0.7 0.6-1.5 0.2-0.7 0.6-1.3 0.3-0.7 0.6-1.4 0.4-0.7 0.8-1.3 0.4-0.7 0.8-1.3 0.4-0.6 0.9-1.2 0.5-0.7 1-1.2 0.4-0.6 1-1.2 0.2-0.2 0.4-0.4 0.2-0.3 0.4-0.5 0.3-0.2 0.5-0.4 0.3-0.2 0.5-0.4-0.2 0.3-0.4 0.5-0.2 0.2-0.4 0.5-0.2 0.2-0.4 0.5-0.2 0.2-0.4 0.4-0.5 0.6-1 1.2-0.4 0.6-0.9 1.2-0.4 0.6-0.8 1.2-0.4 0.6-0.8 1.3-0.4 0.6-0.8 1.3-0.3 0.7-0.7 1.3-0.3 0.7-0.6 1.4-0.3 0.7-0.6 1.4-0.1 0.3-0.2 0.6-0.1 0.3-0.2 0.6-0.1 0.2-0.2 0.5-0.2 0.3-0.3 0.6z"/>
		<path id="Layer" class="s2" d="m15.6 134.6c0.5-2.3 1.6-4.4 3.1-6.1 1.5-1.8 3.5-3.1 5.6-4 2.2-0.8 4.5-1.1 6.8-0.7 2.3 0.3 4.5 1.1 6.4 2.5-5.6 6.3-12.7 11.3-21.9 8.3z"/>
		<path id="Layer" class="s7" d="m12.3 137.3q0.2-0.2 0.4-0.5 0.2-0.2 0.4-0.4 0.2-0.2 0.5-0.4 0.2-0.3 0.4-0.5 0.6-0.5 1.2-0.9 0.6-0.5 1.2-0.9 0.7-0.4 1.3-0.8 0.7-0.4 1.3-0.8 0.7-0.4 1.4-0.7 0.7-0.3 1.4-0.6 0.7-0.3 1.4-0.6 0.7-0.2 1.4-0.4 0.3-0.1 0.6-0.2 0.3-0.1 0.6-0.2 0.4 0 0.7-0.1 0.3 0 0.6 0-0.3 0.1-0.6 0.2-0.3 0.1-0.6 0.2-0.3 0.1-0.6 0.2-0.3 0.1-0.6 0.2-1.4 0.5-2.8 1.1-1.3 0.6-2.7 1.3-1.3 0.8-2.5 1.6-1.3 0.8-2.5 1.8-0.2 0.2-0.4 0.3-0.3 0.2-0.5 0.4-0.3 0.2-0.5 0.4-0.3 0.2-0.5 0.3z"/>
	</g>
</svg>