<svg width="25" height="25" viewbox="0 0 25 25" fill="none" xmlns="http://www.w3.org/2000/svg">
    <g clip-path="url(#clip0_381_28)">
      <path d="M20.8207 11.8844C20.2399 12.6354 19.3635 13.1513 18.1914 13.4316C19.684 14.1929 20.3398 15.4851 20.1598 17.3082C20.0996 17.9693 19.9169 18.5423 19.6112 19.0279C19.3054 19.5137 18.8927 19.9042 18.3715 20.1996C17.8507 20.4954 17.2843 20.7206 16.6736 20.8759C16.0628 21.0311 15.3615 21.1438 14.5702 21.2139V25H12.2566V21.319C11.856 21.319 11.2451 21.309 10.4238 21.289V25H8.10996V21.2139C7.77933 21.2038 7.29362 21.1987 6.65261 21.1987L3.46753 21.2139V18.7498H5.13511C5.89636 18.7498 6.34208 18.4092 6.47227 17.7282V13.4161C6.57257 13.4161 6.65261 13.411 6.71276 13.401H6.47227V7.36143C6.39223 6.85072 6.1018 6.59513 5.60093 6.59513H3.93346L3.46763 3.84561H6.47253C6.66287 3.84561 6.93815 3.84308 7.29888 3.83856C7.6594 3.83351 7.92973 3.83098 8.11007 3.83098V-0.00015831H10.4243V3.78593C10.8449 3.77567 11.4558 3.77078 12.2571 3.77078V-0.00015831H14.5707V3.83098C15.3922 3.87098 16.1208 3.9457 16.7566 4.05626C17.3926 4.16682 18.0013 4.33932 18.5821 4.57487C19.1628 4.81009 19.6485 5.10326 20.0391 5.45383C20.4299 5.80409 20.7526 6.25002 21.0085 6.79099C21.2635 7.33196 21.4265 7.95797 21.4964 8.66928C21.6271 10.0612 21.4016 11.133 20.8207 11.8844ZM10.4688 18.585C10.539 18.585 10.7368 18.5875 11.0623 18.5926C11.388 18.5977 11.6583 18.6027 11.8736 18.6077C12.089 18.6127 12.3795 18.6002 12.7452 18.5701C13.1108 18.5401 13.4188 18.4999 13.6691 18.4499C13.9194 18.3999 14.1951 18.3173 14.4953 18.2021C14.7961 18.087 15.0363 17.9467 15.2164 17.7814C15.3968 17.6162 15.5495 17.4058 15.6745 17.1503C15.7999 16.8949 15.8625 16.602 15.8625 16.2715C15.8625 15.991 15.8175 15.7355 15.7275 15.5051C15.6376 15.2747 15.502 15.0819 15.3219 14.9266C15.1418 14.7713 14.9562 14.636 14.7658 14.5209C14.5757 14.4058 14.3326 14.3131 14.0372 14.243C13.7419 14.1729 13.484 14.1178 13.2637 14.0778C13.0434 14.0377 12.768 14.0101 12.4374 13.9951C12.1068 13.9802 11.8563 13.97 11.6861 13.965C11.5157 13.9601 11.2829 13.9601 10.9874 13.965C10.6917 13.97 10.5192 13.9726 10.469 13.9726V18.5851H10.4688V18.585ZM16.7868 8.35359C16.6914 8.1231 16.5689 7.92266 16.4187 7.75227C16.2683 7.58229 16.0704 7.43189 15.8251 7.30186C15.5799 7.17146 15.3418 7.06648 15.1116 6.98633C14.8811 6.90587 14.6031 6.83615 14.2778 6.77584C13.9519 6.71569 13.6666 6.67338 13.421 6.64817C13.1757 6.62307 12.8829 6.60313 12.5422 6.58797C12.2017 6.57324 11.9362 6.56561 11.7459 6.56561C11.5556 6.56561 11.3151 6.56834 11.0247 6.57324C10.734 6.57792 10.5489 6.58045 10.4687 6.58045V11.6589C10.5487 11.6589 10.7867 11.6638 11.1824 11.674C11.5782 11.6841 11.901 11.6888 12.1514 11.6888C12.4018 11.6888 12.7475 11.674 13.1884 11.6437C13.6288 11.6139 13.9995 11.569 14.3002 11.5089C14.6006 11.4487 14.9284 11.3562 15.2842 11.2308C15.6397 11.1057 15.9278 10.953 16.1482 10.7727C16.3686 10.5921 16.5538 10.3621 16.704 10.0815C16.8545 9.80116 16.9296 9.48057 16.9296 9.11989C16.9296 8.83915 16.8821 8.58414 16.7868 8.35359Z"></path>
    </g>
</svg>