<svg class="fill-primary" width="110" height="105" viewBox="0 0 110 105" xmlns="http://www.w3.org/2000/svg">
<g>
   <path d="M56.4571 104.995C56.4571 100.722 56.4571 96.6523 56.4571 92.5829C56.4596 79.9804 56.4645 67.3755 56.4547 54.773C56.4547 54.0685 56.5307 53.5801 57.3208 53.1997C74.5917 44.9155 91.8454 36.5959 109.104 28.2835C109.318 28.1802 109.543 28.0956 109.914 27.9407C109.943 28.3938 109.985 28.7555 109.985 29.1171C109.987 45.479 109.982 61.8386 110.002 78.2005C110.002 78.9472 109.828 79.3746 109.067 79.7409C91.9092 87.9759 74.7708 96.2437 57.625 104.505C57.3036 104.655 56.9675 104.779 56.4571 104.995Z"></path>
   <path d="M0.0819734 27.9477C0.543251 28.1426 0.911292 28.2788 1.26216 28.4479C7.06002 31.2375 12.8481 34.0482 18.6607 36.8096C19.4262 37.1736 19.7059 37.5822 19.6985 38.4087C19.6568 43.9645 19.6765 49.5202 19.6765 55.0759C19.6765 55.5033 19.6765 55.933 19.6765 56.5482C21.7645 56.5482 23.7936 56.6257 25.8154 56.52C27.0765 56.4543 27.9353 56.8511 28.799 57.7082C30.8821 59.7816 33.078 61.7494 35.3427 63.8674C35.3427 57.5391 35.3427 51.3095 35.3427 44.8967C36.3487 45.364 37.1878 45.7397 38.0147 46.1365C42.8655 48.4706 47.7089 50.814 52.567 53.1363C53.1927 53.4369 53.573 53.7234 53.573 54.5124C53.5411 71.0621 53.546 87.6119 53.5411 104.162C53.5411 104.387 53.5117 104.613 53.4822 104.998C51.3476 103.976 49.3111 103.011 47.282 102.032C31.8562 94.6 16.4377 87.1587 0.999622 79.7456C0.280715 79.4004 -0.00390273 79.0459 -0.00144913 78.2522C0.0255405 61.8198 0.0181797 45.3874 0.0206333 28.9551C0.0230869 28.6615 0.0574374 28.361 0.0819734 27.9477Z"></path>
   <path d="M36.9977 42.4758C41.7184 40.0572 46.2846 37.7137 50.8507 35.3773C63.131 29.0936 75.4162 22.8194 87.6842 16.5146C88.4105 16.1412 88.965 16.1248 89.6986 16.484C95.5578 19.3371 101.437 22.1478 107.308 24.975C107.595 25.1135 107.86 25.2873 108.277 25.5244C107.531 25.9001 106.906 26.2265 106.268 26.5318C89.5661 34.5789 72.8596 42.619 56.1677 50.6849C55.3653 51.0723 54.747 51.1217 53.9128 50.7107C48.6866 48.1348 43.4261 45.6223 38.1779 43.0863C37.8245 42.9149 37.4786 42.7247 36.9977 42.4758Z"></path>
   <path d="M1.65613 25.5056C5.03965 23.8736 8.20725 22.3426 11.3749 20.8163C25.5665 13.9785 39.7606 7.1454 53.94 0.28645C54.7129 -0.086906 55.3042 -0.100995 56.0795 0.279406C61.2763 2.8248 66.5024 5.31854 71.7163 7.83341C72.0697 8.00483 72.4083 8.20677 72.9162 8.4815C72.0868 8.9253 71.3949 9.3104 70.6883 9.67202C54.5509 17.9305 38.416 26.1889 22.264 34.4239C21.8223 34.6493 21.1083 34.8231 20.7182 34.6376C14.4198 31.6648 8.15573 28.6334 1.65613 25.5056Z"></path>
</g>
</svg>