<svg width="24" height="24" viewBox="0 0 24 24" fill="none" xmlns="http://www.w3.org/2000/svg">
     <g>
       <g>
         <path d="M5.52377 7C9.41427 5.74386 13.9724 5.45573 16 5.5C18.0276 5.54427 18.8831 6.2663 19.5 7.5C20.5 9.5 20.289 14.4881 18.5 16.0871C16.712 17.6861 9.33015 17.8381 6.87015 16.0871C4.27115 14.2361 5.629 9.192 5.544 5.743C5.595 3.813 3.5 3.5 3.5 3.5" stroke="#130F26" stroke-width="1.5" stroke-linecap="round" stroke-linejoin="round"></path>
         <path d="M13 10.5H15.773" stroke="#130F26" stroke-width="1.5" stroke-linecap="round" stroke-linejoin="round"></path>
         <path fill-rule="evenodd" clip-rule="evenodd" d="M7.26399 20.1274C7.56399 20.1274 7.80799 20.3714 7.80799 20.6714C7.80799 20.9724 7.56399 21.2164 7.26399 21.2164C6.96299 21.2164 6.71899 20.9724 6.71899 20.6714C6.71899 20.3714 6.96299 20.1274 7.26399 20.1274Z" fill="#130F26" stroke="#130F26" stroke-width="1.5" stroke-linecap="round" stroke-linejoin="round"></path>
         <path fill-rule="evenodd" clip-rule="evenodd" d="M17.5954 20.1274C17.8964 20.1274 18.1404 20.3714 18.1404 20.6714C18.1404 20.9724 17.8964 21.2164 17.5954 21.2164C17.2954 21.2164 17.0514 20.9724 17.0514 20.6714C17.0514 20.3714 17.2954 20.1274 17.5954 20.1274Z" fill="#130F26" stroke="#130F26" stroke-width="1.5" stroke-linecap="round" stroke-linejoin="round"></path>
       </g>
     </g>
   </svg>