<svg class="fill-danger" width="98" height="98" viewBox="0 0 98 98" fill="none" xmlns="http://www.w3.org/2000/svg">
                                <path d="M49.1914 0C22.2778 0 0 21.895 0 48.8086C0 75.7222 22.2778 98 49.1914 98C76.105 98 98 75.7222 98 48.8086C98 21.895 76.105 0 49.1914 0ZM73.3507 64.8465C75.5902 67.086 75.5902 70.7284 73.3507 72.9698C71.1285 75.1901 67.486 75.2265 65.2274 72.9698L49.1914 56.9281L32.7707 72.9717C30.5312 75.2112 26.8888 75.2112 24.6474 72.9717C22.4079 70.7323 22.4079 67.0898 24.6474 64.8484L40.6872 48.8086L24.6474 32.7687C22.4079 30.5274 22.4079 26.8849 24.6474 24.6455C26.8888 22.406 30.5312 22.406 32.7707 24.6455L49.1914 40.6891L65.2274 24.6455C67.463 22.4098 71.1055 22.4022 73.3507 24.6455C75.5902 26.8849 75.5902 30.5274 73.3507 32.7687L57.3109 48.8086L73.3507 64.8465Z"></path>
                              </svg>