<svg class="fill-secondary" width="48" height="48" viewBox="0 0 48 48" fill="none" xmlns="http://www.w3.org/2000/svg">
                        <path d="M22.5938 14.1562V17.2278C20.9604 17.8102 19.7812 19.3566 19.7812 21.1875C19.7812 23.5138 21.6737 25.4062 24 25.4062C24.7759 25.4062 25.4062 26.0366 25.4062 26.8125C25.4062 27.5884 24.7759 28.2188 24 28.2188C23.2241 28.2188 22.5938 27.5884 22.5938 26.8125H19.7812C19.7812 28.6434 20.9604 30.1898 22.5938 30.7722V33.8438H25.4062V30.7722C27.0396 30.1898 28.2188 28.6434 28.2188 26.8125C28.2188 24.4862 26.3263 22.5938 24 22.5938C23.2241 22.5938 22.5938 21.9634 22.5938 21.1875C22.5938 20.4116 23.2241 19.7812 24 19.7812C24.7759 19.7812 25.4062 20.4116 25.4062 21.1875H28.2188C28.2188 19.3566 27.0396 17.8102 25.4062 17.2278V14.1562H22.5938Z"></path>
                        <path d="M25.4062 0V11.4859C31.2498 12.1433 35.8642 16.7579 36.5232 22.5938H48C47.2954 10.5189 37.4829 0.704531 25.4062 0Z"></path>
                        <path d="M14.1556 31.8558C12.4237 29.6903 11.3438 26.9823 11.3438 24C11.3438 17.5025 16.283 12.1958 22.5938 11.4859V0C10.0492 0.731813 0 11.2718 0 24C0 30.0952 2.39381 35.6398 6.14897 39.8624L14.1556 31.8558Z"></path>
                        <path d="M47.9977 25.4062H36.5143C35.8044 31.717 30.4977 36.6562 24.0002 36.6562C21.0179 36.6562 18.3099 35.5763 16.1444 33.8444L8.13779 41.851C12.3604 45.6062 17.905 48 24.0002 48C36.7284 48 47.2659 37.9508 47.9977 25.4062Z"></path>
                      </svg>