<svg width="28" height="28" viewbox="0 0 28 28" fill="none" xmlns="http://www.w3.org/2000/svg">
                           <g clip-path="url(#clip0_449_18)">
                             <path d="M27.7073 10.2929L20.7071 3.29275C20.3166 2.90228 19.6834 2.90239 19.2929 3.29299C19.1055 3.48049 19.0002 3.73467 19.0001 3.99981V6.99986H12C11.4477 6.99986 10.9999 7.44758 10.9999 7.9999C10.9999 8.55221 11.4477 8.99993 12 8.99993H20.0001C20.5525 8.99993 21.0002 8.55221 21.0002 7.9999V6.4138L25.5863 10.9999L21.0002 15.586V13.9999C21.0002 13.4476 20.5525 12.9999 20.0001 12.9999H8.99992V9.99985C8.99981 9.44754 8.55197 8.99993 7.99971 9.00005C7.73463 9.00011 7.48039 9.1054 7.29289 9.29285L0.292812 16.293C-0.0976041 16.6835 -0.0976041 17.3165 0.292812 17.707L7.29294 24.7071C7.48045 24.8947 7.73475 25.0001 7.99995 25.0001C8.13138 25.0006 8.26163 24.9747 8.38292 24.9242C8.75652 24.7692 9.00004 24.4046 8.99992 24.0001V21.0001H16.0001C16.5524 21.0001 17.0001 20.5523 17.0001 20C17.0001 19.4477 16.5524 19 16.0001 19H7.99995C7.44763 19 6.99991 19.4477 6.99991 20V21.5861L2.41382 17L6.99991 12.4139V13.9999C6.99991 14.5522 7.44763 15 7.99995 15H19.0001V18C19.0002 18.5523 19.4481 18.9999 20.0003 18.9998C20.2654 18.9998 20.5196 18.8945 20.7071 18.707L27.7073 11.7069C28.0976 11.3164 28.0976 10.6834 27.7073 10.2929Z"></path>
                           </g>
                           <defs>
                             <clippath id="clip0_449_18">
                               <rect width="28" height="28" fill="white"></rect>
                             </clippath>
                           </defs>
                         </svg>