<svg width="24" height="24" viewBox="0 0 24 24" fill="none" xmlns="http://www.w3.org/2000/svg">
                        <g> 
                          <g> 
                            <path d="M6.07056 16.4588C6.07056 16.4588 6.88256 14.8218 8.06456 14.8218C9.24656 14.8218 9.85056 16.1968 11.1606 16.1968C12.4696 16.1968 13.9386 12.7488 15.4226 12.7488C16.9046 12.7488 17.9706 15.1398 17.9706 15.1398" stroke="#130F26" stroke-width="1.5" stroke-linecap="round" stroke-linejoin="round"></path>
                            <path fill-rule="evenodd" clip-rule="evenodd" d="M10.1393 9.10487C10.1393 9.96487 9.44229 10.6629 8.58129 10.6629C7.72129 10.6629 7.02429 9.96487 7.02429 9.10487C7.02429 8.24487 7.72129 7.54688 8.58129 7.54688C9.44229 7.54788 10.1393 8.24487 10.1393 9.10487Z" stroke="#130F26" stroke-width="1.5" stroke-linecap="round" stroke-linejoin="round"></path>
                            <path fill-rule="evenodd" clip-rule="evenodd" d="M2.75024 12C2.75024 18.937 5.06324 21.25 12.0002 21.25C18.9372 21.25 21.2502 18.937 21.2502 12C21.2502 5.063 18.9372 2.75 12.0002 2.75C5.06324 2.75 2.75024 5.063 2.75024 12Z" stroke="#130F26" stroke-width="1.5" stroke-linecap="round" stroke-linejoin="round"></path>
                          </g>
                        </g>
                      </svg>