<svg class="fill-primary" width="44" height="46" viewBox="0 0 44 46" xmlns="http://www.w3.org/2000/svg">
                        <path d="M9.73709 35.2337C6.17884 31.58 4.00316 26.8452 3.49802 21.7377C1.60687 24.237 0.581465 27.3024 0.586192 30.5195C0.589372 32.612 1.03986 34.692 1.89348 36.5729L0.1333 41.9282C-0.169286 42.8488 0.0517454 43.8484 0.7102 44.5369C1.17358 45.0213 1.78451 45.2794 2.4128 45.2794C2.67714 45.2794 2.94458 45.2337 3.2054 45.14L8.32806 43.2997C10.1272 44.1922 12.1167 44.6631 14.1182 44.6665C17.2557 44.6709 20.2418 43.558 22.657 41.5068C17.8005 41.0474 13.2702 38.8615 9.73709 35.2337Z"></path>
                        <path d="M43.8418 35.7427L41.2863 27.9674C42.5181 25.3348 43.1691 22.407 43.1735 19.4611C43.181 14.3388 41.2854 9.49561 37.8357 5.82369C34.3853 2.15096 29.7875 0.0836476 24.889 0.00251856C19.8097 -0.0814855 15.0354 1.93839 11.446 5.69081C7.85665 9.44332 5.92425 14.4346 6.00469 19.7451C6.08229 24.8661 8.05972 29.673 11.5726 33.2803C15.078 36.8798 19.6988 38.861 24.5879 38.8608C24.5975 38.8608 24.6077 38.8608 24.6171 38.8608C27.435 38.8563 30.2356 38.1757 32.7537 36.8879L40.1911 39.5596C40.501 39.671 40.8188 39.7252 41.1329 39.7252C41.8795 39.7252 42.6055 39.4187 43.1563 38.8428C43.9388 38.0247 44.2014 36.8369 43.8418 35.7427ZM26.3834 26.1731H16.7865C16.0633 26.1731 15.477 25.5601 15.477 24.804C15.477 24.0479 16.0633 23.435 16.7865 23.435H26.3833C27.1066 23.435 27.6929 24.048 27.6929 24.804C27.6929 25.5602 27.1067 26.1731 26.3834 26.1731ZM32.3894 20.5426H16.7866C16.0633 20.5426 15.4771 19.9296 15.4771 19.1736C15.4771 18.4176 16.0634 17.8046 16.7866 17.8046H32.3894C33.1127 17.8046 33.6989 18.4176 33.6989 19.1736C33.6989 19.9296 33.1127 20.5426 32.3894 20.5426ZM32.3894 14.912H16.7866C16.0633 14.912 15.4771 14.299 15.4771 13.543C15.4771 12.7869 16.0634 12.1739 16.7866 12.1739H32.3894C33.1127 12.1739 33.6989 12.787 33.6989 13.543C33.6989 14.299 33.1127 14.912 32.3894 14.912Z"></path>
                      </svg>