<svg class="fill-success" width="112" height="82" viewBox="0 0 112 82" fill="none" xmlns="http://www.w3.org/2000/svg">
                                <path d="M40.2301 0.0161888C50.6652 0.0134581 61.103 0.0134581 71.5381 0.0161888C74.6718 0.0161888 75.6717 1.07297 75.6769 4.36891C75.6796 5.82437 75.7532 7.28803 75.6559 8.73529C75.5664 10.046 76.1058 10.3601 77.2582 10.3519C82.7389 10.3109 88.2196 10.33 93.7003 10.3355C97.105 10.3382 98.3048 11.2748 99.252 14.6964C100.946 20.8104 102.601 26.9381 104.341 33.0385C104.512 33.6365 105.098 34.1307 105.556 34.6086C107.556 36.7003 109.616 38.732 111.563 40.8728C111.921 41.266 111.974 42.0661 111.974 42.6778C112 50.0043 112.003 57.3334 111.984 64.6599C111.979 66.9865 110.824 68.2043 108.593 68.2398C105.83 68.2835 103.067 68.2835 100.304 68.248C99.3204 68.2344 98.8836 68.461 98.7389 69.6434C97.9864 75.7219 94.287 80.1812 89.0195 81.5656C81.1181 83.641 73.5115 78.1086 72.6932 69.6106C72.5853 68.4938 72.1854 68.248 71.2382 68.2508C61.0662 68.2671 50.8915 68.2699 40.7195 68.248C39.7407 68.2453 39.4013 68.5648 39.2934 69.6434C38.6199 76.4019 33.6102 81.5001 27.3743 81.907C20.6912 82.3411 15.1185 78.1932 13.5608 71.6259C13.5293 71.4948 13.4872 71.3638 13.4608 71.2299C12.9083 68.259 12.9083 68.2589 9.94563 68.2589C7.75389 68.2589 5.55951 68.2917 3.36777 68.2453C1.13918 68.1989 -0.000101532 66.9755 -0.000101532 64.6381C-0.00273268 45.9301 -0.0185196 27.2248 0.0525214 8.51957C0.0551525 7.50375 0.62348 6.33501 1.26022 5.51308C2.38109 4.06854 3.78612 2.8643 5.02276 1.50988C5.99102 0.447638 7.10662 -0.0056568 8.52744 -0.00019541C19.0941 0.0353036 29.6608 0.0189194 40.2301 0.0161888ZM97.7943 34.1307C97.7549 33.7539 97.7628 33.4836 97.6943 33.2378C96.2972 28.1232 94.8685 23.0196 93.5029 17.8968C93.253 16.9629 92.7136 16.8482 91.9453 16.8509C86.9935 16.8673 82.039 16.8864 77.0872 16.8427C75.9927 16.8318 75.648 17.2332 75.6611 18.3473C75.7085 22.214 75.6717 26.0807 75.6796 29.9473C75.6848 32.8937 76.9372 34.2127 79.7473 34.2181C85.3122 34.229 90.8797 34.2236 96.4445 34.2181C96.8734 34.2154 97.2997 34.1635 97.7943 34.1307ZM32.9392 68.4091C32.9313 64.5425 29.9923 61.4513 26.2903 61.424C22.583 61.3967 19.5835 64.5725 19.6046 68.5047C19.623 72.3386 22.6304 75.4243 26.3219 75.4052C30.0081 75.3833 32.9445 72.2785 32.9392 68.4091ZM79.0553 68.3791C79.0369 72.254 81.9522 75.3642 85.6437 75.4025C89.3273 75.4434 92.3636 72.355 92.39 68.5348C92.4189 64.5944 89.4457 61.4213 85.7332 61.424C82.0417 61.4322 79.0711 64.5261 79.0553 68.3791Z"></path>
                              </svg>