<svg width="22" height="24" viewbox="0 0 22 24" fill="none" xmlns="http://www.w3.org/2000/svg">
                            <path d="M14.543 23.3543C12.9802 22.4279 12.0549 20.755 12.0549 18.9909C12.0549 18.0645 12.4236 17.1309 12.8851 16.2979C13.2538 15.5539 13.4345 14.2554 12.1478 13.605C11.2296 13.0506 10.0284 13.4202 9.47903 14.349C8.9295 15.093 8.28496 15.837 7.45479 16.3915C5.89208 17.3179 4.04859 17.3179 2.48576 16.3915C0.92293 15.4651 0 13.788 0 12.0234C0 10.2588 0.918173 8.58649 2.48541 7.65757C4.04812 6.73117 5.8916 6.73117 7.45443 7.65757C8.28461 8.12317 8.92903 8.86237 9.38591 9.70009C9.75456 10.3505 10.7679 11.1881 12.0547 10.4441C12.9729 9.88969 13.2488 8.67757 12.792 7.75117C12.3306 6.91357 12.0547 5.98465 12.0547 5.05825C12.0547 3.29172 12.9729 1.62132 14.5427 0.694799C16.1054 -0.231602 17.9489 -0.231602 19.5117 0.694799C21.0746 1.6212 22 3.29412 22 5.05825C22 6.82237 21.0794 8.49517 19.512 9.42409C18.6818 9.88969 17.7613 10.0745 16.7503 10.0745C15.9202 10.0745 14.8188 10.6289 14.8188 12.0234C14.8188 13.1394 15.649 13.9723 16.7503 13.9723C17.6685 13.9723 18.6818 14.1571 19.512 14.6227C21.0747 15.5491 22 17.2221 22 18.9861C22 20.7501 21.0794 22.423 19.512 23.3495C18.7747 23.8151 17.8564 23.9999 17.0266 23.9999C16.2012 24.0047 15.2758 23.8151 14.5433 23.3543"></path>
                          </svg>