<svg width="24" height="24" viewBox="0 0 24 24" fill="none" xmlns="http://www.w3.org/2000/svg">
                        <g> 
                          <g>
                            <path fill-rule="evenodd" clip-rule="evenodd" d="M21.4399 13.9939C18.7789 13.9939 18.7789 9.87952 21.4399 9.87952C21.4399 5.11236 21.4399 3.41089 12.0449 3.41089C2.6499 3.41089 2.6499 5.11236 2.6499 9.87952C5.3109 9.87952 5.3109 13.9939 2.6499 13.9939C2.6499 18.762 2.6499 20.4635 12.0449 20.4635C21.4399 20.4635 21.4399 18.762 21.4399 13.9939Z" stroke="#130F26" stroke-width="1.5" stroke-linecap="round" stroke-linejoin="round"></path>
                            <path fill-rule="evenodd" clip-rule="evenodd" d="M12.0449 9.17114C11.3619 9.17114 11.2969 10.2606 10.8909 10.6462C10.4839 11.0308 9.22087 10.5912 9.04487 11.2743C8.86987 11.9583 10.0069 12.1904 10.1479 12.7768C10.2879 13.3632 9.59387 14.1875 10.1869 14.5986C10.7809 15.0079 11.4199 14.0804 12.0449 14.0804C12.6699 14.0804 13.3089 15.0079 13.9029 14.5986C14.4969 14.1875 13.8019 13.3632 13.9419 12.7768C14.0829 12.1904 15.2199 11.9583 15.0449 11.2743C14.8689 10.5912 13.6059 11.0308 13.1989 10.6462C12.7929 10.2606 12.7279 9.17114 12.0449 9.17114Z" stroke="#130F26" stroke-width="1.5" stroke-linecap="round" stroke-linejoin="round"></path>
                          </g>
                        </g>
                      </svg>