<svg class="fill-warning" width="98" height="98" viewBox="0 0 98 98" xmlns="http://www.w3.org/2000/svg">
                                <path d="M7.35 84H12.25V77.1167C12.25 61.5883 25.4677 49 41.7725 49C25.4677 49 12.25 36.4117 12.25 20.8833V14H7.35C3.29525 14 0 10.8617 0 7C0 3.13833 3.29525 0 7.35 0H90.65C94.7047 0 98 3.13833 98 7C98 10.8617 94.7047 14 90.65 14H85.75V20.8833C85.75 36.4117 72.5323 49 56.2275 49C72.5323 49 85.75 61.5883 85.75 77.1167V84H90.65C94.7047 84 98 87.1383 98 91C98 94.8617 94.7047 98 90.65 98H7.35C3.29525 98 0 94.8617 0 91C0 87.1383 3.29525 84 7.35 84ZM77.0893 22.6567C77.1505 22.0733 77.175 21.4783 77.175 20.8833V14H20.825V20.8833C20.825 21.4783 20.8495 22.0733 20.9108 22.6567C25.48 27.51 36.3335 30.9167 49 30.9167C61.6665 30.9167 72.52 27.51 77.0893 22.6567ZM56.2275 57.1667H41.7725C30.2207 57.1667 20.825 66.115 20.825 77.1167V77.9567C25.3575 72.9517 36.26 69.4167 49 69.4167C61.74 69.4167 72.6425 72.9517 77.175 77.9567V77.1167C77.175 66.115 67.7793 57.1667 56.2275 57.1667Z"></path>
                              </svg>